<?plantuml 1.2026.2?><svg xmlns="http://www.w3.org/2000/svg" xmlns:xlink="http://www.w3.org/1999/xlink" contentStyleType="text/css" data-diagram-type="SEQUENCE" height="473px" preserveAspectRatio="none" style="width:781px;height:473px;background:#FFFFFF;" version="1.1" viewBox="0 0 781 473" width="781px" zoomAndPan="magnify"><defs/><g><g class="participant-lifeline" data-entity-uid="part1" data-qualified-name="System" id="part1-lifeline"><g><title>.. BK System</title><rect fill="#000000" fill-opacity="0.00000" height="311.3281" width="8" x="52.1465" y="81.2969"/><line style="stroke:#181818;stroke-width:0.5;stroke-dasharray:5,5;" x1="56" x2="56" y1="81.2969" y2="392.625"/></g></g><g class="participant-lifeline" data-entity-uid="part2" data-qualified-name="DB" id="part2-lifeline"><g><title>.. Database</title><rect fill="#000000" fill-opacity="0.00000" height="311.3281" width="8" x="352.9995" y="81.2969"/><line style="stroke:#181818;stroke-width:0.5;stroke-dasharray:5,5;" x1="356.1733" x2="356.1733" y1="81.2969" y2="392.625"/></g></g><g class="participant-lifeline" data-entity-uid="part3" data-qualified-name="Rider" id="part3-lifeline"><g><title>Delivery Rider</title><rect fill="#000000" fill-opacity="0.00000" height="311.3281" width="8" x="458.5435" y="81.2969"/><line style="stroke:#181818;stroke-width:0.5;stroke-dasharray:5,5;" x1="461.8257" x2="461.8257" y1="81.2969" y2="392.625"/></g></g><g class="participant-lifeline" data-entity-uid="part4" data-qualified-name="RiderApp" id="part4-lifeline"><g><title>. Rider App</title><rect fill="#000000" fill-opacity="0.00000" height="311.3281" width="8" x="723.748" y="81.2969"/><line style="stroke:#181818;stroke-width:0.5;stroke-dasharray:5,5;" x1="726.9854" x2="726.9854" y1="81.2969" y2="392.625"/></g></g><g class="participant participant-head" data-entity-uid="part1" data-qualified-name="System" id="part1-head"><rect fill="#E2E2F0" height="30.2969" rx="2.5" ry="2.5" style="stroke:#181818;stroke-width:0.5;" width="102.293" x="5" y="50"/><text fill="#000000" font-family="sans-serif" font-size="14" lengthAdjust="spacing" textLength="88.293" x="12" y="69.9951">&#128421;&#65039; BK System</text></g><g class="participant participant-tail" data-entity-uid="part1" data-qualified-name="System" id="part1-tail"><rect fill="#E2E2F0" height="30.2969" rx="2.5" ry="2.5" style="stroke:#181818;stroke-width:0.5;" width="102.293" x="5" y="391.625"/><text fill="#000000" font-family="sans-serif" font-size="14" lengthAdjust="spacing" textLength="88.293" x="12" y="411.6201">&#128421;&#65039; BK System</text></g><g class="participant participant-head" data-entity-uid="part2" data-qualified-name="DB" id="part2-head"><text fill="#000000" font-family="sans-serif" font-size="14" lengthAdjust="spacing" textLength="79.6523" x="314.1733" y="77.9951">&#128452;&#65039; Database</text><path d="M338.9995,29 C338.9995,19 356.9995,19 356.9995,19 C356.9995,19 374.9995,19 374.9995,29 L374.9995,55 C374.9995,65 356.9995,65 356.9995,65 C356.9995,65 338.9995,65 338.9995,55 L338.9995,29" fill="#E2E2F0" style="stroke:#181818;stroke-width:0.5;"/><path d="M338.9995,29 C338.9995,39 356.9995,39 356.9995,39 C356.9995,39 374.9995,39 374.9995,29" fill="none" style="stroke:#181818;stroke-width:0.5;"/></g><g class="participant participant-tail" data-entity-uid="part2" data-qualified-name="DB" id="part2-tail"><text fill="#000000" font-family="sans-serif" font-size="14" lengthAdjust="spacing" textLength="79.6523" x="314.1733" y="404.6201">&#128452;&#65039; Database</text><path d="M338.9995,417.9219 C338.9995,407.9219 356.9995,407.9219 356.9995,407.9219 C356.9995,407.9219 374.9995,407.9219 374.9995,417.9219 L374.9995,443.9219 C374.9995,453.9219 356.9995,453.9219 356.9995,453.9219 C356.9995,453.9219 338.9995,453.9219 338.9995,443.9219 L338.9995,417.9219" fill="#E2E2F0" style="stroke:#181818;stroke-width:0.5;"/><path d="M338.9995,417.9219 C338.9995,427.9219 356.9995,427.9219 356.9995,427.9219 C356.9995,427.9219 374.9995,427.9219 374.9995,417.9219" fill="none" style="stroke:#181818;stroke-width:0.5;"/></g><g class="participant participant-head" data-entity-uid="part3" data-qualified-name="Rider" id="part3-head"><text fill="#000000" font-family="sans-serif" font-size="14" lengthAdjust="spacing" textLength="99.4355" x="409.8257" y="77.9951">Delivery Rider</text><ellipse cx="462.5435" cy="13.5" fill="#E2E2F0" rx="8" ry="8" style="stroke:#181818;stroke-width:0.5;"/><path d="M462.5435,21.5 L462.5435,48.5 M449.5435,29.5 L475.5435,29.5 M462.5435,48.5 L449.5435,63.5 M462.5435,48.5 L475.5435,63.5" fill="none" style="stroke:#181818;stroke-width:0.5;"/></g><g class="participant participant-tail" data-entity-uid="part3" data-qualified-name="Rider" id="part3-tail"><text fill="#000000" font-family="sans-serif" font-size="14" lengthAdjust="spacing" textLength="99.4355" x="409.8257" y="404.6201">Delivery Rider</text><ellipse cx="462.5435" cy="416.4219" fill="#E2E2F0" rx="8" ry="8" style="stroke:#181818;stroke-width:0.5;"/><path d="M462.5435,424.4219 L462.5435,451.4219 M449.5435,432.4219 L475.5435,432.4219 M462.5435,451.4219 L449.5435,466.4219 M462.5435,451.4219 L475.5435,466.4219" fill="none" style="stroke:#181818;stroke-width:0.5;"/></g><g class="participant participant-head" data-entity-uid="part4" data-qualified-name="RiderApp" id="part4-head"><rect fill="#E2E2F0" height="30.2969" rx="2.5" ry="2.5" style="stroke:#181818;stroke-width:0.5;" width="95.5254" x="679.9854" y="50"/><text fill="#000000" font-family="sans-serif" font-size="14" lengthAdjust="spacing" textLength="81.5254" x="686.9854" y="69.9951">&#128241; Rider App</text></g><g class="participant participant-tail" data-entity-uid="part4" data-qualified-name="RiderApp" id="part4-tail"><rect fill="#E2E2F0" height="30.2969" rx="2.5" ry="2.5" style="stroke:#181818;stroke-width:0.5;" width="95.5254" x="679.9854" y="391.625"/><text fill="#000000" font-family="sans-serif" font-size="14" lengthAdjust="spacing" textLength="81.5254" x="686.9854" y="411.6201">&#128241; Rider App</text></g><g class="message" data-entity-1="part1" data-entity-2="part2" id="msg1"><polygon fill="#181818" points="344.9995,108.4297,354.9995,112.4297,344.9995,116.4297,348.9995,112.4297" style="stroke:#181818;stroke-width:1;"/><line style="stroke:#181818;stroke-width:1;" x1="56.1465" x2="350.9995" y1="112.4297" y2="112.4297"/><text fill="#000000" font-family="sans-serif" font-size="13" lengthAdjust="spacing" textLength="182.0508" x="63.1465" y="107.3638">fetchReadyDeliveryOrders()</text></g><g class="message" data-entity-1="part2" data-entity-2="part1" id="msg2"><polygon fill="#181818" points="67.1465,137.5625,57.1465,141.5625,67.1465,145.5625,63.1465,141.5625" style="stroke:#181818;stroke-width:1;"/><line style="stroke:#181818;stroke-width:1;stroke-dasharray:2,2;" x1="61.1465" x2="355.9995" y1="141.5625" y2="141.5625"/><text fill="#000000" font-family="sans-serif" font-size="13" lengthAdjust="spacing" textLength="91.3428" x="73.1465" y="136.4966">readyOrders()</text></g><g class="message" data-entity-1="part1" data-entity-2="part2" id="msg3"><polygon fill="#181818" points="344.9995,166.6953,354.9995,170.6953,344.9995,174.6953,348.9995,170.6953" style="stroke:#181818;stroke-width:1;"/><line style="stroke:#181818;stroke-width:1;" x1="56.1465" x2="350.9995" y1="170.6953" y2="170.6953"/><text fill="#000000" font-family="sans-serif" font-size="13" lengthAdjust="spacing" textLength="128.667" x="63.1465" y="165.6294">findAvailableRider()</text></g><g class="message" data-entity-1="part2" data-entity-2="part1" id="msg4"><polygon fill="#181818" points="67.1465,195.8281,57.1465,199.8281,67.1465,203.8281,63.1465,199.8281" style="stroke:#181818;stroke-width:1;"/><line style="stroke:#181818;stroke-width:1;stroke-dasharray:2,2;" x1="61.1465" x2="355.9995" y1="199.8281" y2="199.8281"/><text fill="#000000" font-family="sans-serif" font-size="13" lengthAdjust="spacing" textLength="44.3955" x="73.1465" y="194.7622">riderID</text></g><g class="message" data-entity-1="part1" data-entity-2="part4" id="msg5"><polygon fill="#181818" points="715.748,224.9609,725.748,228.9609,715.748,232.9609,719.748,228.9609" style="stroke:#181818;stroke-width:1;"/><line style="stroke:#181818;stroke-width:1;" x1="56.1465" x2="721.748" y1="228.9609" y2="228.9609"/><text fill="#000000" font-family="sans-serif" font-size="13" lengthAdjust="spacing" textLength="300.8979" x="63.1465" y="223.895">sendAssignmentNotification(orderID, address)</text></g><g class="message" data-entity-1="part4" data-entity-2="part3" id="msg6"><polygon fill="#181818" points="473.5435,254.0938,463.5435,258.0938,473.5435,262.0938,469.5435,258.0938" style="stroke:#181818;stroke-width:1;"/><line style="stroke:#181818;stroke-width:1;stroke-dasharray:2,2;" x1="467.5435" x2="726.748" y1="258.0938" y2="258.0938"/><text fill="#000000" font-family="sans-serif" font-size="13" lengthAdjust="spacing" textLength="241.2046" x="479.5435" y="253.0278">displayAssignment(orderID, address)</text></g><g class="message" data-entity-1="part3" data-entity-2="part4" id="msg7"><polygon fill="#181818" points="715.748,283.2266,725.748,287.2266,715.748,291.2266,719.748,287.2266" style="stroke:#181818;stroke-width:1;"/><line style="stroke:#181818;stroke-width:1;" x1="462.5435" x2="721.748" y1="287.2266" y2="287.2266"/><text fill="#000000" font-family="sans-serif" font-size="13" lengthAdjust="spacing" textLength="130.292" x="469.5435" y="282.1606">acceptAssignment()</text></g><g class="message" data-entity-1="part4" data-entity-2="part1" id="msg8"><polygon fill="#181818" points="67.1465,312.3594,57.1465,316.3594,67.1465,320.3594,63.1465,316.3594" style="stroke:#181818;stroke-width:1;"/><line style="stroke:#181818;stroke-width:1;" x1="61.1465" x2="726.748" y1="316.3594" y2="316.3594"/><text fill="#000000" font-family="sans-serif" font-size="13" lengthAdjust="spacing" textLength="236.9644" x="73.1465" y="311.2935">confirmAcceptance(orderID, riderID)</text></g><g class="message" data-entity-1="part1" data-entity-2="part2" id="msg9"><polygon fill="#181818" points="344.9995,341.4922,354.9995,345.4922,344.9995,349.4922,348.9995,345.4922" style="stroke:#181818;stroke-width:1;"/><line style="stroke:#181818;stroke-width:1;" x1="56.1465" x2="350.9995" y1="345.4922" y2="345.4922"/><text fill="#000000" font-family="sans-serif" font-size="13" lengthAdjust="spacing" textLength="276.853" x="63.1465" y="340.4263">updateOrderStatus(orderID, "Dispatched")</text></g><g class="message" data-entity-1="part2" data-entity-2="part1" id="msg10"><polygon fill="#181818" points="67.1465,370.625,57.1465,374.625,67.1465,378.625,63.1465,374.625" style="stroke:#181818;stroke-width:1;"/><line style="stroke:#181818;stroke-width:1;stroke-dasharray:2,2;" x1="61.1465" x2="355.9995" y1="374.625" y2="374.625"/><text fill="#000000" font-family="sans-serif" font-size="13" lengthAdjust="spacing" textLength="105.4219" x="73.1465" y="369.5591">statusUpdated()</text></g><?plantuml-src RP6nJiCm48PtFuMLAP7e2tH0IfK58L6f5GzmjIzmKk9OzhLITdO691YPU00stWeU0ST9ca2wsNVV___dimN7fCY2OPdylBz-V7yzoysjtBUUiKua-E4eD30Sm6E7lJrrM35K8bLi12Xkd4mAhEY4hfKxqkXYCvw4_PlryjdNPMxjH8MB47saN5q7MxcM9R9wt27eTlJUke3wD1EXlmhO85XBrr7dxiA8ZCvFG1KSAennboow-aqn5u-JXQx7OE4zFPWQ3TyrJ2KfO6fCshWel9AWjKFlCt7MhKQJuA39smhQoUI2i5V-YmQbqF9CDm-OFK0rfYHNvn47et0A6DwstCpHXl_5kBWz0n_zf4cAC3247q2TBBVb8tqVvJhDVW40?></g></svg>