<?plantuml 1.2026.2?><svg xmlns="http://www.w3.org/2000/svg" xmlns:xlink="http://www.w3.org/1999/xlink" contentStyleType="text/css" data-diagram-type="SEQUENCE" height="502px" preserveAspectRatio="none" style="width:962px;height:502px;background:#FFFFFF;" version="1.1" viewBox="0 0 962 502" width="962px" zoomAndPan="magnify"><defs/><g><g class="participant-lifeline" data-entity-uid="part1" data-qualified-name="Owner" id="part1-lifeline"><g><title>Owner</title><rect fill="#000000" fill-opacity="0.00000" height="340.4609" width="8" x="26.856" y="81.2969"/><line style="stroke:#181818;stroke-width:0.5;stroke-dasharray:5,5;" x1="30" x2="30" y1="81.2969" y2="421.7578"/></g></g><g class="participant-lifeline" data-entity-uid="part2" data-qualified-name="Dashboard" id="part2-lifeline"><g><title>. Owner Dashboard</title><rect fill="#000000" fill-opacity="0.00000" height="340.4609" width="8" x="274.7886" y="81.2969"/><line style="stroke:#181818;stroke-width:0.5;stroke-dasharray:5,5;" x1="278.3823" x2="278.3823" y1="81.2969" y2="421.7578"/></g></g><g class="participant-lifeline" data-entity-uid="part3" data-qualified-name="System" id="part3-lifeline"><g><title>. BK System</title><rect fill="#000000" fill-opacity="0.00000" height="340.4609" width="8" x="561.3149" y="81.2969"/><line style="stroke:#181818;stroke-width:0.5;stroke-dasharray:5,5;" x1="564.3691" x2="564.3691" y1="81.2969" y2="421.7578"/></g></g><g class="participant-lifeline" data-entity-uid="part4" data-qualified-name="DB" id="part4-lifeline"><g><title>. Database</title><rect fill="#000000" fill-opacity="0.00000" height="340.4609" width="8" x="919.3223" y="81.2969"/><line style="stroke:#181818;stroke-width:0.5;stroke-dasharray:5,5;" x1="922.6968" x2="922.6968" y1="81.2969" y2="421.7578"/></g></g><g class="participant participant-head" data-entity-uid="part1" data-qualified-name="Owner" id="part1-head"><text fill="#000000" font-family="sans-serif" font-size="14" lengthAdjust="spacing" textLength="45.7119" x="5" y="77.9951">Owner</text><ellipse cx="30.856" cy="13.5" fill="#E2E2F0" rx="8" ry="8" style="stroke:#181818;stroke-width:0.5;"/><path d="M30.856,21.5 L30.856,48.5 M17.856,29.5 L43.856,29.5 M30.856,48.5 L17.856,63.5 M30.856,48.5 L43.856,63.5" fill="none" style="stroke:#181818;stroke-width:0.5;"/></g><g class="participant participant-tail" data-entity-uid="part1" data-qualified-name="Owner" id="part1-tail"><text fill="#000000" font-family="sans-serif" font-size="14" lengthAdjust="spacing" textLength="45.7119" x="5" y="433.7529">Owner</text><ellipse cx="30.856" cy="445.5547" fill="#E2E2F0" rx="8" ry="8" style="stroke:#181818;stroke-width:0.5;"/><path d="M30.856,453.5547 L30.856,480.5547 M17.856,461.5547 L43.856,461.5547 M30.856,480.5547 L17.856,495.5547 M30.856,480.5547 L43.856,495.5547" fill="none" style="stroke:#181818;stroke-width:0.5;"/></g><g class="participant participant-head" data-entity-uid="part2" data-qualified-name="Dashboard" id="part2-head"><rect fill="#E2E2F0" height="30.2969" rx="2.5" ry="2.5" style="stroke:#181818;stroke-width:0.5;" width="144.8125" x="206.3823" y="50"/><text fill="#000000" font-family="sans-serif" font-size="14" lengthAdjust="spacing" textLength="130.8125" x="213.3823" y="69.9951">&#65039; Owner Dashboard</text></g><g class="participant participant-tail" data-entity-uid="part2" data-qualified-name="Dashboard" id="part2-tail"><rect fill="#E2E2F0" height="30.2969" rx="2.5" ry="2.5" style="stroke:#181818;stroke-width:0.5;" width="144.8125" x="206.3823" y="420.7578"/><text fill="#000000" font-family="sans-serif" font-size="14" lengthAdjust="spacing" textLength="130.8125" x="213.3823" y="440.7529">&#65039; Owner Dashboard</text></g><g class="participant participant-head" data-entity-uid="part3" data-qualified-name="System" id="part3-head"><rect fill="#E2E2F0" height="30.2969" rx="2.5" ry="2.5" style="stroke:#181818;stroke-width:0.5;" width="93.8916" x="518.3691" y="50"/><text fill="#000000" font-family="sans-serif" font-size="14" lengthAdjust="spacing" textLength="79.8916" x="525.3691" y="69.9951">&#65039; BK System</text></g><g class="participant participant-tail" data-entity-uid="part3" data-qualified-name="System" id="part3-tail"><rect fill="#E2E2F0" height="30.2969" rx="2.5" ry="2.5" style="stroke:#181818;stroke-width:0.5;" width="93.8916" x="518.3691" y="420.7578"/><text fill="#000000" font-family="sans-serif" font-size="14" lengthAdjust="spacing" textLength="79.8916" x="525.3691" y="440.7529">&#65039; BK System</text></g><g class="participant participant-head" data-entity-uid="part4" data-qualified-name="DB" id="part4-head"><text fill="#000000" font-family="sans-serif" font-size="14" lengthAdjust="spacing" textLength="71.251" x="884.6968" y="77.9951">&#65039; Database</text><path d="M905.3223,29 C905.3223,19 923.3223,19 923.3223,19 C923.3223,19 941.3223,19 941.3223,29 L941.3223,55 C941.3223,65 923.3223,65 923.3223,65 C923.3223,65 905.3223,65 905.3223,55 L905.3223,29" fill="#E2E2F0" style="stroke:#181818;stroke-width:0.5;"/><path d="M905.3223,29 C905.3223,39 923.3223,39 923.3223,39 C923.3223,39 941.3223,39 941.3223,29" fill="none" style="stroke:#181818;stroke-width:0.5;"/></g><g class="participant participant-tail" data-entity-uid="part4" data-qualified-name="DB" id="part4-tail"><text fill="#000000" font-family="sans-serif" font-size="14" lengthAdjust="spacing" textLength="71.251" x="884.6968" y="433.7529">&#65039; Database</text><path d="M905.3223,447.0547 C905.3223,437.0547 923.3223,437.0547 923.3223,437.0547 C923.3223,437.0547 941.3223,437.0547 941.3223,447.0547 L941.3223,473.0547 C941.3223,483.0547 923.3223,483.0547 923.3223,483.0547 C923.3223,483.0547 905.3223,483.0547 905.3223,473.0547 L905.3223,447.0547" fill="#E2E2F0" style="stroke:#181818;stroke-width:0.5;"/><path d="M905.3223,447.0547 C905.3223,457.0547 923.3223,457.0547 923.3223,457.0547 C923.3223,457.0547 941.3223,457.0547 941.3223,447.0547" fill="none" style="stroke:#181818;stroke-width:0.5;"/></g><g class="message" data-entity-1="part1" data-entity-2="part2" id="msg1"><polygon fill="#181818" points="266.7886,108.4297,276.7886,112.4297,266.7886,116.4297,270.7886,112.4297" style="stroke:#181818;stroke-width:1;"/><line style="stroke:#181818;stroke-width:1;" x1="30.856" x2="272.7886" y1="112.4297" y2="112.4297"/><text fill="#000000" font-family="sans-serif" font-size="13" lengthAdjust="spacing" textLength="172.377" x="37.856" y="107.3638">openAnalyticsDashboard()</text></g><g class="message" data-entity-1="part2" data-entity-2="part3" id="msg2"><polygon fill="#181818" points="553.3149,137.5625,563.3149,141.5625,553.3149,145.5625,557.3149,141.5625" style="stroke:#181818;stroke-width:1;"/><line style="stroke:#181818;stroke-width:1;" x1="278.7886" x2="559.3149" y1="141.5625" y2="141.5625"/><text fill="#000000" font-family="sans-serif" font-size="13" lengthAdjust="spacing" textLength="136.7412" x="285.7886" y="136.4966">requestBranchData()</text></g><g class="message" data-entity-1="part3" data-entity-2="part4" id="msg3"><polygon fill="#181818" points="911.3223,166.6953,921.3223,170.6953,911.3223,174.6953,915.3223,170.6953" style="stroke:#181818;stroke-width:1;"/><line style="stroke:#181818;stroke-width:1;" x1="565.3149" x2="917.3223" y1="170.6953" y2="170.6953"/><text fill="#000000" font-family="sans-serif" font-size="13" lengthAdjust="spacing" textLength="334.0073" x="572.3149" y="165.6294">aggregateAllBranchData(sales, inventory, delivery)</text></g><g class="message" data-entity-1="part4" data-entity-2="part3" id="msg4"><polygon fill="#181818" points="576.3149,195.8281,566.3149,199.8281,576.3149,203.8281,572.3149,199.8281" style="stroke:#181818;stroke-width:1;"/><line style="stroke:#181818;stroke-width:1;stroke-dasharray:2,2;" x1="570.3149" x2="922.3223" y1="199.8281" y2="199.8281"/><text fill="#000000" font-family="sans-serif" font-size="13" lengthAdjust="spacing" textLength="132.7104" x="582.3149" y="194.7622">aggregatedMetrics()</text></g><g class="message" data-entity-1="part3" data-entity-2="part2" id="msg5"><polygon fill="#181818" points="289.7886,224.9609,279.7886,228.9609,289.7886,232.9609,285.7886,228.9609" style="stroke:#181818;stroke-width:1;"/><line style="stroke:#181818;stroke-width:1;stroke-dasharray:2,2;" x1="283.7886" x2="564.3149" y1="228.9609" y2="228.9609"/><text fill="#000000" font-family="sans-serif" font-size="13" lengthAdjust="spacing" textLength="262.5264" x="295.7886" y="223.895">displayCharts(sales, inventory, delivery)</text></g><g class="message" data-entity-1="part1" data-entity-2="part2" id="msg6"><polygon fill="#181818" points="266.7886,254.0938,276.7886,258.0938,266.7886,262.0938,270.7886,258.0938" style="stroke:#181818;stroke-width:1;"/><line style="stroke:#181818;stroke-width:1;" x1="30.856" x2="272.7886" y1="258.0938" y2="258.0938"/><text fill="#000000" font-family="sans-serif" font-size="13" lengthAdjust="spacing" textLength="223.9326" x="37.856" y="253.0278">applyFilters(dateRange, branchID)</text></g><g class="message" data-entity-1="part2" data-entity-2="part3" id="msg7"><polygon fill="#181818" points="553.3149,283.2266,563.3149,287.2266,553.3149,291.2266,557.3149,287.2266" style="stroke:#181818;stroke-width:1;"/><line style="stroke:#181818;stroke-width:1;" x1="278.7886" x2="559.3149" y1="287.2266" y2="287.2266"/><text fill="#000000" font-family="sans-serif" font-size="13" lengthAdjust="spacing" textLength="173.9893" x="285.7886" y="282.1606">refetchFilteredData(filters)</text></g><g class="message" data-entity-1="part3" data-entity-2="part4" id="msg8"><polygon fill="#181818" points="911.3223,312.3594,921.3223,316.3594,911.3223,320.3594,915.3223,316.3594" style="stroke:#181818;stroke-width:1;"/><line style="stroke:#181818;stroke-width:1;" x1="565.3149" x2="917.3223" y1="316.3594" y2="316.3594"/><text fill="#000000" font-family="sans-serif" font-size="13" lengthAdjust="spacing" textLength="181.2637" x="572.3149" y="311.2935">queryFilteredMetrics(filters)</text></g><g class="message" data-entity-1="part4" data-entity-2="part3" id="msg9"><polygon fill="#181818" points="576.3149,341.4922,566.3149,345.4922,576.3149,349.4922,572.3149,345.4922" style="stroke:#181818;stroke-width:1;"/><line style="stroke:#181818;stroke-width:1;stroke-dasharray:2,2;" x1="570.3149" x2="922.3223" y1="345.4922" y2="345.4922"/><text fill="#000000" font-family="sans-serif" font-size="13" lengthAdjust="spacing" textLength="87.6738" x="582.3149" y="340.4263">filteredData()</text></g><g class="message" data-entity-1="part3" data-entity-2="part2" id="msg10"><polygon fill="#181818" points="289.7886,370.625,279.7886,374.625,289.7886,378.625,285.7886,374.625" style="stroke:#181818;stroke-width:1;"/><line style="stroke:#181818;stroke-width:1;stroke-dasharray:2,2;" x1="283.7886" x2="564.3149" y1="374.625" y2="374.625"/><text fill="#000000" font-family="sans-serif" font-size="13" lengthAdjust="spacing" textLength="204.2358" x="295.7886" y="369.5591">updateDashboard(filteredData)</text></g><g class="message" data-entity-1="part2" data-entity-2="part1" id="msg11"><polygon fill="#181818" points="41.856,399.7578,31.856,403.7578,41.856,407.7578,37.856,403.7578" style="stroke:#181818;stroke-width:1;"/><line style="stroke:#181818;stroke-width:1;stroke-dasharray:2,2;" x1="35.856" x2="277.7886" y1="403.7578" y2="403.7578"/><text fill="#000000" font-family="sans-serif" font-size="13" lengthAdjust="spacing" textLength="174.624" x="47.856" y="398.6919">updatedChartsAndTables()</text></g><?plantuml-src VL5BJiCm4Dtx55PMYPHUW0LIGeI44482BZ299uabrp6sM-HJS1rknHMOnCs7bhApFUypxnaQFrYUF7zej0a7nwSJCs2zRAG1xNdo_VKPdta5hgy7i6A2BhTBUFd8NuFpk9-0ySW4UAZ1OOHKfrkKAXcB5hlRLPVVyC6WBZIeGFfk6QGPOokAAD61y1RV3-XyQK4t_MX1qDDmL2u90brdiGEFXL8Rd0E5BkTI7r5J9o7d0fKyeWqP8zvkwx98Y2VqbZRRk9m54D8P1U6kfuhSloP_5m36g70lbKVhKceGNq1tcFDwsloXoguMqQ9l-iX4CKLieyn58rIP3JDoJhI0pyEtMychkGzcN7RziIthz-yHCIQVIIAMLMZn1ZNrbMO_?></g></svg>