<?plantuml 1.2026.2?><svg xmlns="http://www.w3.org/2000/svg" xmlns:xlink="http://www.w3.org/1999/xlink" contentStyleType="text/css" data-diagram-type="SEQUENCE" height="502px" preserveAspectRatio="none" style="width:673px;height:502px;background:#FFFFFF;" version="1.1" viewBox="0 0 673 502" width="673px" zoomAndPan="magnify"><defs/><g><g class="participant-lifeline" data-entity-uid="part1" data-qualified-name="Cashier" id="part1-lifeline"><g><title>Cashier</title><rect fill="#000000" fill-opacity="0.00000" height="340.4609" width="8" x="30.3901" y="81.2969"/><line style="stroke:#181818;stroke-width:0.5;stroke-dasharray:5,5;" x1="34" x2="34" y1="81.2969" y2="421.7578"/></g></g><g class="participant-lifeline" data-entity-uid="part2" data-qualified-name="POS" id="part2-lifeline"><g><title>POS System</title><rect fill="#000000" fill-opacity="0.00000" height="340.4609" width="8" x="336.2007" y="81.2969"/><line style="stroke:#181818;stroke-width:0.5;stroke-dasharray:5,5;" x1="339.6982" x2="339.6982" y1="81.2969" y2="421.7578"/></g></g><g class="participant-lifeline" data-entity-uid="part3" data-qualified-name="DB" id="part3-lifeline"><g><title>Database</title><rect fill="#000000" fill-opacity="0.00000" height="340.4609" width="8" x="517.9082" y="81.2969"/><line style="stroke:#181818;stroke-width:0.5;stroke-dasharray:5,5;" x1="521.5078" x2="521.5078" y1="81.2969" y2="421.7578"/></g></g><g class="participant-lifeline" data-entity-uid="part4" data-qualified-name="KDS" id="part4-lifeline"><g><title>KDS Display</title><rect fill="#000000" fill-opacity="0.00000" height="340.4609" width="8" x="613.7598" y="81.2969"/><line style="stroke:#181818;stroke-width:0.5;stroke-dasharray:5,5;" x1="617.3086" x2="617.3086" y1="81.2969" y2="421.7578"/></g></g><g class="participant participant-head" data-entity-uid="part1" data-qualified-name="Cashier" id="part1-head"><text fill="#000000" font-family="sans-serif" font-size="14" lengthAdjust="spacing" textLength="52.7803" x="5" y="77.9951">Cashier</text><ellipse cx="34.3901" cy="13.5" fill="#E2E2F0" rx="8" ry="8" style="stroke:#181818;stroke-width:0.5;"/><path d="M34.3901,21.5 L34.3901,48.5 M21.3901,29.5 L47.3901,29.5 M34.3901,48.5 L21.3901,63.5 M34.3901,48.5 L47.3901,63.5" fill="none" style="stroke:#181818;stroke-width:0.5;"/></g><g class="participant participant-tail" data-entity-uid="part1" data-qualified-name="Cashier" id="part1-tail"><text fill="#000000" font-family="sans-serif" font-size="14" lengthAdjust="spacing" textLength="52.7803" x="5" y="433.7529">Cashier</text><ellipse cx="34.3901" cy="445.5547" fill="#E2E2F0" rx="8" ry="8" style="stroke:#181818;stroke-width:0.5;"/><path d="M34.3901,453.5547 L34.3901,480.5547 M21.3901,461.5547 L47.3901,461.5547 M34.3901,480.5547 L21.3901,495.5547 M34.3901,480.5547 L47.3901,495.5547" fill="none" style="stroke:#181818;stroke-width:0.5;"/></g><g class="participant participant-head" data-entity-uid="part2" data-qualified-name="POS" id="part2-head"><rect fill="#E2E2F0" height="30.2969" rx="2.5" ry="2.5" style="stroke:#181818;stroke-width:0.5;" width="99.0049" x="290.6982" y="50"/><text fill="#000000" font-family="sans-serif" font-size="14" lengthAdjust="spacing" textLength="85.0049" x="297.6982" y="69.9951">POS System</text></g><g class="participant participant-tail" data-entity-uid="part2" data-qualified-name="POS" id="part2-tail"><rect fill="#E2E2F0" height="30.2969" rx="2.5" ry="2.5" style="stroke:#181818;stroke-width:0.5;" width="99.0049" x="290.6982" y="420.7578"/><text fill="#000000" font-family="sans-serif" font-size="14" lengthAdjust="spacing" textLength="85.0049" x="297.6982" y="440.7529">POS System</text></g><g class="participant participant-head" data-entity-uid="part3" data-qualified-name="DB" id="part3-head"><text fill="#000000" font-family="sans-serif" font-size="14" lengthAdjust="spacing" textLength="66.8008" x="485.5078" y="77.9951">Database</text><path d="M503.9082,29 C503.9082,19 521.9082,19 521.9082,19 C521.9082,19 539.9082,19 539.9082,29 L539.9082,55 C539.9082,65 521.9082,65 521.9082,65 C521.9082,65 503.9082,65 503.9082,55 L503.9082,29" fill="#E2E2F0" style="stroke:#181818;stroke-width:0.5;"/><path d="M503.9082,29 C503.9082,39 521.9082,39 521.9082,39 C521.9082,39 539.9082,39 539.9082,29" fill="none" style="stroke:#181818;stroke-width:0.5;"/></g><g class="participant participant-tail" data-entity-uid="part3" data-qualified-name="DB" id="part3-tail"><text fill="#000000" font-family="sans-serif" font-size="14" lengthAdjust="spacing" textLength="66.8008" x="485.5078" y="433.7529">Database</text><path d="M503.9082,447.0547 C503.9082,437.0547 521.9082,437.0547 521.9082,437.0547 C521.9082,437.0547 539.9082,437.0547 539.9082,447.0547 L539.9082,473.0547 C539.9082,483.0547 521.9082,483.0547 521.9082,483.0547 C521.9082,483.0547 503.9082,483.0547 503.9082,473.0547 L503.9082,447.0547" fill="#E2E2F0" style="stroke:#181818;stroke-width:0.5;"/><path d="M503.9082,447.0547 C503.9082,457.0547 521.9082,457.0547 521.9082,457.0547 C521.9082,457.0547 539.9082,457.0547 539.9082,447.0547" fill="none" style="stroke:#181818;stroke-width:0.5;"/></g><g class="participant participant-head" data-entity-uid="part4" data-qualified-name="KDS" id="part4-head"><rect fill="#E2E2F0" height="30.2969" rx="2.5" ry="2.5" style="stroke:#181818;stroke-width:0.5;" width="98.9023" x="568.3086" y="50"/><text fill="#000000" font-family="sans-serif" font-size="14" lengthAdjust="spacing" textLength="84.9023" x="575.3086" y="69.9951">KDS Display</text></g><g class="participant participant-tail" data-entity-uid="part4" data-qualified-name="KDS" id="part4-tail"><rect fill="#E2E2F0" height="30.2969" rx="2.5" ry="2.5" style="stroke:#181818;stroke-width:0.5;" width="98.9023" x="568.3086" y="420.7578"/><text fill="#000000" font-family="sans-serif" font-size="14" lengthAdjust="spacing" textLength="84.9023" x="575.3086" y="440.7529">KDS Display</text></g><g class="message" data-entity-1="part1" data-entity-2="part2" id="msg1"><polygon fill="#181818" points="328.2007,108.4297,338.2007,112.4297,328.2007,116.4297,332.2007,112.4297" style="stroke:#181818;stroke-width:1;"/><line style="stroke:#181818;stroke-width:1;" x1="34.3901" x2="334.2007" y1="112.4297" y2="112.4297"/><text fill="#000000" font-family="sans-serif" font-size="13" lengthAdjust="spacing" textLength="120.9038" x="41.3901" y="107.3638">initiateNewOrder()</text></g><g class="message" data-entity-1="part1" data-entity-2="part2" id="msg2"><polygon fill="#181818" points="328.2007,137.5625,338.2007,141.5625,328.2007,145.5625,332.2007,141.5625" style="stroke:#181818;stroke-width:1;"/><line style="stroke:#181818;stroke-width:1;" x1="34.3901" x2="334.2007" y1="141.5625" y2="141.5625"/><text fill="#000000" font-family="sans-serif" font-size="13" lengthAdjust="spacing" textLength="281.8105" x="41.3901" y="136.4966">selectOrderType(dineIn/takeaway/delivery)</text></g><g class="message" data-entity-1="part1" data-entity-2="part2" id="msg3"><polygon fill="#181818" points="328.2007,166.6953,338.2007,170.6953,328.2007,174.6953,332.2007,170.6953" style="stroke:#181818;stroke-width:1;"/><line style="stroke:#181818;stroke-width:1;" x1="34.3901" x2="334.2007" y1="170.6953" y2="170.6953"/><text fill="#000000" font-family="sans-serif" font-size="13" lengthAdjust="spacing" textLength="142.8159" x="41.3901" y="165.6294">addMenuItems(items)</text></g><g class="message" data-entity-1="part2" data-entity-2="part3" id="msg4"><polygon fill="#181818" points="509.9082,195.8281,519.9082,199.8281,509.9082,203.8281,513.9082,199.8281" style="stroke:#181818;stroke-width:1;"/><line style="stroke:#181818;stroke-width:1;" x1="340.2007" x2="515.9082" y1="199.8281" y2="199.8281"/><text fill="#000000" font-family="sans-serif" font-size="13" lengthAdjust="spacing" textLength="146.4404" x="347.2007" y="194.7622">checkInventory(items)</text></g><g class="message" data-entity-1="part3" data-entity-2="part2" id="msg5"><polygon fill="#181818" points="351.2007,224.9609,341.2007,228.9609,351.2007,232.9609,347.2007,228.9609" style="stroke:#181818;stroke-width:1;"/><line style="stroke:#181818;stroke-width:1;stroke-dasharray:2,2;" x1="345.2007" x2="520.9082" y1="228.9609" y2="228.9609"/><text fill="#000000" font-family="sans-serif" font-size="13" lengthAdjust="spacing" textLength="104.2476" x="357.2007" y="223.895">stockAvailable()</text></g><g class="message" data-entity-1="part2" data-entity-2="part1" id="msg6"><polygon fill="#181818" points="45.3901,254.0938,35.3901,258.0938,45.3901,262.0938,41.3901,258.0938" style="stroke:#181818;stroke-width:1;"/><line style="stroke:#181818;stroke-width:1;stroke-dasharray:2,2;" x1="39.3901" x2="339.2007" y1="258.0938" y2="258.0938"/><text fill="#000000" font-family="sans-serif" font-size="13" lengthAdjust="spacing" textLength="126.0454" x="51.3901" y="253.0278">displayOrderTotal()</text></g><g class="message" data-entity-1="part1" data-entity-2="part2" id="msg7"><polygon fill="#181818" points="328.2007,283.2266,338.2007,287.2266,328.2007,291.2266,332.2007,287.2266" style="stroke:#181818;stroke-width:1;"/><line style="stroke:#181818;stroke-width:1;" x1="34.3901" x2="334.2007" y1="287.2266" y2="287.2266"/><text fill="#000000" font-family="sans-serif" font-size="13" lengthAdjust="spacing" textLength="179.7339" x="41.3901" y="282.1606">confirmOrderAndPayment()</text></g><g class="message" data-entity-1="part2" data-entity-2="part3" id="msg8"><polygon fill="#181818" points="509.9082,312.3594,519.9082,316.3594,509.9082,320.3594,513.9082,316.3594" style="stroke:#181818;stroke-width:1;"/><line style="stroke:#181818;stroke-width:1;" x1="340.2007" x2="515.9082" y1="316.3594" y2="316.3594"/><text fill="#000000" font-family="sans-serif" font-size="13" lengthAdjust="spacing" textLength="157.7075" x="347.2007" y="311.2935">saveOrder(orderDetails)</text></g><g class="message" data-entity-1="part3" data-entity-2="part2" id="msg9"><polygon fill="#181818" points="351.2007,341.4922,341.2007,345.4922,351.2007,349.4922,347.2007,345.4922" style="stroke:#181818;stroke-width:1;"/><line style="stroke:#181818;stroke-width:1;stroke-dasharray:2,2;" x1="345.2007" x2="520.9082" y1="345.4922" y2="345.4922"/><text fill="#000000" font-family="sans-serif" font-size="13" lengthAdjust="spacing" textLength="133.9355" x="357.2007" y="340.4263">orderSaved(orderID)</text></g><g class="message" data-entity-1="part2" data-entity-2="part4" id="msg10"><polygon fill="#181818" points="605.7598,370.625,615.7598,374.625,605.7598,378.625,609.7598,374.625" style="stroke:#181818;stroke-width:1;"/><line style="stroke:#181818;stroke-width:1;" x1="340.2007" x2="611.7598" y1="374.625" y2="374.625"/><text fill="#000000" font-family="sans-serif" font-size="13" lengthAdjust="spacing" textLength="189.3188" x="347.2007" y="369.5591">notifyKitchen(orderID, items)</text></g><g class="message" data-entity-1="part2" data-entity-2="part1" id="msg11"><polygon fill="#181818" points="45.3901,399.7578,35.3901,403.7578,45.3901,407.7578,41.3901,403.7578" style="stroke:#181818;stroke-width:1;"/><line style="stroke:#181818;stroke-width:1;stroke-dasharray:2,2;" x1="39.3901" x2="339.2007" y1="403.7578" y2="403.7578"/><text fill="#000000" font-family="sans-serif" font-size="13" lengthAdjust="spacing" textLength="161.4907" x="51.3901" y="398.6919">orderConfirmed(orderID)</text></g><?plantuml-src RP31Ri8m38RlUGghfo8DSUSm2SYbGWoaxWLCOeJLDgqIhoXllxIbOi0kLgB_i__VHYEjXns6AvDNgaClRBX39v2TZYMKCGWr6M20z5KM1SyO239zVusItZvtxdK9caDNOnprz5VgRWBBps4Kh84T2wFG5zsEtfBF5-zCe9gCZF9tx2YtxAXmAy6Ay8PnPQdcddpyfnMjFP3xALB-aFDG5qeDKYBqDW7cIgOgN4yktI3EI9AM3tjfJRNfaMiyrvJF0v8-swt1JejE6Ll1Ui3UqfZMNTWt8xLnzeInIRxvIwI0FKstQ8UgIPBrQwXHAXDf9whGZod3vTVWMk5BtBEa5TqCVS3J4Pvs697T5F7Fs5y0?></g></svg>