<?plantuml 1.2026.2?><svg xmlns="http://www.w3.org/2000/svg" xmlns:xlink="http://www.w3.org/1999/xlink" contentStyleType="text/css" data-diagram-type="SEQUENCE" height="502px" preserveAspectRatio="none" style="width:833px;height:502px;background:#FFFFFF;" version="1.1" viewBox="0 0 833 502" width="833px" zoomAndPan="magnify"><defs/><g><g class="participant-lifeline" data-entity-uid="part1" data-qualified-name="KitchenStaff" id="part1-lifeline"><g><title>Kitchen Staff</title><rect fill="#000000" fill-opacity="0.00000" height="340.4609" width="8" x="48.9395" y="81.2969"/><line style="stroke:#181818;stroke-width:0.5;stroke-dasharray:5,5;" x1="52" x2="52" y1="81.2969" y2="421.7578"/></g></g><g class="participant-lifeline" data-entity-uid="part2" data-qualified-name="KDS" id="part2-lifeline"><g><title>KDS Display</title><rect fill="#000000" fill-opacity="0.00000" height="340.4609" width="8" x="275.2075" y="81.2969"/><line style="stroke:#181818;stroke-width:0.5;stroke-dasharray:5,5;" x1="278.7563" x2="278.7563" y1="81.2969" y2="421.7578"/></g></g><g class="participant-lifeline" data-entity-uid="part3" data-qualified-name="System" id="part3-lifeline"><g><title> BK System</title><rect fill="#000000" fill-opacity="0.00000" height="340.4609" width="8" x="561.0864" y="81.2969"/><line style="stroke:#181818;stroke-width:0.5;stroke-dasharray:5,5;" x1="564.1406" x2="564.1406" y1="81.2969" y2="421.7578"/></g></g><g class="participant-lifeline" data-entity-uid="part4" data-qualified-name="DB" id="part4-lifeline"><g><title>Database</title><rect fill="#000000" fill-opacity="0.00000" height="340.4609" width="8" x="792.3818" y="81.2969"/><line style="stroke:#181818;stroke-width:0.5;stroke-dasharray:5,5;" x1="795.9814" x2="795.9814" y1="81.2969" y2="421.7578"/></g></g><g class="participant participant-head" data-entity-uid="part1" data-qualified-name="KitchenStaff" id="part1-head"><text fill="#000000" font-family="sans-serif" font-size="14" lengthAdjust="spacing" textLength="89.8789" x="5" y="77.9951">Kitchen Staff</text><ellipse cx="52.9395" cy="13.5" fill="#E2E2F0" rx="8" ry="8" style="stroke:#181818;stroke-width:0.5;"/><path d="M52.9395,21.5 L52.9395,48.5 M39.9395,29.5 L65.9395,29.5 M52.9395,48.5 L39.9395,63.5 M52.9395,48.5 L65.9395,63.5" fill="none" style="stroke:#181818;stroke-width:0.5;"/></g><g class="participant participant-tail" data-entity-uid="part1" data-qualified-name="KitchenStaff" id="part1-tail"><text fill="#000000" font-family="sans-serif" font-size="14" lengthAdjust="spacing" textLength="89.8789" x="5" y="433.7529">Kitchen Staff</text><ellipse cx="52.9395" cy="445.5547" fill="#E2E2F0" rx="8" ry="8" style="stroke:#181818;stroke-width:0.5;"/><path d="M52.9395,453.5547 L52.9395,480.5547 M39.9395,461.5547 L65.9395,461.5547 M52.9395,480.5547 L39.9395,495.5547 M52.9395,480.5547 L65.9395,495.5547" fill="none" style="stroke:#181818;stroke-width:0.5;"/></g><g class="participant participant-head" data-entity-uid="part2" data-qualified-name="KDS" id="part2-head"><rect fill="#E2E2F0" height="30.2969" rx="2.5" ry="2.5" style="stroke:#181818;stroke-width:0.5;" width="98.9023" x="229.7563" y="50"/><text fill="#000000" font-family="sans-serif" font-size="14" lengthAdjust="spacing" textLength="84.9023" x="236.7563" y="69.9951">KDS Display</text></g><g class="participant participant-tail" data-entity-uid="part2" data-qualified-name="KDS" id="part2-tail"><rect fill="#E2E2F0" height="30.2969" rx="2.5" ry="2.5" style="stroke:#181818;stroke-width:0.5;" width="98.9023" x="229.7563" y="420.7578"/><text fill="#000000" font-family="sans-serif" font-size="14" lengthAdjust="spacing" textLength="84.9023" x="236.7563" y="440.7529">KDS Display</text></g><g class="participant participant-head" data-entity-uid="part3" data-qualified-name="System" id="part3-head"><rect fill="#E2E2F0" height="30.2969" rx="2.5" ry="2.5" style="stroke:#181818;stroke-width:0.5;" width="93.8916" x="518.1406" y="50"/><text fill="#000000" font-family="sans-serif" font-size="14" lengthAdjust="spacing" textLength="75.4414" x="529.5908" y="69.9951">BK System</text></g><g class="participant participant-tail" data-entity-uid="part3" data-qualified-name="System" id="part3-tail"><rect fill="#E2E2F0" height="30.2969" rx="2.5" ry="2.5" style="stroke:#181818;stroke-width:0.5;" width="93.8916" x="518.1406" y="420.7578"/><text fill="#000000" font-family="sans-serif" font-size="14" lengthAdjust="spacing" textLength="75.4414" x="529.5908" y="440.7529">BK System</text></g><g class="participant participant-head" data-entity-uid="part4" data-qualified-name="DB" id="part4-head"><text fill="#000000" font-family="sans-serif" font-size="14" lengthAdjust="spacing" textLength="66.8008" x="759.9814" y="77.9951">Database</text><path d="M778.3818,29 C778.3818,19 796.3818,19 796.3818,19 C796.3818,19 814.3818,19 814.3818,29 L814.3818,55 C814.3818,65 796.3818,65 796.3818,65 C796.3818,65 778.3818,65 778.3818,55 L778.3818,29" fill="#E2E2F0" style="stroke:#181818;stroke-width:0.5;"/><path d="M778.3818,29 C778.3818,39 796.3818,39 796.3818,39 C796.3818,39 814.3818,39 814.3818,29" fill="none" style="stroke:#181818;stroke-width:0.5;"/></g><g class="participant participant-tail" data-entity-uid="part4" data-qualified-name="DB" id="part4-tail"><text fill="#000000" font-family="sans-serif" font-size="14" lengthAdjust="spacing" textLength="66.8008" x="759.9814" y="433.7529">Database</text><path d="M778.3818,447.0547 C778.3818,437.0547 796.3818,437.0547 796.3818,437.0547 C796.3818,437.0547 814.3818,437.0547 814.3818,447.0547 L814.3818,473.0547 C814.3818,483.0547 796.3818,483.0547 796.3818,483.0547 C796.3818,483.0547 778.3818,483.0547 778.3818,473.0547 L778.3818,447.0547" fill="#E2E2F0" style="stroke:#181818;stroke-width:0.5;"/><path d="M778.3818,447.0547 C778.3818,457.0547 796.3818,457.0547 796.3818,457.0547 C796.3818,457.0547 814.3818,457.0547 814.3818,447.0547" fill="none" style="stroke:#181818;stroke-width:0.5;"/></g><g class="message" data-entity-1="part1" data-entity-2="part2" id="msg1"><polygon fill="#181818" points="267.2075,108.4297,277.2075,112.4297,267.2075,116.4297,271.2075,112.4297" style="stroke:#181818;stroke-width:1;"/><line style="stroke:#181818;stroke-width:1;" x1="52.9395" x2="273.2075" y1="112.4297" y2="112.4297"/><text fill="#000000" font-family="sans-serif" font-size="13" lengthAdjust="spacing" textLength="124.4648" x="59.9395" y="107.3638">viewActiveOrders()</text></g><g class="message" data-entity-1="part2" data-entity-2="part3" id="msg2"><polygon fill="#181818" points="553.0864,137.5625,563.0864,141.5625,553.0864,145.5625,557.0864,141.5625" style="stroke:#181818;stroke-width:1;"/><line style="stroke:#181818;stroke-width:1;" x1="279.2075" x2="559.0864" y1="141.5625" y2="141.5625"/><text fill="#000000" font-family="sans-serif" font-size="13" lengthAdjust="spacing" textLength="127.5879" x="286.2075" y="136.4966">fetchActiveOrders()</text></g><g class="message" data-entity-1="part3" data-entity-2="part4" id="msg3"><polygon fill="#181818" points="784.3818,166.6953,794.3818,170.6953,784.3818,174.6953,788.3818,170.6953" style="stroke:#181818;stroke-width:1;"/><line style="stroke:#181818;stroke-width:1;" x1="565.0864" x2="790.3818" y1="170.6953" y2="170.6953"/><text fill="#000000" font-family="sans-serif" font-size="13" lengthAdjust="spacing" textLength="111.3696" x="572.0864" y="165.6294">getOrderQueue()</text></g><g class="message" data-entity-1="part4" data-entity-2="part3" id="msg4"><polygon fill="#181818" points="576.0864,195.8281,566.0864,199.8281,576.0864,203.8281,572.0864,199.8281" style="stroke:#181818;stroke-width:1;"/><line style="stroke:#181818;stroke-width:1;stroke-dasharray:2,2;" x1="570.0864" x2="795.3818" y1="199.8281" y2="199.8281"/><text fill="#000000" font-family="sans-serif" font-size="13" lengthAdjust="spacing" textLength="67.7612" x="582.0864" y="194.7622">orderList()</text></g><g class="message" data-entity-1="part3" data-entity-2="part2" id="msg5"><polygon fill="#181818" points="290.2075,224.9609,280.2075,228.9609,290.2075,232.9609,286.2075,228.9609" style="stroke:#181818;stroke-width:1;"/><line style="stroke:#181818;stroke-width:1;stroke-dasharray:2,2;" x1="284.2075" x2="564.0864" y1="228.9609" y2="228.9609"/><text fill="#000000" font-family="sans-serif" font-size="13" lengthAdjust="spacing" textLength="100.2485" x="296.2075" y="223.895">displayOrders()</text></g><g class="message" data-entity-1="part1" data-entity-2="part2" id="msg6"><polygon fill="#181818" points="267.2075,254.0938,277.2075,258.0938,267.2075,262.0938,271.2075,258.0938" style="stroke:#181818;stroke-width:1;"/><line style="stroke:#181818;stroke-width:1;" x1="52.9395" x2="273.2075" y1="258.0938" y2="258.0938"/><text fill="#000000" font-family="sans-serif" font-size="13" lengthAdjust="spacing" textLength="134.6782" x="59.9395" y="253.0278">selectOrder(orderID)</text></g><g class="message" data-entity-1="part1" data-entity-2="part2" id="msg7"><polygon fill="#181818" points="267.2075,283.2266,277.2075,287.2266,267.2075,291.2266,271.2075,287.2266" style="stroke:#181818;stroke-width:1;"/><line style="stroke:#181818;stroke-width:1;" x1="52.9395" x2="273.2075" y1="287.2266" y2="287.2266"/><text fill="#000000" font-family="sans-serif" font-size="13" lengthAdjust="spacing" textLength="202.2681" x="59.9395" y="282.1606">updateStatus(preparing/ready)</text></g><g class="message" data-entity-1="part2" data-entity-2="part3" id="msg8"><polygon fill="#181818" points="553.0864,312.3594,563.0864,316.3594,553.0864,320.3594,557.0864,316.3594" style="stroke:#181818;stroke-width:1;"/><line style="stroke:#181818;stroke-width:1;" x1="279.2075" x2="559.0864" y1="316.3594" y2="316.3594"/><text fill="#000000" font-family="sans-serif" font-size="13" lengthAdjust="spacing" textLength="261.8789" x="286.2075" y="311.2935">changeOrderStatus(orderID, newStatus)</text></g><g class="message" data-entity-1="part3" data-entity-2="part4" id="msg9"><polygon fill="#181818" points="784.3818,341.4922,794.3818,345.4922,784.3818,349.4922,788.3818,345.4922" style="stroke:#181818;stroke-width:1;"/><line style="stroke:#181818;stroke-width:1;" x1="565.0864" x2="790.3818" y1="345.4922" y2="345.4922"/><text fill="#000000" font-family="sans-serif" font-size="13" lengthAdjust="spacing" textLength="207.2954" x="572.0864" y="340.4263">saveStatus(orderID, newStatus)</text></g><g class="message" data-entity-1="part4" data-entity-2="part3" id="msg10"><polygon fill="#181818" points="576.0864,370.625,566.0864,374.625,576.0864,378.625,572.0864,374.625" style="stroke:#181818;stroke-width:1;"/><line style="stroke:#181818;stroke-width:1;stroke-dasharray:2,2;" x1="570.0864" x2="795.3818" y1="374.625" y2="374.625"/><text fill="#000000" font-family="sans-serif" font-size="13" lengthAdjust="spacing" textLength="105.4219" x="582.0864" y="369.5591">statusUpdated()</text></g><g class="message" data-entity-1="part3" data-entity-2="part2" id="msg11"><polygon fill="#181818" points="290.2075,399.7578,280.2075,403.7578,290.2075,407.7578,286.2075,403.7578" style="stroke:#181818;stroke-width:1;"/><line style="stroke:#181818;stroke-width:1;stroke-dasharray:2,2;" x1="284.2075" x2="564.0864" y1="403.7578" y2="403.7578"/><text fill="#000000" font-family="sans-serif" font-size="13" lengthAdjust="spacing" textLength="229.6328" x="296.2075" y="398.6919">refreshDisplay(orderID, newStatus)</text></g><?plantuml-src VP71QiCm38RlUGgHKmehk_SmMF1bj31As0DeZf8OkZHOIahUVefjHjPckud___HRaj7ArKD-T68xwg4IR9eSa24fGSYo0RquwmRiHM5JWN4yN72EgAb-0r0UePfPw2luiSng5Fn49iXDge9hoYnRFmRxboKH3Z0vkhrQSHEz-vey5pibrL4WHYhJa7RUGSbKp9IAj2J1EeyqajegxjSHryKyEPPLwyyCTTnpDS3cg4mNil6P8kIzcTqVw3Ze8KX56RaOFEdbNDy-Uy9wtbZGTjYtSRVKa_AVeATRb1vMPfpe7_h-0XpqZp1OlIpvS0PFZIVkqgzlXNu3?></g></svg>