<?plantuml 1.2026.2?><svg xmlns="http://www.w3.org/2000/svg" xmlns:xlink="http://www.w3.org/1999/xlink" contentStyleType="text/css" data-diagram-type="SEQUENCE" height="502px" preserveAspectRatio="none" style="width:545px;height:502px;background:#FFFFFF;" version="1.1" viewBox="0 0 545 502" width="545px" zoomAndPan="magnify"><defs/><g><g class="participant-lifeline" data-entity-uid="part1" data-qualified-name="System" id="part1-lifeline"><g><title> BK System</title><rect fill="#000000" fill-opacity="0.00000" height="340.4609" width="8" x="47.9458" y="81.2969"/><line style="stroke:#181818;stroke-width:0.5;stroke-dasharray:5,5;" x1="51" x2="51" y1="81.2969" y2="421.7578"/></g></g><g class="participant-lifeline" data-entity-uid="part2" data-qualified-name="DB" id="part2-lifeline"><g><title>. Database</title><rect fill="#000000" fill-opacity="0.00000" height="340.4609" width="8" x="296.6592" y="81.2969"/><line style="stroke:#181818;stroke-width:0.5;stroke-dasharray:5,5;" x1="300.0337" x2="300.0337" y1="81.2969" y2="421.7578"/></g></g><g class="participant-lifeline" data-entity-uid="part3" data-qualified-name="Manager" id="part3-lifeline"><g><title>Branch Manager</title><rect fill="#000000" fill-opacity="0.00000" height="340.4609" width="8" x="405.8843" y="81.2969"/><line style="stroke:#181818;stroke-width:0.5;stroke-dasharray:5,5;" x1="409.2847" x2="409.2847" y1="81.2969" y2="421.7578"/></g></g><g class="participant-lifeline" data-entity-uid="part4" data-qualified-name="Supplier" id="part4-lifeline"><g><title>Supplier</title><rect fill="#000000" fill-opacity="0.00000" height="340.4609" width="8" x="508.3247" y="81.2969"/><line style="stroke:#181818;stroke-width:0.5;stroke-dasharray:5,5;" x1="511.4839" x2="511.4839" y1="81.2969" y2="421.7578"/></g></g><g class="participant participant-head" data-entity-uid="part1" data-qualified-name="System" id="part1-head"><rect fill="#E2E2F0" height="30.2969" rx="2.5" ry="2.5" style="stroke:#181818;stroke-width:0.5;" width="93.8916" x="5" y="50"/><text fill="#000000" font-family="sans-serif" font-size="14" lengthAdjust="spacing" textLength="75.4414" x="16.4502" y="69.9951">BK System</text></g><g class="participant participant-tail" data-entity-uid="part1" data-qualified-name="System" id="part1-tail"><rect fill="#E2E2F0" height="30.2969" rx="2.5" ry="2.5" style="stroke:#181818;stroke-width:0.5;" width="93.8916" x="5" y="420.7578"/><text fill="#000000" font-family="sans-serif" font-size="14" lengthAdjust="spacing" textLength="75.4414" x="16.4502" y="440.7529">BK System</text></g><g class="participant participant-head" data-entity-uid="part2" data-qualified-name="DB" id="part2-head"><text fill="#000000" font-family="sans-serif" font-size="14" lengthAdjust="spacing" textLength="71.251" x="262.0337" y="77.9951">&#65039; Database</text><path d="M282.6592,29 C282.6592,19 300.6592,19 300.6592,19 C300.6592,19 318.6592,19 318.6592,29 L318.6592,55 C318.6592,65 300.6592,65 300.6592,65 C300.6592,65 282.6592,65 282.6592,55 L282.6592,29" fill="#E2E2F0" style="stroke:#181818;stroke-width:0.5;"/><path d="M282.6592,29 C282.6592,39 300.6592,39 300.6592,39 C300.6592,39 318.6592,39 318.6592,29" fill="none" style="stroke:#181818;stroke-width:0.5;"/></g><g class="participant participant-tail" data-entity-uid="part2" data-qualified-name="DB" id="part2-tail"><text fill="#000000" font-family="sans-serif" font-size="14" lengthAdjust="spacing" textLength="71.251" x="262.0337" y="433.7529">&#65039; Database</text><path d="M282.6592,447.0547 C282.6592,437.0547 300.6592,437.0547 300.6592,437.0547 C300.6592,437.0547 318.6592,437.0547 318.6592,447.0547 L318.6592,473.0547 C318.6592,483.0547 300.6592,483.0547 300.6592,483.0547 C300.6592,483.0547 282.6592,483.0547 282.6592,473.0547 L282.6592,447.0547" fill="#E2E2F0" style="stroke:#181818;stroke-width:0.5;"/><path d="M282.6592,447.0547 C282.6592,457.0547 300.6592,457.0547 300.6592,457.0547 C300.6592,457.0547 318.6592,457.0547 318.6592,447.0547" fill="none" style="stroke:#181818;stroke-width:0.5;"/></g><g class="participant participant-head" data-entity-uid="part3" data-qualified-name="Manager" id="part3-head"><text fill="#000000" font-family="sans-serif" font-size="14" lengthAdjust="spacing" textLength="115.1992" x="349.2847" y="77.9951">Branch Manager</text><ellipse cx="409.8843" cy="13.5" fill="#E2E2F0" rx="8" ry="8" style="stroke:#181818;stroke-width:0.5;"/><path d="M409.8843,21.5 L409.8843,48.5 M396.8843,29.5 L422.8843,29.5 M409.8843,48.5 L396.8843,63.5 M409.8843,48.5 L422.8843,63.5" fill="none" style="stroke:#181818;stroke-width:0.5;"/></g><g class="participant participant-tail" data-entity-uid="part3" data-qualified-name="Manager" id="part3-tail"><text fill="#000000" font-family="sans-serif" font-size="14" lengthAdjust="spacing" textLength="115.1992" x="349.2847" y="433.7529">Branch Manager</text><ellipse cx="409.8843" cy="445.5547" fill="#E2E2F0" rx="8" ry="8" style="stroke:#181818;stroke-width:0.5;"/><path d="M409.8843,453.5547 L409.8843,480.5547 M396.8843,461.5547 L422.8843,461.5547 M409.8843,480.5547 L396.8843,495.5547 M409.8843,480.5547 L422.8843,495.5547" fill="none" style="stroke:#181818;stroke-width:0.5;"/></g><g class="participant participant-head" data-entity-uid="part4" data-qualified-name="Supplier" id="part4-head"><text fill="#000000" font-family="sans-serif" font-size="14" lengthAdjust="spacing" textLength="57.6816" x="480.4839" y="77.9951">Supplier</text><ellipse cx="512.3247" cy="13.5" fill="#E2E2F0" rx="8" ry="8" style="stroke:#181818;stroke-width:0.5;"/><path d="M512.3247,21.5 L512.3247,48.5 M499.3247,29.5 L525.3247,29.5 M512.3247,48.5 L499.3247,63.5 M512.3247,48.5 L525.3247,63.5" fill="none" style="stroke:#181818;stroke-width:0.5;"/></g><g class="participant participant-tail" data-entity-uid="part4" data-qualified-name="Supplier" id="part4-tail"><text fill="#000000" font-family="sans-serif" font-size="14" lengthAdjust="spacing" textLength="57.6816" x="480.4839" y="433.7529">Supplier</text><ellipse cx="512.3247" cy="445.5547" fill="#E2E2F0" rx="8" ry="8" style="stroke:#181818;stroke-width:0.5;"/><path d="M512.3247,453.5547 L512.3247,480.5547 M499.3247,461.5547 L525.3247,461.5547 M512.3247,480.5547 L499.3247,495.5547 M512.3247,480.5547 L525.3247,495.5547" fill="none" style="stroke:#181818;stroke-width:0.5;"/></g><g class="message" data-entity-1="part1" data-entity-2="part2" id="msg1"><polygon fill="#181818" points="288.6592,108.4297,298.6592,112.4297,288.6592,116.4297,292.6592,112.4297" style="stroke:#181818;stroke-width:1;"/><line style="stroke:#181818;stroke-width:1;" x1="51.9458" x2="294.6592" y1="112.4297" y2="112.4297"/><text fill="#000000" font-family="sans-serif" font-size="13" lengthAdjust="spacing" textLength="125.4995" x="58.9458" y="107.3638">checkStockLevels()</text></g><g class="message" data-entity-1="part2" data-entity-2="part1" id="msg2"><polygon fill="#181818" points="62.9458,137.5625,52.9458,141.5625,62.9458,145.5625,58.9458,141.5625" style="stroke:#181818;stroke-width:1;"/><line style="stroke:#181818;stroke-width:1;stroke-dasharray:2,2;" x1="56.9458" x2="299.6592" y1="141.5625" y2="141.5625"/><text fill="#000000" font-family="sans-serif" font-size="13" lengthAdjust="spacing" textLength="185.8975" x="68.9458" y="136.4966">itemsBelowThreshold(items)</text></g><g class="message" data-entity-1="part1" data-entity-2="part3" id="msg3"><polygon fill="#181818" points="397.8843,166.6953,407.8843,170.6953,397.8843,174.6953,401.8843,170.6953" style="stroke:#181818;stroke-width:1;"/><line style="stroke:#181818;stroke-width:1;" x1="51.9458" x2="403.8843" y1="170.6953" y2="170.6953"/><text fill="#000000" font-family="sans-serif" font-size="13" lengthAdjust="spacing" textLength="170.3013" x="58.9458" y="165.6294">sendLowStockAlert(items)</text></g><g class="message" data-entity-1="part3" data-entity-2="part1" id="msg4"><polygon fill="#181818" points="62.9458,195.8281,52.9458,199.8281,62.9458,203.8281,58.9458,199.8281" style="stroke:#181818;stroke-width:1;"/><line style="stroke:#181818;stroke-width:1;" x1="56.9458" x2="408.8843" y1="199.8281" y2="199.8281"/><text fill="#000000" font-family="sans-serif" font-size="13" lengthAdjust="spacing" textLength="169.8823" x="68.9458" y="194.7622">acknowledgeAlert(itemID)</text></g><g class="message" data-entity-1="part3" data-entity-2="part1" id="msg5"><polygon fill="#181818" points="62.9458,224.9609,52.9458,228.9609,62.9458,232.9609,58.9458,228.9609" style="stroke:#181818;stroke-width:1;"/><line style="stroke:#181818;stroke-width:1;" x1="56.9458" x2="408.8843" y1="228.9609" y2="228.9609"/><text fill="#000000" font-family="sans-serif" font-size="13" lengthAdjust="spacing" textLength="246.7397" x="68.9458" y="223.895">createStockRequest(itemID, quantity)</text></g><g class="message" data-entity-1="part1" data-entity-2="part2" id="msg6"><polygon fill="#181818" points="288.6592,254.0938,298.6592,258.0938,288.6592,262.0938,292.6592,258.0938" style="stroke:#181818;stroke-width:1;"/><line style="stroke:#181818;stroke-width:1;" x1="51.9458" x2="294.6592" y1="258.0938" y2="258.0938"/><text fill="#000000" font-family="sans-serif" font-size="13" lengthAdjust="spacing" textLength="224.7134" x="58.9458" y="253.0278">saveStockRequest(requestDetails)</text></g><g class="message" data-entity-1="part1" data-entity-2="part4" id="msg7"><polygon fill="#181818" points="500.3247,283.2266,510.3247,287.2266,500.3247,291.2266,504.3247,287.2266" style="stroke:#181818;stroke-width:1;"/><line style="stroke:#181818;stroke-width:1;" x1="51.9458" x2="506.3247" y1="287.2266" y2="287.2266"/><text fill="#000000" font-family="sans-serif" font-size="13" lengthAdjust="spacing" textLength="240.0684" x="58.9458" y="282.1606">sendStockRequest(items, quantities)</text></g><g class="message" data-entity-1="part4" data-entity-2="part1" id="msg8"><polygon fill="#181818" points="62.9458,312.3594,52.9458,316.3594,62.9458,320.3594,58.9458,316.3594" style="stroke:#181818;stroke-width:1;"/><line style="stroke:#181818;stroke-width:1;" x1="56.9458" x2="511.3247" y1="316.3594" y2="316.3594"/><text fill="#000000" font-family="sans-serif" font-size="13" lengthAdjust="spacing" textLength="209.6313" x="68.9458" y="311.2935">approveAndDispatch(requestID)</text></g><g class="message" data-entity-1="part1" data-entity-2="part2" id="msg9"><polygon fill="#181818" points="288.6592,341.4922,298.6592,345.4922,288.6592,349.4922,292.6592,345.4922" style="stroke:#181818;stroke-width:1;"/><line style="stroke:#181818;stroke-width:1;" x1="51.9458" x2="294.6592" y1="345.4922" y2="345.4922"/><text fill="#000000" font-family="sans-serif" font-size="13" lengthAdjust="spacing" textLength="223.7168" x="58.9458" y="340.4263">updateInventory(itemID, quantity)</text></g><g class="message" data-entity-1="part2" data-entity-2="part1" id="msg10"><polygon fill="#181818" points="62.9458,370.625,52.9458,374.625,62.9458,378.625,58.9458,374.625" style="stroke:#181818;stroke-width:1;"/><line style="stroke:#181818;stroke-width:1;stroke-dasharray:2,2;" x1="56.9458" x2="299.6592" y1="374.625" y2="374.625"/><text fill="#000000" font-family="sans-serif" font-size="13" lengthAdjust="spacing" textLength="127.3467" x="68.9458" y="369.5591">inventoryUpdated()</text></g><g class="message" data-entity-1="part1" data-entity-2="part3" id="msg11"><polygon fill="#181818" points="397.8843,399.7578,407.8843,403.7578,397.8843,407.7578,401.8843,403.7578" style="stroke:#181818;stroke-width:1;"/><line style="stroke:#181818;stroke-width:1;stroke-dasharray:2,2;" x1="51.9458" x2="403.8843" y1="403.7578" y2="403.7578"/><text fill="#000000" font-family="sans-serif" font-size="13" lengthAdjust="spacing" textLength="212.5703" x="58.9458" y="398.6919">stockRequestFulfilled(requestID)</text></g><?plantuml-src RP7DRSCm38NldeBmoGQQ1N8e4CCe43IzrEq0hCp6WbL9aMGRdgBhTAkkK46HKZl9IJ_y-CX7QZIECwvHEiYXUePcjew-Sa0RhrcB3Z_G4kI_FzzGnrSWwYf3vfI1l38eMGSlAF589WJZFH7DeBNWCPOUMNOk0fj7BmPRO1snld6AzGSQITYYpFp_neSZk0Nk3rkHKDDRPyXsIhH5-2kNQh6wvot9zg2c8BeJP5oY4x8KHzPBDGbgZ_JFxcilVOzcXj1HK7wbqq0syGzm6ln8kPlBQuSMntM6EPyrEUHYRIADARguAMGlTJZvp0k-SgIrKIFjP5jpgz6nBbKCjgww6xHVD-tbID9lRRvZvsOTYNqFgMsn45tlOT7zqo0-kV1ZNlJo1m00?></g></svg>