<?plantuml 1.2026.2?><svg xmlns="http://www.w3.org/2000/svg" xmlns:xlink="http://www.w3.org/1999/xlink" contentStyleType="text/css" data-diagram-type="SEQUENCE" height="473px" preserveAspectRatio="none" style="width:766px;height:473px;background:#FFFFFF;" version="1.1" viewBox="0 0 766 473" width="766px" zoomAndPan="magnify"><defs/><g><g class="participant-lifeline" data-entity-uid="part1" data-qualified-name="System" id="part1-lifeline"><g><title> BK System</title><rect fill="#000000" fill-opacity="0.00000" height="311.3281" width="8" x="47.9458" y="81.2969"/><line style="stroke:#181818;stroke-width:0.5;stroke-dasharray:5,5;" x1="51" x2="51" y1="81.2969" y2="392.625"/></g></g><g class="participant-lifeline" data-entity-uid="part2" data-qualified-name="DB" id="part2-lifeline"><g><title> Database</title><rect fill="#000000" fill-opacity="0.00000" height="311.3281" width="8" x="348.7988" y="81.2969"/><line style="stroke:#181818;stroke-width:0.5;stroke-dasharray:5,5;" x1="352.1733" x2="352.1733" y1="81.2969" y2="392.625"/></g></g><g class="participant-lifeline" data-entity-uid="part3" data-qualified-name="Rider" id="part3-lifeline"><g><title>Delivery Rider</title><rect fill="#000000" fill-opacity="0.00000" height="311.3281" width="8" x="450.1421" y="81.2969"/><line style="stroke:#181818;stroke-width:0.5;stroke-dasharray:5,5;" x1="453.4243" x2="453.4243" y1="81.2969" y2="392.625"/></g></g><g class="participant-lifeline" data-entity-uid="part4" data-qualified-name="RiderApp" id="part4-lifeline"><g><title>Rider App</title><rect fill="#000000" fill-opacity="0.00000" height="311.3281" width="8" x="715.3467" y="81.2969"/><line style="stroke:#181818;stroke-width:0.5;stroke-dasharray:5,5;" x1="719.0098" x2="719.0098" y1="81.2969" y2="392.625"/></g></g><g class="participant participant-head" data-entity-uid="part1" data-qualified-name="System" id="part1-head"><rect fill="#E2E2F0" height="30.2969" rx="2.5" ry="2.5" style="stroke:#181818;stroke-width:0.5;" width="93.8916" x="5" y="50"/><text fill="#000000" font-family="sans-serif" font-size="14" lengthAdjust="spacing" textLength="75.4414" x="16.4502" y="69.9951">BK System</text></g><g class="participant participant-tail" data-entity-uid="part1" data-qualified-name="System" id="part1-tail"><rect fill="#E2E2F0" height="30.2969" rx="2.5" ry="2.5" style="stroke:#181818;stroke-width:0.5;" width="93.8916" x="5" y="391.625"/><text fill="#000000" font-family="sans-serif" font-size="14" lengthAdjust="spacing" textLength="75.4414" x="16.4502" y="411.6201">BK System</text></g><g class="participant participant-head" data-entity-uid="part2" data-qualified-name="DB" id="part2-head"><text fill="#000000" font-family="sans-serif" font-size="14" lengthAdjust="spacing" textLength="66.8008" x="318.6235" y="77.9951">Database</text><path d="M334.7988,29 C334.7988,19 352.7988,19 352.7988,19 C352.7988,19 370.7988,19 370.7988,29 L370.7988,55 C370.7988,65 352.7988,65 352.7988,65 C352.7988,65 334.7988,65 334.7988,55 L334.7988,29" fill="#E2E2F0" style="stroke:#181818;stroke-width:0.5;"/><path d="M334.7988,29 C334.7988,39 352.7988,39 352.7988,39 C352.7988,39 370.7988,39 370.7988,29" fill="none" style="stroke:#181818;stroke-width:0.5;"/></g><g class="participant participant-tail" data-entity-uid="part2" data-qualified-name="DB" id="part2-tail"><text fill="#000000" font-family="sans-serif" font-size="14" lengthAdjust="spacing" textLength="66.8008" x="318.6235" y="404.6201">Database</text><path d="M334.7988,417.9219 C334.7988,407.9219 352.7988,407.9219 352.7988,407.9219 C352.7988,407.9219 370.7988,407.9219 370.7988,417.9219 L370.7988,443.9219 C370.7988,453.9219 352.7988,453.9219 352.7988,453.9219 C352.7988,453.9219 334.7988,453.9219 334.7988,443.9219 L334.7988,417.9219" fill="#E2E2F0" style="stroke:#181818;stroke-width:0.5;"/><path d="M334.7988,417.9219 C334.7988,427.9219 352.7988,427.9219 352.7988,427.9219 C352.7988,427.9219 370.7988,427.9219 370.7988,417.9219" fill="none" style="stroke:#181818;stroke-width:0.5;"/></g><g class="participant participant-head" data-entity-uid="part3" data-qualified-name="Rider" id="part3-head"><text fill="#000000" font-family="sans-serif" font-size="14" lengthAdjust="spacing" textLength="99.4355" x="401.4243" y="77.9951">Delivery Rider</text><ellipse cx="454.1421" cy="13.5" fill="#E2E2F0" rx="8" ry="8" style="stroke:#181818;stroke-width:0.5;"/><path d="M454.1421,21.5 L454.1421,48.5 M441.1421,29.5 L467.1421,29.5 M454.1421,48.5 L441.1421,63.5 M454.1421,48.5 L467.1421,63.5" fill="none" style="stroke:#181818;stroke-width:0.5;"/></g><g class="participant participant-tail" data-entity-uid="part3" data-qualified-name="Rider" id="part3-tail"><text fill="#000000" font-family="sans-serif" font-size="14" lengthAdjust="spacing" textLength="99.4355" x="401.4243" y="404.6201">Delivery Rider</text><ellipse cx="454.1421" cy="416.4219" fill="#E2E2F0" rx="8" ry="8" style="stroke:#181818;stroke-width:0.5;"/><path d="M454.1421,424.4219 L454.1421,451.4219 M441.1421,432.4219 L467.1421,432.4219 M454.1421,451.4219 L441.1421,466.4219 M454.1421,451.4219 L467.1421,466.4219" fill="none" style="stroke:#181818;stroke-width:0.5;"/></g><g class="participant participant-head" data-entity-uid="part4" data-qualified-name="RiderApp" id="part4-head"><rect fill="#E2E2F0" height="30.2969" rx="2.5" ry="2.5" style="stroke:#181818;stroke-width:0.5;" width="82.6738" x="678.0098" y="50"/><text fill="#000000" font-family="sans-serif" font-size="14" lengthAdjust="spacing" textLength="68.6738" x="685.0098" y="69.9951">Rider App</text></g><g class="participant participant-tail" data-entity-uid="part4" data-qualified-name="RiderApp" id="part4-tail"><rect fill="#E2E2F0" height="30.2969" rx="2.5" ry="2.5" style="stroke:#181818;stroke-width:0.5;" width="82.6738" x="678.0098" y="391.625"/><text fill="#000000" font-family="sans-serif" font-size="14" lengthAdjust="spacing" textLength="68.6738" x="685.0098" y="411.6201">Rider App</text></g><g class="message" data-entity-1="part1" data-entity-2="part2" id="msg1"><polygon fill="#181818" points="340.7988,108.4297,350.7988,112.4297,340.7988,116.4297,344.7988,112.4297" style="stroke:#181818;stroke-width:1;"/><line style="stroke:#181818;stroke-width:1;" x1="51.9458" x2="346.7988" y1="112.4297" y2="112.4297"/><text fill="#000000" font-family="sans-serif" font-size="13" lengthAdjust="spacing" textLength="182.0508" x="58.9458" y="107.3638">fetchReadyDeliveryOrders()</text></g><g class="message" data-entity-1="part2" data-entity-2="part1" id="msg2"><polygon fill="#181818" points="62.9458,137.5625,52.9458,141.5625,62.9458,145.5625,58.9458,141.5625" style="stroke:#181818;stroke-width:1;"/><line style="stroke:#181818;stroke-width:1;stroke-dasharray:2,2;" x1="56.9458" x2="351.7988" y1="141.5625" y2="141.5625"/><text fill="#000000" font-family="sans-serif" font-size="13" lengthAdjust="spacing" textLength="91.3428" x="68.9458" y="136.4966">readyOrders()</text></g><g class="message" data-entity-1="part1" data-entity-2="part2" id="msg3"><polygon fill="#181818" points="340.7988,166.6953,350.7988,170.6953,340.7988,174.6953,344.7988,170.6953" style="stroke:#181818;stroke-width:1;"/><line style="stroke:#181818;stroke-width:1;" x1="51.9458" x2="346.7988" y1="170.6953" y2="170.6953"/><text fill="#000000" font-family="sans-serif" font-size="13" lengthAdjust="spacing" textLength="128.667" x="58.9458" y="165.6294">findAvailableRider()</text></g><g class="message" data-entity-1="part2" data-entity-2="part1" id="msg4"><polygon fill="#181818" points="62.9458,195.8281,52.9458,199.8281,62.9458,203.8281,58.9458,199.8281" style="stroke:#181818;stroke-width:1;"/><line style="stroke:#181818;stroke-width:1;stroke-dasharray:2,2;" x1="56.9458" x2="351.7988" y1="199.8281" y2="199.8281"/><text fill="#000000" font-family="sans-serif" font-size="13" lengthAdjust="spacing" textLength="44.3955" x="68.9458" y="194.7622">riderID</text></g><g class="message" data-entity-1="part1" data-entity-2="part4" id="msg5"><polygon fill="#181818" points="707.3467,224.9609,717.3467,228.9609,707.3467,232.9609,711.3467,228.9609" style="stroke:#181818;stroke-width:1;"/><line style="stroke:#181818;stroke-width:1;" x1="51.9458" x2="713.3467" y1="228.9609" y2="228.9609"/><text fill="#000000" font-family="sans-serif" font-size="13" lengthAdjust="spacing" textLength="300.8979" x="58.9458" y="223.895">sendAssignmentNotification(orderID, address)</text></g><g class="message" data-entity-1="part4" data-entity-2="part3" id="msg6"><polygon fill="#181818" points="465.1421,254.0938,455.1421,258.0938,465.1421,262.0938,461.1421,258.0938" style="stroke:#181818;stroke-width:1;"/><line style="stroke:#181818;stroke-width:1;stroke-dasharray:2,2;" x1="459.1421" x2="718.3467" y1="258.0938" y2="258.0938"/><text fill="#000000" font-family="sans-serif" font-size="13" lengthAdjust="spacing" textLength="241.2046" x="471.1421" y="253.0278">displayAssignment(orderID, address)</text></g><g class="message" data-entity-1="part3" data-entity-2="part4" id="msg7"><polygon fill="#181818" points="707.3467,283.2266,717.3467,287.2266,707.3467,291.2266,711.3467,287.2266" style="stroke:#181818;stroke-width:1;"/><line style="stroke:#181818;stroke-width:1;" x1="454.1421" x2="713.3467" y1="287.2266" y2="287.2266"/><text fill="#000000" font-family="sans-serif" font-size="13" lengthAdjust="spacing" textLength="130.292" x="461.1421" y="282.1606">acceptAssignment()</text></g><g class="message" data-entity-1="part4" data-entity-2="part1" id="msg8"><polygon fill="#181818" points="62.9458,312.3594,52.9458,316.3594,62.9458,320.3594,58.9458,316.3594" style="stroke:#181818;stroke-width:1;"/><line style="stroke:#181818;stroke-width:1;" x1="56.9458" x2="718.3467" y1="316.3594" y2="316.3594"/><text fill="#000000" font-family="sans-serif" font-size="13" lengthAdjust="spacing" textLength="236.9644" x="68.9458" y="311.2935">confirmAcceptance(orderID, riderID)</text></g><g class="message" data-entity-1="part1" data-entity-2="part2" id="msg9"><polygon fill="#181818" points="340.7988,341.4922,350.7988,345.4922,340.7988,349.4922,344.7988,345.4922" style="stroke:#181818;stroke-width:1;"/><line style="stroke:#181818;stroke-width:1;" x1="51.9458" x2="346.7988" y1="345.4922" y2="345.4922"/><text fill="#000000" font-family="sans-serif" font-size="13" lengthAdjust="spacing" textLength="276.853" x="58.9458" y="340.4263">updateOrderStatus(orderID, "Dispatched")</text></g><g class="message" data-entity-1="part2" data-entity-2="part1" id="msg10"><polygon fill="#181818" points="62.9458,370.625,52.9458,374.625,62.9458,378.625,58.9458,374.625" style="stroke:#181818;stroke-width:1;"/><line style="stroke:#181818;stroke-width:1;stroke-dasharray:2,2;" x1="56.9458" x2="351.7988" y1="374.625" y2="374.625"/><text fill="#000000" font-family="sans-serif" font-size="13" lengthAdjust="spacing" textLength="105.4219" x="68.9458" y="369.5591">statusUpdated()</text></g><?plantuml-src RL7DQiCm3BxxAKHE2QmlqCCW9PSnMA5b3w3QoYP876EfXRpzN3TfmjARxEzFFm6ZikM0Ng60moUSHr7g2q2PIkDGyO922M-cCiFDmQ3L8KBHKCStYYESs57COAvCMBldBwX3M0ZfOSmZ1dRloH7sq9BQtnEX6sVROqnKAIkJy5sYJO8zn3lhYMwCsBlwXjpXfQCSzyhY_l_HhCLpPmaLIXOY_EDxylerABTiKNdmvH2py0tGkKWYbNdgThD9Sd0ieSDnCNaXV2Z_HQEr57IbMmUi1h23RpdsTQQZjxG4JBDjDtCDwQQK5tTMrAiicg993MEw0BbYkot9xEyiTsNr1m00?></g></svg>