<?plantuml 1.2026.2?><svg xmlns="http://www.w3.org/2000/svg" xmlns:xlink="http://www.w3.org/1999/xlink" contentStyleType="text/css" data-diagram-type="SEQUENCE" height="635px" preserveAspectRatio="none" style="width:515px;height:635px;background:#FFFFFF;" version="1.1" viewBox="0 0 515 635" width="515px" zoomAndPan="magnify"><defs/><g><rect fill="none" height="265" style="stroke:#000000;stroke-width:1.5;" width="498.7842" x="10" y="243.9609"/><g class="participant-lifeline" data-entity-uid="part1" data-qualified-name="Cashier" id="part1-lifeline"><g><title>Cashier</title><rect fill="#000000" fill-opacity="0.00000" height="473.7969" width="8" x="45.3901" y="81.2969"/><line style="stroke:#181818;stroke-width:0.5;stroke-dasharray:5,5;" x1="49" x2="49" y1="81.2969" y2="555.0938"/></g></g><g class="participant-lifeline" data-entity-uid="part2" data-qualified-name="POS" id="part2-lifeline"><g><title>. POS System</title><rect fill="#000000" fill-opacity="0.00000" height="473.7969" width="8" x="250.3428" y="81.2969"/><line style="stroke:#181818;stroke-width:0.5;stroke-dasharray:5,5;" x1="253.6152" x2="253.6152" y1="81.2969" y2="555.0938"/></g></g><g class="participant-lifeline" data-entity-uid="part3" data-qualified-name="DB" id="part3-lifeline"><g><title>. Database</title><rect fill="#000000" fill-opacity="0.00000" height="473.7969" width="8" x="456.1587" y="81.2969"/><line style="stroke:#181818;stroke-width:0.5;stroke-dasharray:5,5;" x1="459.5332" x2="459.5332" y1="81.2969" y2="555.0938"/></g></g><g class="participant participant-head" data-entity-uid="part1" data-qualified-name="Cashier" id="part1-head"><text fill="#000000" font-family="sans-serif" font-size="14" lengthAdjust="spacing" textLength="52.7803" x="20" y="77.9951">Cashier</text><ellipse cx="49.3901" cy="13.5" fill="#E2E2F0" rx="8" ry="8" style="stroke:#181818;stroke-width:0.5;"/><path d="M49.3901,21.5 L49.3901,48.5 M36.3901,29.5 L62.3901,29.5 M49.3901,48.5 L36.3901,63.5 M49.3901,48.5 L62.3901,63.5" fill="none" style="stroke:#181818;stroke-width:0.5;"/></g><g class="participant participant-tail" data-entity-uid="part1" data-qualified-name="Cashier" id="part1-tail"><text fill="#000000" font-family="sans-serif" font-size="14" lengthAdjust="spacing" textLength="52.7803" x="20" y="567.0889">Cashier</text><ellipse cx="49.3901" cy="578.8906" fill="#E2E2F0" rx="8" ry="8" style="stroke:#181818;stroke-width:0.5;"/><path d="M49.3901,586.8906 L49.3901,613.8906 M36.3901,594.8906 L62.3901,594.8906 M49.3901,613.8906 L36.3901,628.8906 M49.3901,613.8906 L62.3901,628.8906" fill="none" style="stroke:#181818;stroke-width:0.5;"/></g><g class="participant participant-head" data-entity-uid="part2" data-qualified-name="POS" id="part2-head"><rect fill="#E2E2F0" height="30.2969" rx="2.5" ry="2.5" style="stroke:#181818;stroke-width:0.5;" width="103.4551" x="202.6152" y="50"/><text fill="#000000" font-family="sans-serif" font-size="14" lengthAdjust="spacing" textLength="89.4551" x="209.6152" y="69.9951">&#65039; POS System</text></g><g class="participant participant-tail" data-entity-uid="part2" data-qualified-name="POS" id="part2-tail"><rect fill="#E2E2F0" height="30.2969" rx="2.5" ry="2.5" style="stroke:#181818;stroke-width:0.5;" width="103.4551" x="202.6152" y="554.0938"/><text fill="#000000" font-family="sans-serif" font-size="14" lengthAdjust="spacing" textLength="89.4551" x="209.6152" y="574.0889">&#65039; POS System</text></g><g class="participant participant-head" data-entity-uid="part3" data-qualified-name="DB" id="part3-head"><text fill="#000000" font-family="sans-serif" font-size="14" lengthAdjust="spacing" textLength="71.251" x="421.5332" y="77.9951">&#65039; Database</text><path d="M442.1587,29 C442.1587,19 460.1587,19 460.1587,19 C460.1587,19 478.1587,19 478.1587,29 L478.1587,55 C478.1587,65 460.1587,65 460.1587,65 C460.1587,65 442.1587,65 442.1587,55 L442.1587,29" fill="#E2E2F0" style="stroke:#181818;stroke-width:0.5;"/><path d="M442.1587,29 C442.1587,39 460.1587,39 460.1587,39 C460.1587,39 478.1587,39 478.1587,29" fill="none" style="stroke:#181818;stroke-width:0.5;"/></g><g class="participant participant-tail" data-entity-uid="part3" data-qualified-name="DB" id="part3-tail"><text fill="#000000" font-family="sans-serif" font-size="14" lengthAdjust="spacing" textLength="71.251" x="421.5332" y="567.0889">&#65039; Database</text><path d="M442.1587,580.3906 C442.1587,570.3906 460.1587,570.3906 460.1587,570.3906 C460.1587,570.3906 478.1587,570.3906 478.1587,580.3906 L478.1587,606.3906 C478.1587,616.3906 460.1587,616.3906 460.1587,616.3906 C460.1587,616.3906 442.1587,616.3906 442.1587,606.3906 L442.1587,580.3906" fill="#E2E2F0" style="stroke:#181818;stroke-width:0.5;"/><path d="M442.1587,580.3906 C442.1587,590.3906 460.1587,590.3906 460.1587,590.3906 C460.1587,590.3906 478.1587,590.3906 478.1587,580.3906" fill="none" style="stroke:#181818;stroke-width:0.5;"/></g><g class="message" data-entity-1="part1" data-entity-2="part2" id="msg1"><polygon fill="#181818" points="242.3428,108.4297,252.3428,112.4297,242.3428,116.4297,246.3428,112.4297" style="stroke:#181818;stroke-width:1;"/><line style="stroke:#181818;stroke-width:1;" x1="49.3901" x2="248.3428" y1="112.4297" y2="112.4297"/><text fill="#000000" font-family="sans-serif" font-size="13" lengthAdjust="spacing" textLength="139.5215" x="56.3901" y="107.3638">searchOrder(orderID)</text></g><g class="message" data-entity-1="part2" data-entity-2="part3" id="msg2"><polygon fill="#181818" points="448.1587,137.5625,458.1587,141.5625,448.1587,145.5625,452.1587,141.5625" style="stroke:#181818;stroke-width:1;"/><line style="stroke:#181818;stroke-width:1;" x1="254.3428" x2="454.1587" y1="141.5625" y2="141.5625"/><text fill="#000000" font-family="sans-serif" font-size="13" lengthAdjust="spacing" textLength="174.1797" x="261.3428" y="136.4966">fetchOrderDetails(orderID)</text></g><g class="message" data-entity-1="part3" data-entity-2="part2" id="msg3"><polygon fill="#181818" points="265.3428,166.6953,255.3428,170.6953,265.3428,174.6953,261.3428,170.6953" style="stroke:#181818;stroke-width:1;"/><line style="stroke:#181818;stroke-width:1;stroke-dasharray:2,2;" x1="259.3428" x2="459.1587" y1="170.6953" y2="170.6953"/><text fill="#000000" font-family="sans-serif" font-size="13" lengthAdjust="spacing" textLength="130.0508" x="271.3428" y="165.6294">orderDetails(status)</text></g><g class="message" data-entity-1="part2" data-entity-2="part1" id="msg4"><polygon fill="#181818" points="60.3901,195.8281,50.3901,199.8281,60.3901,203.8281,56.3901,199.8281" style="stroke:#181818;stroke-width:1;"/><line style="stroke:#181818;stroke-width:1;stroke-dasharray:2,2;" x1="54.3901" x2="253.3428" y1="199.8281" y2="199.8281"/><text fill="#000000" font-family="sans-serif" font-size="13" lengthAdjust="spacing" textLength="138.5439" x="66.3901" y="194.7622">displayOrderDetails()</text></g><g class="message" data-entity-1="part1" data-entity-2="part2" id="msg5"><polygon fill="#181818" points="242.3428,224.9609,252.3428,228.9609,242.3428,232.9609,246.3428,228.9609" style="stroke:#181818;stroke-width:1;"/><line style="stroke:#181818;stroke-width:1;" x1="49.3901" x2="248.3428" y1="228.9609" y2="228.9609"/><text fill="#000000" font-family="sans-serif" font-size="13" lengthAdjust="spacing" textLength="180.9526" x="56.3901" y="223.895">selectAction(modify/cancel)</text></g><path d="M10,243.9609 L74.4429,243.9609 L74.4429,251.0938 L64.4429,261.0938 L10,261.0938 L10,243.9609" fill="#EEEEEE" style="stroke:#000000;stroke-width:1.5;"/><rect fill="none" height="265" style="stroke:#000000;stroke-width:1.5;" width="498.7842" x="10" y="243.9609"/><text fill="#000000" font-family="sans-serif" font-size="13" font-weight="bold" lengthAdjust="spacing" textLength="19.4429" x="25" y="257.0278">alt</text><text fill="#000000" font-family="sans-serif" font-size="11" font-weight="bold" lengthAdjust="spacing" textLength="91.5234" x="89.4429" y="256.1714">[Modify Order]</text><g class="message" data-entity-1="part1" data-entity-2="part2" id="msg6"><polygon fill="#181818" points="242.3428,278.2266,252.3428,282.2266,242.3428,286.2266,246.3428,282.2266" style="stroke:#181818;stroke-width:1;"/><line style="stroke:#181818;stroke-width:1;" x1="49.3901" x2="248.3428" y1="282.2266" y2="282.2266"/><text fill="#000000" font-family="sans-serif" font-size="13" lengthAdjust="spacing" textLength="155.5493" x="56.3901" y="277.1606">updateItems(newItems)</text></g><g class="message" data-entity-1="part2" data-entity-2="part3" id="msg7"><polygon fill="#181818" points="448.1587,307.3594,458.1587,311.3594,448.1587,315.3594,452.1587,311.3594" style="stroke:#181818;stroke-width:1;"/><line style="stroke:#181818;stroke-width:1;" x1="254.3428" x2="454.1587" y1="311.3594" y2="311.3594"/><text fill="#000000" font-family="sans-serif" font-size="13" lengthAdjust="spacing" textLength="163.5791" x="261.3428" y="306.2935">recalculateTotal(orderID)</text></g><g class="message" data-entity-1="part3" data-entity-2="part2" id="msg8"><polygon fill="#181818" points="265.3428,336.4922,255.3428,340.4922,265.3428,344.4922,261.3428,340.4922" style="stroke:#181818;stroke-width:1;"/><line style="stroke:#181818;stroke-width:1;stroke-dasharray:2,2;" x1="259.3428" x2="459.1587" y1="340.4922" y2="340.4922"/><text fill="#000000" font-family="sans-serif" font-size="13" lengthAdjust="spacing" textLength="96.77" x="271.3428" y="335.4263">updatedTotal()</text></g><g class="message" data-entity-1="part2" data-entity-2="part3" id="msg9"><polygon fill="#181818" points="448.1587,365.625,458.1587,369.625,448.1587,373.625,452.1587,369.625" style="stroke:#181818;stroke-width:1;"/><line style="stroke:#181818;stroke-width:1;" x1="254.3428" x2="454.1587" y1="369.625" y2="369.625"/><text fill="#000000" font-family="sans-serif" font-size="13" lengthAdjust="spacing" textLength="181.8159" x="261.3428" y="364.5591">saveUpdatedOrder(orderID)</text></g><g class="message" data-entity-1="part3" data-entity-2="part2" id="msg10"><polygon fill="#181818" points="265.3428,394.7578,255.3428,398.7578,265.3428,402.7578,261.3428,398.7578" style="stroke:#181818;stroke-width:1;"/><line style="stroke:#181818;stroke-width:1;stroke-dasharray:2,2;" x1="259.3428" x2="459.1587" y1="398.7578" y2="398.7578"/><text fill="#000000" font-family="sans-serif" font-size="13" lengthAdjust="spacing" textLength="123.665" x="271.3428" y="393.6919">updateConfirmed()</text></g><line style="stroke:#000000;stroke-width:1;stroke-dasharray:2,2;" x1="10" x2="508.7842" y1="407.7578" y2="407.7578"/><text fill="#000000" font-family="sans-serif" font-size="11" font-weight="bold" lengthAdjust="spacing" textLength="90.4976" x="15" y="417.9683">[Cancel Order]</text><g class="message" data-entity-1="part1" data-entity-2="part2" id="msg11"><polygon fill="#181818" points="242.3428,438.6953,252.3428,442.6953,242.3428,446.6953,246.3428,442.6953" style="stroke:#181818;stroke-width:1;"/><line style="stroke:#181818;stroke-width:1;" x1="49.3901" x2="248.3428" y1="442.6953" y2="442.6953"/><text fill="#000000" font-family="sans-serif" font-size="13" lengthAdjust="spacing" textLength="140.2007" x="56.3901" y="437.6294">confirmCancellation()</text></g><g class="message" data-entity-1="part2" data-entity-2="part3" id="msg12"><polygon fill="#181818" points="448.1587,467.8281,458.1587,471.8281,448.1587,475.8281,452.1587,471.8281" style="stroke:#181818;stroke-width:1;"/><line style="stroke:#181818;stroke-width:1;" x1="254.3428" x2="454.1587" y1="471.8281" y2="471.8281"/><text fill="#000000" font-family="sans-serif" font-size="13" lengthAdjust="spacing" textLength="138.1631" x="261.3428" y="466.7622">cancelOrder(orderID)</text></g><g class="message" data-entity-1="part3" data-entity-2="part2" id="msg13"><polygon fill="#181818" points="265.3428,496.9609,255.3428,500.9609,265.3428,504.9609,261.3428,500.9609" style="stroke:#181818;stroke-width:1;"/><line style="stroke:#181818;stroke-width:1;stroke-dasharray:2,2;" x1="259.3428" x2="459.1587" y1="500.9609" y2="500.9609"/><text fill="#000000" font-family="sans-serif" font-size="13" lengthAdjust="spacing" textLength="108.9385" x="271.3428" y="495.895">orderCancelled()</text></g><g class="message" data-entity-1="part2" data-entity-2="part1" id="msg14"><polygon fill="#181818" points="60.3901,533.0938,50.3901,537.0938,60.3901,541.0938,56.3901,537.0938" style="stroke:#181818;stroke-width:1;"/><line style="stroke:#181818;stroke-width:1;stroke-dasharray:2,2;" x1="54.3901" x2="253.3428" y1="537.0938" y2="537.0938"/><text fill="#000000" font-family="sans-serif" font-size="13" lengthAdjust="spacing" textLength="121.0625" x="66.3901" y="532.0278">actionCompleted()</text></g><?plantuml-src XP5BJiCm443tFeNLLRges7THYIQRBb2H2WSOx8bgoR4ZUmBAANeTRiKL6DifRI505b6SUVCy7r3aWwmX7Wq68Ne8P9JfmP5SVBoVvEF-80zZ9EmM4c8w2Wq4Bn2n0Crqok5cAyJaagjDJbxBY13KSHyqXigdzwvP2f5YZ3HR9bga2MYGmDXuuJY--ZBvQoGIq13F9cRE5w-bDh6tCDuObxELMLHqhyXuLtLUctQyK-0KMgR1adp8_sGM2SdF3yNGypXmn_E9bSEt_C79YRtkCA02gmRBx9Cdi9S64tdJP37gWise8hpYSs6-pVGNLUrTQqA7EjdGykBgtEDVRQcIKq2kEWreffOohF_Ao959bQj0f-VM1daHjUzwYvJ0Jm00?></g></svg>