<?plantuml 1.2026.2?><svg xmlns="http://www.w3.org/2000/svg" xmlns:xlink="http://www.w3.org/1999/xlink" contentStyleType="text/css" data-diagram-type="STATE" height="1369px" preserveAspectRatio="none" style="width:863px;height:1369px;background:#FFFFFF;" version="1.1" viewBox="0 0 863 1369" width="863px" zoomAndPan="magnify"><title>BK Restaurant Management System
Order State Machine Diagram</title><defs/><g><g class="title" data-source-line="1"><text fill="#000000" font-family="Arial" font-size="14" font-weight="bold" lengthAdjust="spacing" textLength="285.2363" x="282.02" y="22.9951">BK Restaurant Management System</text><text fill="#000000" font-family="Arial" font-size="14" font-weight="bold" lengthAdjust="spacing" textLength="234.9922" x="307.1421" y="39.292">Order State Machine Diagram</text></g><g class="entity" data-qualified-name="OrderPlaced" id="ent0002"><rect fill="#EAF3DE" height="50" rx="12.5" ry="12.5" style="stroke:#3B6D11;stroke-width:0.5;" width="106.1396" x="606" y="171.5938"/><line style="stroke:#3B6D11;stroke-width:0.5;" x1="606" x2="712.1396" y1="197.8906" y2="197.8906"/><text fill="#173404" font-family="Arial" font-size="14" lengthAdjust="spacing" textLength="86.1396" x="616" y="189.5889">OrderPlaced</text></g><g class="entity" data-qualified-name="OrderConfirmed" id="ent0003"><rect fill="#EAF3DE" height="50" rx="12.5" ry="12.5" style="stroke:#3B6D11;stroke-width:0.5;" width="132.957" x="495.5" y="298.5938"/><line style="stroke:#3B6D11;stroke-width:0.5;" x1="495.5" x2="628.457" y1="324.8906" y2="324.8906"/><text fill="#173404" font-family="Arial" font-size="14" lengthAdjust="spacing" textLength="112.957" x="505.5" y="316.5889">OrderConfirmed</text></g><g class="entity" data-qualified-name="Preparing" id="ent0004"><rect fill="#EAF3DE" height="50" rx="12.5" ry="12.5" style="stroke:#3B6D11;stroke-width:0.5;" width="87.6826" x="352" y="428.0938"/><line style="stroke:#3B6D11;stroke-width:0.5;" x1="352" x2="439.6826" y1="454.3906" y2="454.3906"/><text fill="#173404" font-family="Arial" font-size="14" lengthAdjust="spacing" textLength="67.6826" x="362" y="446.0889">Preparing</text></g><g class="entity" data-qualified-name="ReadyForPickup" id="ent0005"><rect fill="#EAF3DE" height="50" rx="12.5" ry="12.5" style="stroke:#3B6D11;stroke-width:0.5;" width="132.3623" x="67" y="637.5938"/><line style="stroke:#3B6D11;stroke-width:0.5;" x1="67" x2="199.3623" y1="663.8906" y2="663.8906"/><text fill="#173404" font-family="Arial" font-size="14" lengthAdjust="spacing" textLength="112.3623" x="77" y="655.5889">ReadyForPickup</text></g><g class="entity" data-qualified-name="ReadyForDelivery" id="ent0006"><rect fill="#EAF3DE" height="50" rx="12.5" ry="12.5" style="stroke:#3B6D11;stroke-width:0.5;" width="144.5781" x="276.5" y="557.5938"/><line style="stroke:#3B6D11;stroke-width:0.5;" x1="276.5" x2="421.0781" y1="583.8906" y2="583.8906"/><text fill="#173404" font-family="Arial" font-size="14" lengthAdjust="spacing" textLength="124.5781" x="286.5" y="575.5889">ReadyForDelivery</text></g><g class="entity" data-qualified-name="AssignedToRider" id="ent0007"><rect fill="#EAF3DE" height="50" rx="12.5" ry="12.5" style="stroke:#3B6D11;stroke-width:0.5;" width="137.3047" x="217.5" y="717.5938"/><line style="stroke:#3B6D11;stroke-width:0.5;" x1="217.5" x2="354.8047" y1="743.8906" y2="743.8906"/><text fill="#173404" font-family="Arial" font-size="14" lengthAdjust="spacing" textLength="117.3047" x="227.5" y="735.5889">AssignedToRider</text></g><g class="entity" data-qualified-name="OutForDelivery" id="ent0008"><rect fill="#EAF3DE" height="50" rx="12.5" ry="12.5" style="stroke:#3B6D11;stroke-width:0.5;" width="125.8682" x="224" y="844.5938"/><line style="stroke:#3B6D11;stroke-width:0.5;" x1="224" x2="349.8682" y1="870.8906" y2="870.8906"/><text fill="#173404" font-family="Arial" font-size="14" lengthAdjust="spacing" textLength="105.8682" x="234" y="862.5889">OutForDelivery</text></g><g class="entity" data-qualified-name="Delivered" id="ent0009"><rect fill="#EAF3DE" height="50" rx="12.5" ry="12.5" style="stroke:#3B6D11;stroke-width:0.5;" width="87.3271" x="59.5" y="971.5938"/><line style="stroke:#3B6D11;stroke-width:0.5;" x1="59.5" x2="146.8271" y1="997.8906" y2="997.8906"/><text fill="#173404" font-family="Arial" font-size="14" lengthAdjust="spacing" textLength="67.3271" x="69.5" y="989.5889">Delivered</text></g><g class="entity" data-qualified-name="DeliveryFailed" id="ent0010"><rect fill="#EAF3DE" height="50" rx="12.5" ry="12.5" style="stroke:#3B6D11;stroke-width:0.5;" width="120.0234" x="423" y="971.5938"/><line style="stroke:#3B6D11;stroke-width:0.5;" x1="423" x2="543.0234" y1="997.8906" y2="997.8906"/><text fill="#173404" font-family="Arial" font-size="14" lengthAdjust="spacing" textLength="100.0234" x="433" y="989.5889">DeliveryFailed</text></g><g class="entity" data-qualified-name="PaymentCompleted" id="ent0011"><rect fill="#EAF3DE" height="50" rx="12.5" ry="12.5" style="stroke:#3B6D11;stroke-width:0.5;" width="158.2773" x="24" y="1101.0938"/><line style="stroke:#3B6D11;stroke-width:0.5;" x1="24" x2="182.2773" y1="1127.3906" y2="1127.3906"/><text fill="#173404" font-family="Arial" font-size="14" lengthAdjust="spacing" textLength="138.2773" x="34" y="1119.0889">PaymentCompleted</text></g><g class="entity" data-qualified-name="Completed" id="ent0012"><rect fill="#EAF3DE" height="50" rx="12.5" ry="12.5" style="stroke:#3B6D11;stroke-width:0.5;" width="96.3574" x="364" y="1230.5938"/><line style="stroke:#3B6D11;stroke-width:0.5;" x1="364" x2="460.3574" y1="1256.8906" y2="1256.8906"/><text fill="#173404" font-family="Arial" font-size="14" lengthAdjust="spacing" textLength="76.3574" x="374" y="1248.5889">Completed</text></g><g class="entity" data-qualified-name="Cancelled" id="ent0013"><rect fill="#EAF3DE" height="50" rx="12.5" ry="12.5" style="stroke:#3B6D11;stroke-width:0.5;" width="88.8174" x="527.5" y="1101.0938"/><line style="stroke:#3B6D11;stroke-width:0.5;" x1="527.5" x2="616.3174" y1="1127.3906" y2="1127.3906"/><text fill="#173404" font-family="Arial" font-size="14" lengthAdjust="spacing" textLength="68.8174" x="537.5" y="1119.0889">Cancelled</text></g><g class="start_entity" data-qualified-name=".start." data-source-line="12" id="ent0002"><ellipse cx="659" cy="69.5938" fill="#222222" rx="10" ry="10" style="stroke:#222222;stroke-width:1;"/></g><g class="end_entity" data-qualified-name=".end." data-source-line="39" id="ent0019"><ellipse cx="465" cy="1352.5938" fill="none" rx="11" ry="11" style="stroke:#222222;stroke-width:1;"/><ellipse cx="465" cy="1352.5938" fill="#222222" rx="6" ry="6" style="stroke:#222222;stroke-width:1;"/></g><g class="entity" data-qualified-name="GMN2" data-source-line="56" id="ent0003"><path d="M475.5,425.5938 L475.5,449.0938 L440.3,453.0938 L475.5,457.0938 L475.5,480.9922 A0,0 0 0 0 475.5,480.9922 L694.9976,480.9922 A0,0 0 0 0 694.9976,480.9922 L694.9976,435.5938 L684.9976,425.5938 L475.5,425.5938 A0,0 0 0 0 475.5,425.5938" fill="#FEFFDD" style="stroke:#181818;stroke-width:0.5;"/><path d="M684.9976,425.5938 L684.9976,435.5938 L694.9976,435.5938 L684.9976,425.5938" fill="#FEFFDD" style="stroke:#181818;stroke-width:0.5;"/><text fill="#000000" font-family="Arial" font-size="13" lengthAdjust="spacing" textLength="181.0415" x="481.5" y="442.6606">Kitchen staff prepares food.</text><text fill="#000000" font-family="Arial" font-size="13" lengthAdjust="spacing" textLength="198.4976" x="481.5" y="457.7935">Inventory is updated based on</text><text fill="#000000" font-family="Arial" font-size="13" lengthAdjust="spacing" textLength="136.8237" x="481.5" y="472.9263">ordered menu items.</text></g><g class="entity" data-qualified-name="GMN5" data-source-line="62" id="ent0006"><path d="M390,722.5938 L390,738.5938 L354.58,742.5938 L390,746.5938 L390,762.8594 A0,0 0 0 0 390,762.8594 L569.6597,762.8594 A0,0 0 0 0 569.6597,762.8594 L569.6597,732.5938 L559.6597,722.5938 L390,722.5938 A0,0 0 0 0 390,722.5938" fill="#FEFFDD" style="stroke:#181818;stroke-width:0.5;"/><path d="M559.6597,722.5938 L559.6597,732.5938 L569.6597,732.5938 L559.6597,722.5938" fill="#FEFFDD" style="stroke:#181818;stroke-width:0.5;"/><text fill="#000000" font-family="Arial" font-size="13" lengthAdjust="spacing" textLength="158.6597" x="396" y="739.6606">Delivery Service assigns</text><text fill="#000000" font-family="Arial" font-size="13" lengthAdjust="spacing" textLength="117.8315" x="396" y="754.7935">an available rider.</text></g><g class="entity" data-qualified-name="GMN8" data-source-line="67" id="ent0009"><path d="M217.5,1098.5938 L217.5,1122.0938 L182.29,1126.0938 L217.5,1130.0938 L217.5,1153.9922 A0,0 0 0 0 217.5,1153.9922 L396.4106,1153.9922 A0,0 0 0 0 396.4106,1153.9922 L396.4106,1108.5938 L386.4106,1098.5938 L217.5,1098.5938 A0,0 0 0 0 217.5,1098.5938" fill="#FEFFDD" style="stroke:#181818;stroke-width:0.5;"/><path d="M386.4106,1098.5938 L386.4106,1108.5938 L396.4106,1108.5938 L386.4106,1098.5938" fill="#FEFFDD" style="stroke:#181818;stroke-width:0.5;"/><text fill="#000000" font-family="Arial" font-size="13" lengthAdjust="spacing" textLength="144.9805" x="223.5" y="1115.6606">Billing Service records</text><text fill="#000000" font-family="Arial" font-size="13" lengthAdjust="spacing" textLength="157.9106" x="223.5" y="1130.7935">successful payment and</text><text fill="#000000" font-family="Arial" font-size="13" lengthAdjust="spacing" textLength="120.1865" x="223.5" y="1145.9263">generates invoice.</text></g><g class="entity" data-qualified-name="GMN11" data-source-line="73" id="ent0012"><path d="M182,976.5938 L182,992.5938 L146.72,996.5938 L182,1000.5938 L182,1016.8594 A0,0 0 0 0 182,1016.8594 L387.7803,1016.8594 A0,0 0 0 0 387.7803,1016.8594 L387.7803,986.5938 L377.7803,976.5938 L182,976.5938 A0,0 0 0 0 182,976.5938" fill="#FEFFDD" style="stroke:#181818;stroke-width:0.5;"/><path d="M377.7803,976.5938 L377.7803,986.5938 L387.7803,986.5938 L377.7803,976.5938" fill="#FEFFDD" style="stroke:#181818;stroke-width:0.5;"/><text fill="#000000" font-family="Arial" font-size="13" lengthAdjust="spacing" textLength="184.7803" x="188" y="993.6606">Order successfully delivered</text><text fill="#000000" font-family="Arial" font-size="13" lengthAdjust="spacing" textLength="82.5322" x="188" y="1008.7935">to customer.</text></g><!--link *start* to OrderPlaced--><g class="link" data-entity-1="ent0002" data-entity-2="ent0002" data-link-type="dependency" data-source-line="12" id="lnk3"><path d="M659,79.9938 C659,99.1837 659,137.4137 659,165.2638" fill="none" id="*start*-to-OrderPlaced" style="stroke:#181818;stroke-width:1;"/><polygon fill="#181818" points="659,171.2638,663,162.2638,659,166.2638,655,162.2638,659,171.2638" style="stroke:#181818;stroke-width:1;"/><text fill="#000000" font-family="Arial" font-size="13" lengthAdjust="spacing" textLength="162.3477" x="660" y="122.6606">Customer order received</text><text fill="#000000" font-family="Arial" font-size="13" lengthAdjust="spacing" textLength="129.3843" x="676.4817" y="137.7935">(Phone / WhatsApp)</text></g><!--link OrderPlaced to OrderConfirmed--><g class="link" data-entity-1="ent0002" data-entity-2="ent0003" data-link-type="dependency" data-source-line="14" id="lnk4"><path d="M606.74,221.8637 C594.65,229.7638 583.01,239.6437 575,251.5938 C565.79,265.3338 562.9879,277.795 562.0879,292.445" fill="none" id="OrderPlaced-to-OrderConfirmed" style="stroke:#181818;stroke-width:1;"/><polygon fill="#181818" points="561.72,298.4337,566.2643,289.696,562.0266,293.4432,558.2794,289.2054,561.72,298.4337" style="stroke:#181818;stroke-width:1;"/><text fill="#000000" font-family="Arial" font-size="13" lengthAdjust="spacing" textLength="148.478" x="576" y="264.6606">Cashier confirms order</text></g><!--link OrderPlaced to Cancelled--><g class="link" data-entity-1="ent0002" data-entity-2="ent0013" data-link-type="dependency" data-source-line="15" id="lnk5"><path d="M698.82,221.6737 C709.88,229.9838 721.03,240.1237 729,251.5938 C747.85,278.7238 751,289.5538 751,322.5938 C751,322.5938 751,322.5938 751,997.5938 C751,1063.4138 675.4789,1096.6962 622.4589,1112.5362" fill="none" id="OrderPlaced-to-Cancelled" style="stroke:#181818;stroke-width:1;"/><polygon fill="#181818" points="616.71,1114.2538,626.4784,1115.5101,621.5008,1112.8225,624.1884,1107.8449,616.71,1114.2538" style="stroke:#181818;stroke-width:1;"/><text fill="#000000" font-family="Arial" font-size="13" lengthAdjust="spacing" textLength="103.2764" x="752" y="667.1606">Order cancelled</text></g><!--link OrderConfirmed to Preparing--><g class="link" data-entity-1="ent0003" data-entity-2="ent0004" data-link-type="dependency" data-source-line="17" id="lnk6"><path d="M530.39,348.8738 C500.85,371.5638 461.7583,401.5888 432.2583,424.2488" fill="none" id="OrderConfirmed-to-Preparing" style="stroke:#181818;stroke-width:1;"/><polygon fill="#181818" points="427.5,427.9037,437.0741,425.5934,431.4652,424.8579,432.2007,419.2491,427.5,427.9037" style="stroke:#181818;stroke-width:1;"/><text fill="#000000" font-family="Arial" font-size="13" lengthAdjust="spacing" textLength="170.1997" x="489" y="391.6606">Kitchen starts preparation</text></g><!--link Preparing to ReadyForPickup--><g class="link" data-entity-1="ent0004" data-entity-2="ent0005" data-link-type="dependency" data-source-line="19" id="lnk7"><path d="M351.82,455.3338 C306.66,458.8837 237.08,470.9838 193,510.5938 C155.65,544.1538 142.1743,598.1185 136.8543,631.4985" fill="none" id="Preparing-to-ReadyForPickup" style="stroke:#181818;stroke-width:1;"/><polygon fill="#181818" points="135.91,637.4238,141.2767,629.1655,136.697,632.4861,133.3764,627.9064,135.91,637.4238" style="stroke:#181818;stroke-width:1;"/><text fill="#000000" font-family="Arial" font-size="13" lengthAdjust="spacing" textLength="166.042" x="194" y="523.6606">Dine-in / Takeaway Order</text></g><!--link Preparing to ReadyForDelivery--><g class="link" data-entity-1="ent0004" data-entity-2="ent0006" data-link-type="dependency" data-source-line="20" id="lnk8"><path d="M387.05,478.3738 C378.69,501.0638 368.3446,529.1138 359.9946,551.7738" fill="none" id="Preparing-to-ReadyForDelivery" style="stroke:#181818;stroke-width:1;"/><polygon fill="#181818" points="357.92,557.4038,364.7852,550.3419,359.6488,552.7121,357.2786,547.5758,357.92,557.4038" style="stroke:#181818;stroke-width:1;"/><text fill="#000000" font-family="Arial" font-size="13" lengthAdjust="spacing" textLength="95.2656" x="374" y="523.6606">Delivery Order</text></g><!--link Preparing to Cancelled--><g class="link" data-entity-1="ent0004" data-entity-2="ent0013" data-link-type="dependency" data-source-line="21" id="lnk9"><path d="M440.04,473.8638 C506.05,504.1838 623,560.8338 623,581.5938 C623,581.5938 623,581.5938 623,997.5938 C623,1035.7337 606.1725,1070.8621 591.2325,1095.7021" fill="none" id="Preparing-to-Cancelled" style="stroke:#181818;stroke-width:1;"/><polygon fill="#181818" points="588.14,1100.8438,596.2065,1095.1929,590.717,1096.559,589.3509,1091.0696,588.14,1100.8438" style="stroke:#181818;stroke-width:1;"/><text fill="#000000" font-family="Arial" font-size="13" lengthAdjust="spacing" textLength="103.2764" x="624" y="810.6606">Order cancelled</text></g><!--link ReadyForPickup to PaymentCompleted--><g class="link" data-entity-1="ent0005" data-entity-2="ent0011" data-link-type="dependency" data-source-line="23" id="lnk10"><path d="M90.36,687.6938 C53.46,712.0538 6,753.4338 6,805.0938 C6,805.0938 6,805.0938 6,997.5938 C6,1040.4238 36.4689,1074.0489 64.4389,1097.0889" fill="none" id="ReadyForPickup-to-PaymentCompleted" style="stroke:#181818;stroke-width:1;"/><polygon fill="#181818" points="69.07,1100.9038,64.6666,1092.0941,65.2107,1097.7247,59.5801,1098.2689,69.07,1100.9038" style="stroke:#181818;stroke-width:1;"/><text fill="#000000" font-family="Arial" font-size="13" lengthAdjust="spacing" textLength="117.6729" x="7" y="874.1606">Payment received</text></g><!--link ReadyForDelivery to AssignedToRider--><g class="link" data-entity-1="ent0006" data-entity-2="ent0007" data-link-type="dependency" data-source-line="25" id="lnk11"><path d="M339.29,607.9338 C327.42,637.7138 309.6622,682.2404 297.8322,711.9104" fill="none" id="ReadyForDelivery-to-AssignedToRider" style="stroke:#181818;stroke-width:1;"/><polygon fill="#181818" points="295.61,717.4838,302.6588,710.6052,297.4618,712.8393,295.2277,707.6423,295.61,717.4838" style="stroke:#181818;stroke-width:1;"/><text fill="#000000" font-family="Arial" font-size="13" lengthAdjust="spacing" textLength="96.2368" x="328" y="667.1606">Rider assigned</text></g><!--link AssignedToRider to OutForDelivery--><g class="link" data-entity-1="ent0007" data-entity-2="ent0008" data-link-type="dependency" data-source-line="27" id="lnk12"><path d="M286.19,767.6938 C286.37,789.8338 286.5812,816.4539 286.7612,838.5639" fill="none" id="AssignedToRider-to-OutForDelivery" style="stroke:#181818;stroke-width:1;"/><polygon fill="#181818" points="286.81,844.5638,290.7366,835.5315,286.7693,839.5639,282.7369,835.5966,286.81,844.5638" style="stroke:#181818;stroke-width:1;"/><text fill="#000000" font-family="Arial" font-size="13" lengthAdjust="spacing" textLength="131.333" x="288" y="810.6606">Rider picks up order</text></g><!--link OutForDelivery to Delivered--><g class="link" data-entity-1="ent0008" data-entity-2="ent0009" data-link-type="dependency" data-source-line="29" id="lnk13"><path d="M223.81,874.7738 C187.13,880.5938 142.98,894.0138 116,924.5938 C104.81,937.2738 101.9305,950.3352 101.6005,965.5052" fill="none" id="OutForDelivery-to-Delivered" style="stroke:#181818;stroke-width:1;"/><polygon fill="#181818" points="101.47,971.5038,105.6648,962.5929,101.5787,966.5049,97.6667,962.4189,101.47,971.5038" style="stroke:#181818;stroke-width:1;"/><text fill="#000000" font-family="Arial" font-size="13" lengthAdjust="spacing" textLength="127.0674" x="117" y="937.6606">Delivery completed</text></g><!--link OutForDelivery to DeliveryFailed--><g class="link" data-entity-1="ent0008" data-entity-2="ent0010" data-link-type="dependency" data-source-line="30" id="lnk14"><path d="M279.61,894.7238 C276.58,909.7338 275.83,928.5738 286,941.5938 C319.83,984.9237 353.07,956.7438 406,971.5938 C411.53,973.1438 411.5106,973.0979 417.2406,974.8079" fill="none" id="OutForDelivery-to-DeliveryFailed" style="stroke:#181818;stroke-width:1;"/><polygon fill="#181818" points="422.99,976.5238,415.5097,970.1171,418.1988,975.0939,413.222,977.783,422.99,976.5238" style="stroke:#181818;stroke-width:1;"/><text fill="#000000" font-family="Arial" font-size="13" lengthAdjust="spacing" textLength="142.4351" x="287" y="937.6606">Customer unavailable</text></g><!--link DeliveryFailed to OutForDelivery--><g class="link" data-entity-1="ent0010" data-entity-2="ent0008" data-link-type="dependency" data-source-line="32" id="lnk15"><path d="M471.22,971.3038 C462.73,956.0438 449.98,936.9838 434,924.5938 C409.61,905.6938 383.6951,894.6641 356.0051,886.3241" fill="none" id="DeliveryFailed-to-OutForDelivery" style="stroke:#181818;stroke-width:1;"/><polygon fill="#181818" points="350.26,884.5938,357.724,891.0193,355.0476,886.0357,360.0312,883.3593,350.26,884.5938" style="stroke:#181818;stroke-width:1;"/><text fill="#000000" font-family="Arial" font-size="13" lengthAdjust="spacing" textLength="125.5376" x="451" y="937.6606">Reattempt delivery</text></g><!--link DeliveryFailed to Cancelled--><g class="link" data-entity-1="ent0010" data-entity-2="ent0013" data-link-type="dependency" data-source-line="33" id="lnk16"><path d="M473.35,1021.7738 C469.19,1036.2438 466.9,1054.5038 475,1068.5938 C486.36,1088.3638 502.1244,1099.4107 521.8344,1108.2407" fill="none" id="DeliveryFailed-to-Cancelled" style="stroke:#181818;stroke-width:1;"/><polygon fill="#181818" points="527.31,1110.6938,520.7319,1103.3637,522.747,1108.6495,517.4612,1110.6646,527.31,1110.6938" style="stroke:#181818;stroke-width:1;"/><text fill="#000000" font-family="Arial" font-size="13" lengthAdjust="spacing" textLength="120.0659" x="476" y="1064.6606">Delivery cancelled</text></g><!--link Delivered to PaymentCompleted--><g class="link" data-entity-1="ent0009" data-entity-2="ent0011" data-link-type="dependency" data-source-line="35" id="lnk17"><path d="M103,1021.8738 C103,1044.5638 103,1072.2438 103,1094.9038" fill="none" id="Delivered-to-PaymentCompleted" style="stroke:#181818;stroke-width:1;"/><polygon fill="#181818" points="103,1100.9038,107,1091.9038,103,1095.9038,99,1091.9038,103,1100.9038" style="stroke:#181818;stroke-width:1;"/><text fill="#000000" font-family="Arial" font-size="13" lengthAdjust="spacing" textLength="110.7158" x="104" y="1064.6606">Payment verified</text></g><!--link PaymentCompleted to Completed--><g class="link" data-entity-1="ent0011" data-entity-2="ent0012" data-link-type="dependency" data-source-line="37" id="lnk18"><path d="M161.48,1151.2238 C220.1,1175.4138 303.7134,1209.9157 358.3534,1232.4557" fill="none" id="PaymentCompleted-to-Completed" style="stroke:#181818;stroke-width:1;"/><polygon fill="#181818" points="363.9,1234.7438,357.1055,1227.6139,359.2778,1232.837,354.0547,1235.0094,363.9,1234.7438" style="stroke:#181818;stroke-width:1;"/><text fill="#000000" font-family="Arial" font-size="13" lengthAdjust="spacing" textLength="83.04" x="278" y="1196.6606">Order closed</text></g><!--link Completed to *end*--><g class="link" data-entity-1="ent0012" data-entity-2="ent0019" data-link-type="dependency" data-source-line="39" id="lnk20"><path d="M425.65,1281.0538 C436.81,1301.0738 449.0651,1323.035 456.9151,1337.095" fill="none" id="Completed-to-*end*" style="stroke:#181818;stroke-width:1;"/><polygon fill="#181818" points="459.84,1342.3338,458.9451,1332.5256,457.4026,1337.9681,451.9601,1336.4255,459.84,1342.3338" style="stroke:#181818;stroke-width:1;"/></g><!--link Cancelled to *end*--><g class="link" data-entity-1="ent0013" data-entity-2="ent0019" data-link-type="dependency" data-source-line="40" id="lnk21"><path d="M560.55,1151.1238 C537.15,1200.2138 487.3517,1304.7076 471.9317,1337.0576" fill="none" id="Cancelled-to-*end*" style="stroke:#181818;stroke-width:1;"/><polygon fill="#181818" points="469.35,1342.4738,476.8333,1336.0706,471.5014,1337.9603,469.6117,1332.6284,469.35,1342.4738" style="stroke:#181818;stroke-width:1;"/></g><?plantuml-src XLHBYzim4BxhLmXwQGkxRSZImXuAUMoWB6r3ij13juTPUMoBo9AHv2oczBztPCkFE9jjBf6-cMyUdsRifLV8b_TyXyv3PK5x_WqqP5WW7VUryrWywXysGSlt7ZoIMUHI8rzBo2mKZBc3r2NGaJ-1E6JML3fP6MKiVywbnv4zmHGgvJT6--zG85zO2MeSm3KP_Z1El-Kas9kxnMQ-lcjj9XGKyVdoqtesQ_0GEQApp_ERZpViBsE_tl_cLrTVUDF4Le70XD_oLUMyAQYh9XItA50UCNdKRxUveVO-y9yvUBSeotUCZQbzg9NHgRH56mrSBYcCQ37NHZtZhK0BLAgXj9gA3eb9Xg31VskHX94w8_zxwKMEEcXalUDbOm8lZMPiy0ki7K9IRupTId6eIgAkwRskfAQU7k20y0nrc_q2RusAfB1rO7R7b_nVxMPIHDCDr66gLgOe5Vg65g5U_e7NPmxCXNCoqvWyc9qCUMvv-myHPspgqRnIvK-xQKqbLUGurTI-4Pku1MQyD2Ns1j7L_GgZte1Kf_DLQJWI24yA6PkulLmbWgUjAptjImk-H1kBFvGuw3-qy1_foKccCb3Ed9ey8qfyP6LSS3_reorZGqqTmjgD7kt16Ec7FOBzUCNxwGnDmAxf24y6e4jp8cu4UsbExr7ThfQ9614-km-AQqDtAxFSSvEEUXajRfh6lKN7KsEIQ_PL7ocBeRUJOIOJ27e-0GdCQR6R2QKZLL9n-fOMxfgXJdX8DKqu5Q0VYZtQenGObyKnqBoVIAAJx-MWPoeifL9X_xkWjBXKf6Ek4WATIol5opXOe1EMeKRwI56xKXyD4Iwd6bwb7RCXeggxJI2ZDrp4rHfY_GC0?></g></svg>