<?xml version="1.0" encoding="us-ascii" standalone="no"?><svg xmlns="http://www.w3.org/2000/svg" xmlns:xlink="http://www.w3.org/1999/xlink" contentStyleType="text/css" height="758px" preserveAspectRatio="none" style="width:911px;height:758px;background:#FFFFFF;" version="1.1" viewBox="0 0 911 758" width="911px" zoomAndPan="magnify"><defs/><g><text fill="#000000" font-family="sans-serif" font-size="14" font-weight="bold" lengthAdjust="spacing" textLength="379" x="264.75" y="34.5332">Activity Diagram: UC-07 Receive Delivery Assignments</text><rect fill="none" height="22.6406" style="stroke:none;stroke-width:1.0;" width="878.5" x="15" y="51.0645"/><ellipse cx="243.75" cy="88.7051" fill="#222222" rx="10" ry="10" style="stroke:#222222;stroke-width:1.0;"/><rect fill="#F1F1F1" height="35.0938" rx="12.5" ry="12.5" style="stroke:#181818;stroke-width:0.5;" width="186" x="150.75" y="118.7051"/><text fill="#000000" font-family="sans-serif" font-size="12" lengthAdjust="spacing" textLength="166" x="160.75" y="141.1621">Identify a 'Ready' delivery order</text><rect fill="#F1F1F1" height="35.0938" rx="12.5" ry="12.5" style="stroke:#181818;stroke-width:0.5;" width="228" x="129.75" y="230.7178"/><text fill="#000000" font-family="sans-serif" font-size="12" lengthAdjust="spacing" textLength="208" x="139.75" y="253.1748">Assign order to nearest available rider</text><rect fill="#F1F1F1" height="35.0938" rx="12.5" ry="12.5" style="stroke:#181818;stroke-width:0.5;" width="212" x="48" y="439.999"/><text fill="#000000" font-family="sans-serif" font-size="12" lengthAdjust="spacing" textLength="192" x="58" y="462.4561">Update order status to 'Dispatched'</text><ellipse cx="154" cy="506.0928" fill="none" rx="11" ry="11" style="stroke:#222222;stroke-width:1.0;"/><ellipse cx="154" cy="506.0928" fill="#222222" rx="6" ry="6" style="stroke:#222222;stroke-width:1.0;"/><rect fill="#F1F1F1" height="35.0938" rx="12.5" ry="12.5" style="stroke:#181818;stroke-width:0.5;" width="107" x="280" y="439.999"/><text fill="#000000" font-family="sans-serif" font-size="12" lengthAdjust="spacing" textLength="87" x="290" y="462.4561">Re-queue order</text><polygon fill="#F1F1F1" points="192.75,173.7988,294.75,173.7988,306.75,185.7988,294.75,197.7988,192.75,197.7988,180.75,185.7988,192.75,173.7988" style="stroke:#181818;stroke-width:0.5;"/><text fill="#000000" font-family="sans-serif" font-size="11" lengthAdjust="spacing" textLength="26" x="247.75" y="209.2178">[Yes]</text><text fill="#000000" font-family="sans-serif" font-size="11" lengthAdjust="spacing" textLength="102" x="192.75" y="190.2998">Available Riders &gt; 0?</text><text fill="#000000" font-family="sans-serif" font-size="11" lengthAdjust="spacing" textLength="19" x="161.75" y="183.3818">[No]</text><rect fill="#F1F1F1" height="35.0938" rx="12.5" ry="12.5" style="stroke:#181818;stroke-width:0.5;" width="203" x="142.25" y="559.0928"/><text fill="#000000" font-family="sans-serif" font-size="12" lengthAdjust="spacing" textLength="183" x="152.25" y="581.5498">Display 'No Riders Available' alert</text><rect fill="#F1F1F1" height="35.0938" rx="12.5" ry="12.5" style="stroke:#181818;stroke-width:0.5;" width="213" x="137.25" y="614.1865"/><text fill="#000000" font-family="sans-serif" font-size="12" lengthAdjust="spacing" textLength="193" x="147.25" y="636.6436">Notify Kitchen to Pause Preparation</text><line style="stroke:#000000;stroke-width:1.5;" x1="15" x2="15" y1="51.0645" y2="746.374"/><rect fill="#F1F1F1" height="35.0938" rx="12.5" ry="12.5" style="stroke:#181818;stroke-width:0.5;" width="208" x="424.75" y="285.8115"/><text fill="#000000" font-family="sans-serif" font-size="12" lengthAdjust="spacing" textLength="188" x="434.75" y="308.2686">Receive notification on mobile app</text><polygon fill="#F1F1F1" points="479.25,340.9053,578.25,340.9053,590.25,352.9053,578.25,364.9053,479.25,364.9053,467.25,352.9053,479.25,340.9053" style="stroke:#181818;stroke-width:0.5;"/><text fill="#000000" font-family="sans-serif" font-size="11" lengthAdjust="spacing" textLength="99" x="479.25" y="357.4063">Accept assignment?</text><text fill="#000000" font-family="sans-serif" font-size="11" lengthAdjust="spacing" textLength="26" x="441.25" y="350.4883">[Yes]</text><text fill="#000000" font-family="sans-serif" font-size="11" lengthAdjust="spacing" textLength="19" x="590.25" y="350.4883">[No]</text><rect fill="#F1F1F1" height="35.0938" rx="12.5" ry="12.5" style="stroke:#181818;stroke-width:0.5;" width="84" x="397" y="384.9053"/><text fill="#000000" font-family="sans-serif" font-size="12" lengthAdjust="spacing" textLength="64" x="407" y="407.3623">Tap 'Accept'</text><rect fill="#F1F1F1" height="35.0938" rx="12.5" ry="12.5" style="stroke:#181818;stroke-width:0.5;" width="83" x="577" y="384.9053"/><text fill="#000000" font-family="sans-serif" font-size="12" lengthAdjust="spacing" textLength="63" x="587" y="407.3623">Tap 'Reject'</text><line style="stroke:#000000;stroke-width:1.5;" x1="391" x2="391" y1="51.0645" y2="746.374"/><rect fill="#F1F1F1" height="35.0938" rx="12.5" ry="12.5" style="stroke:#181818;stroke-width:0.5;" width="218" x="670" y="669.2803"/><text fill="#000000" font-family="sans-serif" font-size="12" lengthAdjust="spacing" textLength="198" x="680" y="691.7373">Manually delay order or call 3rd party</text><ellipse cx="779" cy="735.374" fill="none" rx="11" ry="11" style="stroke:#222222;stroke-width:1.0;"/><ellipse cx="779" cy="735.374" fill="#222222" rx="6" ry="6" style="stroke:#222222;stroke-width:1.0;"/><line style="stroke:#000000;stroke-width:1.5;" x1="664" x2="664" y1="51.0645" y2="746.374"/><line style="stroke:#000000;stroke-width:1.5;" x1="892" x2="892" y1="51.0645" y2="746.374"/><polygon fill="#181818" points="690,366.9873,694,356.9873,698,366.9873,694,362.9873" style="stroke:#181818;stroke-width:1.0;"/><line style="stroke:#181818;stroke-width:1.0;" x1="243.75" x2="243.75" y1="98.7051" y2="118.7051"/><polygon fill="#181818" points="239.75,108.7051,243.75,118.7051,247.75,108.7051,243.75,112.7051" style="stroke:#181818;stroke-width:1.0;"/><line style="stroke:#181818;stroke-width:1.0;" x1="154" x2="154" y1="475.0928" y2="495.0928"/><polygon fill="#181818" points="150,485.0928,154,495.0928,158,485.0928,154,489.0928" style="stroke:#181818;stroke-width:1.0;"/><line style="stroke:#181818;stroke-width:1.0;" x1="243.75" x2="243.75" y1="197.7988" y2="230.7178"/><polygon fill="#181818" points="239.75,220.7178,243.75,230.7178,247.75,220.7178,243.75,224.7178" style="stroke:#181818;stroke-width:1.0;"/><line style="stroke:#181818;stroke-width:1.0;" x1="180.75" x2="34" y1="185.7988" y2="185.7988"/><polygon fill="#181818" points="30,358.9873,34,368.9873,38,358.9873,34,362.9873" style="stroke:#181818;stroke-width:1.0;"/><line style="stroke:#181818;stroke-width:1.0;" x1="34" x2="34" y1="185.7988" y2="539.0928"/><line style="stroke:#181818;stroke-width:1.0;" x1="34" x2="243.75" y1="539.0928" y2="539.0928"/><line style="stroke:#181818;stroke-width:1.0;" x1="243.75" x2="243.75" y1="539.0928" y2="559.0928"/><polygon fill="#181818" points="239.75,549.0928,243.75,559.0928,247.75,549.0928,243.75,553.0928" style="stroke:#181818;stroke-width:1.0;"/><line style="stroke:#181818;stroke-width:1.0;" x1="243.75" x2="243.75" y1="153.7988" y2="173.7988"/><polygon fill="#181818" points="239.75,163.7988,243.75,173.7988,247.75,163.7988,243.75,167.7988" style="stroke:#181818;stroke-width:1.0;"/><line style="stroke:#181818;stroke-width:1.0;" x1="243.75" x2="243.75" y1="594.1865" y2="614.1865"/><polygon fill="#181818" points="239.75,604.1865,243.75,614.1865,247.75,604.1865,243.75,608.1865" style="stroke:#181818;stroke-width:1.0;"/><line style="stroke:#181818;stroke-width:1.0;" x1="467.25" x2="439" y1="352.9053" y2="352.9053"/><line style="stroke:#181818;stroke-width:1.0;" x1="439" x2="439" y1="352.9053" y2="384.9053"/><polygon fill="#181818" points="435,374.9053,439,384.9053,443,374.9053,439,378.9053" style="stroke:#181818;stroke-width:1.0;"/><line style="stroke:#181818;stroke-width:1.0;" x1="590.25" x2="618.5" y1="352.9053" y2="352.9053"/><line style="stroke:#181818;stroke-width:1.0;" x1="618.5" x2="618.5" y1="352.9053" y2="384.9053"/><polygon fill="#181818" points="614.5,374.9053,618.5,384.9053,622.5,374.9053,618.5,378.9053" style="stroke:#181818;stroke-width:1.0;"/><line style="stroke:#181818;stroke-width:1.0;" x1="528.75" x2="528.75" y1="320.9053" y2="340.9053"/><polygon fill="#181818" points="524.75,330.9053,528.75,340.9053,532.75,330.9053,528.75,334.9053" style="stroke:#181818;stroke-width:1.0;"/><line style="stroke:#181818;stroke-width:1.0;" x1="779" x2="779" y1="704.374" y2="724.374"/><polygon fill="#181818" points="775,714.374,779,724.374,783,714.374,779,718.374" style="stroke:#181818;stroke-width:1.0;"/><line style="stroke:#181818;stroke-width:1.0;" x1="243.75" x2="243.75" y1="265.8115" y2="270.8115"/><line style="stroke:#181818;stroke-width:1.0;" x1="243.75" x2="528.75" y1="270.8115" y2="270.8115"/><line style="stroke:#181818;stroke-width:1.0;" x1="528.75" x2="528.75" y1="270.8115" y2="285.8115"/><polygon fill="#181818" points="524.75,275.8115,528.75,285.8115,532.75,275.8115,528.75,279.8115" style="stroke:#181818;stroke-width:1.0;"/><line style="stroke:#181818;stroke-width:1.0;" x1="439" x2="439" y1="419.999" y2="424.999"/><line style="stroke:#181818;stroke-width:1.0;" x1="439" x2="154" y1="424.999" y2="424.999"/><line style="stroke:#181818;stroke-width:1.0;" x1="154" x2="154" y1="424.999" y2="439.999"/><polygon fill="#181818" points="150,429.999,154,439.999,158,429.999,154,433.999" style="stroke:#181818;stroke-width:1.0;"/><line style="stroke:#181818;stroke-width:1.0;" x1="618.5" x2="618.5" y1="419.999" y2="424.999"/><line style="stroke:#181818;stroke-width:1.0;" x1="618.5" x2="333.5" y1="424.999" y2="424.999"/><line style="stroke:#181818;stroke-width:1.0;" x1="333.5" x2="333.5" y1="424.999" y2="439.999"/><polygon fill="#181818" points="329.5,429.999,333.5,439.999,337.5,429.999,333.5,433.999" style="stroke:#181818;stroke-width:1.0;"/><line style="stroke:#181818;stroke-width:1.0;" x1="333.5" x2="333.5" y1="475.0928" y2="521.0928"/><line style="stroke:#181818;stroke-width:1.0;" x1="333.5" x2="694" y1="521.0928" y2="521.0928"/><line style="stroke:#181818;stroke-width:1.0;" x1="694" x2="694" y1="185.7988" y2="521.0928"/><line style="stroke:#181818;stroke-width:1.0;" x1="694" x2="306.75" y1="185.7988" y2="185.7988"/><polygon fill="#181818" points="316.75,181.7988,306.75,185.7988,316.75,189.7988,312.75,185.7988" style="stroke:#181818;stroke-width:1.0;"/><line style="stroke:#181818;stroke-width:1.0;" x1="243.75" x2="243.75" y1="649.2803" y2="654.2803"/><line style="stroke:#181818;stroke-width:1.0;" x1="243.75" x2="779" y1="654.2803" y2="654.2803"/><line style="stroke:#181818;stroke-width:1.0;" x1="779" x2="779" y1="654.2803" y2="669.2803"/><polygon fill="#181818" points="775,659.2803,779,669.2803,783,659.2803,779,663.2803" style="stroke:#181818;stroke-width:1.0;"/><text fill="#000000" font-family="sans-serif" font-size="18" lengthAdjust="spacing" textLength="59" x="173.5" y="69.75">System</text><text fill="#000000" font-family="sans-serif" font-size="18" lengthAdjust="spacing" textLength="43" x="506" y="69.75">Rider</text><text fill="#000000" font-family="sans-serif" font-size="18" lengthAdjust="spacing" textLength="71" x="742.5" y="69.75">Manager</text><!--SRC=[TP51Qy9048Nl-olc5Zq8GW-522rIBwLK9As78ZsCoQXJucwwEx44_F6TJKpqq5vsbntUcs_c2Kj9CC-5JomDB1Zt7eyfh9ycqtl8A2S-4IoerCitC0-1z_P8Le8nvxSc21tF9WXwCUbpeV-yQm0XoGYB9e6Y5pfVa9yPytDWxJUQdv1BtEepOoq4U83funWum6ZpGU5pR006Uu2qwzkvW3YmX9w200u-dji6057PchR2VWBhb8np57PgO-7ejX44gofgUAT8UKwLEWuJAeySoDuGtJghzpjMa7IoPDQLhyXQNrS52bsWTKTIXyYUB3XKAFc1YeiiYAlqGMNGrMoMxjzc6NrH_dUpZ2RVDTNKRrhjRC4xe-TbvvtnDRKqSfJOGB9qVGn3BWbWILvc9bswDjCNZiGs3h32Ma5NdYhqxK8rr_ChMjn7sbHVDPPb4yF7I_9wGgwVSESBK9aqgebZ_m80]--></g></svg>