<?xml version="1.0" encoding="us-ascii" standalone="no"?><svg xmlns="http://www.w3.org/2000/svg" xmlns:xlink="http://www.w3.org/1999/xlink" contentStyleType="text/css" height="959px" preserveAspectRatio="none" style="width:894px;height:959px;background:#FFFFFF;" version="1.1" viewBox="0 0 894 959" width="894px" zoomAndPan="magnify"><defs/><g><text fill="#000000" font-family="sans-serif" font-size="14" font-weight="bold" lengthAdjust="spacing" textLength="347" x="272" y="34.5332">Activity Diagram: UC-03 Modify and Cancel Orders</text><rect fill="none" height="22.6406" style="stroke:none;stroke-width:1.0;" width="861" x="15" y="51.0645"/><ellipse cx="268.75" cy="88.7051" fill="#222222" rx="10" ry="10" style="stroke:#222222;stroke-width:1.0;"/><rect fill="#F1F1F1" height="35.0938" rx="12.5" ry="12.5" style="stroke:#181818;stroke-width:0.5;" width="142" x="197.75" y="118.7051"/><text fill="#000000" font-family="sans-serif" font-size="12" lengthAdjust="spacing" textLength="122" x="207.75" y="141.1621">Search for active order</text><polygon fill="#F1F1F1" points="174.75,228.8926,362.75,228.8926,374.75,240.8926,362.75,252.8926,174.75,252.8926,162.75,240.8926,174.75,228.8926" style="stroke:#181818;stroke-width:0.5;"/><text fill="#000000" font-family="sans-serif" font-size="11" lengthAdjust="spacing" textLength="26" x="272.75" y="264.3115">[Yes]</text><text fill="#000000" font-family="sans-serif" font-size="11" lengthAdjust="spacing" textLength="188" x="174.75" y="245.3936">Order status is Dispatched/Completed?</text><text fill="#000000" font-family="sans-serif" font-size="11" lengthAdjust="spacing" textLength="19" x="374.75" y="238.4756">[No]</text><rect fill="#F1F1F1" height="35.0938" rx="12.5" ry="12.5" style="stroke:#181818;stroke-width:0.5;" width="155" x="191.25" y="404.8574"/><text fill="#000000" font-family="sans-serif" font-size="12" lengthAdjust="spacing" textLength="135" x="201.25" y="427.3145">Select 'Modify' or 'Cancel'</text><polygon fill="#F1F1F1" points="243.75,459.9512,293.75,459.9512,305.75,471.9512,293.75,483.9512,243.75,483.9512,231.75,471.9512,243.75,459.9512" style="stroke:#181818;stroke-width:0.5;"/><text fill="#000000" font-family="sans-serif" font-size="11" lengthAdjust="spacing" textLength="50" x="243.75" y="476.4521">Selection?</text><text fill="#000000" font-family="sans-serif" font-size="11" lengthAdjust="spacing" textLength="38" x="193.75" y="469.5342">[Modify]</text><text fill="#000000" font-family="sans-serif" font-size="11" lengthAdjust="spacing" textLength="39" x="305.75" y="469.5342">[Cancel]</text><rect fill="#F1F1F1" height="35.0938" rx="12.5" ry="12.5" style="stroke:#181818;stroke-width:0.5;" width="147" x="78.5" y="503.9512"/><text fill="#000000" font-family="sans-serif" font-size="12" lengthAdjust="spacing" textLength="127" x="88.5" y="526.4082">Make changes to items</text><rect fill="#F1F1F1" height="35.0938" rx="12.5" ry="12.5" style="stroke:#181818;stroke-width:0.5;" width="115" x="21" y="673.1387"/><text fill="#000000" font-family="sans-serif" font-size="12" lengthAdjust="spacing" textLength="95" x="31" y="695.5957">Collect difference</text><rect fill="#F1F1F1" height="35.0938" rx="12.5" ry="12.5" style="stroke:#181818;stroke-width:0.5;" width="117" x="167" y="673.1387"/><text fill="#000000" font-family="sans-serif" font-size="12" lengthAdjust="spacing" textLength="97" x="177" y="695.5957">Refund difference</text><rect fill="#F1F1F1" height="35.0938" rx="12.5" ry="12.5" style="stroke:#181818;stroke-width:0.5;" width="133" x="319" y="503.9512"/><text fill="#000000" font-family="sans-serif" font-size="12" lengthAdjust="spacing" textLength="113" x="329" y="526.4082">Confirm cancellation</text><rect fill="#F1F1F1" height="35.0938" rx="12.5" ry="12.5" style="stroke:#181818;stroke-width:0.5;" width="123" x="324" y="607.9629"/><text fill="#000000" font-family="sans-serif" font-size="12" lengthAdjust="spacing" textLength="103" x="334" y="630.4199">Process full refund</text><line style="stroke:#000000;stroke-width:1.5;" x1="15" x2="15" y1="51.0645" y2="947.1621"/><rect fill="#F1F1F1" height="35.0938" rx="12.5" ry="12.5" style="stroke:#181818;stroke-width:0.5;" width="133" x="600.75" y="173.7988"/><text fill="#000000" font-family="sans-serif" font-size="12" lengthAdjust="spacing" textLength="113" x="610.75" y="196.2559">Display order details</text><rect fill="#F1F1F1" height="35.0938" rx="12.5" ry="12.5" style="stroke:#181818;stroke-width:0.5;" width="118" x="608.25" y="277.8105"/><text fill="#000000" font-family="sans-serif" font-size="12" lengthAdjust="spacing" textLength="98" x="618.25" y="300.2676">Deny modification</text><ellipse cx="667.25" cy="351.8574" fill="none" rx="11" ry="11" style="stroke:#222222;stroke-width:1.0;"/><ellipse cx="667.25" cy="351.8574" fill="#222222" rx="6" ry="6" style="stroke:#222222;stroke-width:1.0;"/><rect fill="#F1F1F1" height="35.0938" rx="12.5" ry="12.5" style="stroke:#181818;stroke-width:0.5;" width="118" x="491.5" y="559.0449"/><text fill="#000000" font-family="sans-serif" font-size="12" lengthAdjust="spacing" textLength="98" x="501.5" y="581.502">Recalculate totals</text><polygon fill="#F1F1F1" points="499,629.1387,602,629.1387,614,641.1387,602,653.1387,499,653.1387,487,641.1387,499,629.1387" style="stroke:#181818;stroke-width:0.5;"/><text fill="#000000" font-family="sans-serif" font-size="11" lengthAdjust="spacing" textLength="103" x="499" y="645.6396">New total &gt; Old total?</text><text fill="#000000" font-family="sans-serif" font-size="11" lengthAdjust="spacing" textLength="26" x="461" y="638.7217">[Yes]</text><text fill="#000000" font-family="sans-serif" font-size="11" lengthAdjust="spacing" textLength="19" x="614" y="638.7217">[No]</text><polygon fill="#F1F1F1" points="550.5,718.2324,562.5,730.2324,550.5,742.2324,538.5,730.2324,550.5,718.2324" style="stroke:#181818;stroke-width:0.5;"/><rect fill="#F1F1F1" height="35.0938" rx="12.5" ry="12.5" style="stroke:#181818;stroke-width:0.5;" width="129" x="486" y="777.2324"/><text fill="#000000" font-family="sans-serif" font-size="12" lengthAdjust="spacing" textLength="109" x="496" y="799.6895">Update order status</text><rect fill="#F1F1F1" height="35.0938" rx="12.5" ry="12.5" style="stroke:#181818;stroke-width:0.5;" width="105" x="498" y="847.3262"/><text fill="#000000" font-family="sans-serif" font-size="12" lengthAdjust="spacing" textLength="85" x="508" y="869.7832">Log the change</text><ellipse cx="550.5" cy="920.1621" fill="none" rx="11" ry="11" style="stroke:#222222;stroke-width:1.0;"/><ellipse cx="550.5" cy="920.1621" fill="#222222" rx="6" ry="6" style="stroke:#222222;stroke-width:1.0;"/><polygon fill="#F1F1F1" points="755.5,559.0449,812.5,559.0449,824.5,571.0449,812.5,583.0449,755.5,583.0449,743.5,571.0449,755.5,559.0449" style="stroke:#181818;stroke-width:0.5;"/><text fill="#000000" font-family="sans-serif" font-size="11" lengthAdjust="spacing" textLength="26" x="788" y="594.4639">[Yes]</text><text fill="#000000" font-family="sans-serif" font-size="11" lengthAdjust="spacing" textLength="57" x="755.5" y="575.5459">Order Paid?</text><polygon fill="#F1F1F1" points="784,667.9746,796,679.9746,784,691.9746,772,679.9746,784,667.9746" style="stroke:#181818;stroke-width:0.5;"/><rect fill="#F1F1F1" height="35.0938" rx="12.5" ry="12.5" style="stroke:#181818;stroke-width:0.5;" width="129" x="719.5" y="726.9746"/><text fill="#000000" font-family="sans-serif" font-size="12" lengthAdjust="spacing" textLength="109" x="729.5" y="749.4316">Update order status</text><rect fill="#F1F1F1" height="35.0938" rx="12.5" ry="12.5" style="stroke:#181818;stroke-width:0.5;" width="105" x="731.5" y="797.0684"/><text fill="#000000" font-family="sans-serif" font-size="12" lengthAdjust="spacing" textLength="85" x="741.5" y="819.5254">Log the change</text><ellipse cx="784" cy="878.1621" fill="none" rx="11" ry="11" style="stroke:#222222;stroke-width:1.0;"/><ellipse cx="784" cy="878.1621" fill="#222222" rx="6" ry="6" style="stroke:#222222;stroke-width:1.0;"/><line style="stroke:#000000;stroke-width:1.5;" x1="456" x2="456" y1="51.0645" y2="947.1621"/><line style="stroke:#000000;stroke-width:1.5;" x1="874.5" x2="874.5" y1="51.0645" y2="947.1621"/><line style="stroke:#181818;stroke-width:1.0;" x1="268.75" x2="268.75" y1="98.7051" y2="118.7051"/><polygon fill="#181818" points="264.75,108.7051,268.75,118.7051,272.75,108.7051,268.75,112.7051" style="stroke:#181818;stroke-width:1.0;"/><line style="stroke:#181818;stroke-width:1.0;" x1="374.75" x2="386.75" y1="240.8926" y2="240.8926"/><polygon fill="#181818" points="382.75,310.8574,386.75,320.8574,390.75,310.8574,386.75,314.8574" style="stroke:#181818;stroke-width:1.0;"/><line style="stroke:#181818;stroke-width:1.0;" x1="386.75" x2="386.75" y1="240.8926" y2="384.8574"/><line style="stroke:#181818;stroke-width:1.0;" x1="386.75" x2="268.75" y1="384.8574" y2="384.8574"/><line style="stroke:#181818;stroke-width:1.0;" x1="268.75" x2="268.75" y1="384.8574" y2="404.8574"/><polygon fill="#181818" points="264.75,394.8574,268.75,404.8574,272.75,394.8574,268.75,398.8574" style="stroke:#181818;stroke-width:1.0;"/><line style="stroke:#181818;stroke-width:1.0;" x1="231.75" x2="152" y1="471.9512" y2="471.9512"/><line style="stroke:#181818;stroke-width:1.0;" x1="152" x2="152" y1="471.9512" y2="503.9512"/><polygon fill="#181818" points="148,493.9512,152,503.9512,156,493.9512,152,497.9512" style="stroke:#181818;stroke-width:1.0;"/><line style="stroke:#181818;stroke-width:1.0;" x1="305.75" x2="385.5" y1="471.9512" y2="471.9512"/><line style="stroke:#181818;stroke-width:1.0;" x1="385.5" x2="385.5" y1="471.9512" y2="503.9512"/><polygon fill="#181818" points="381.5,493.9512,385.5,503.9512,389.5,493.9512,385.5,497.9512" style="stroke:#181818;stroke-width:1.0;"/><line style="stroke:#181818;stroke-width:1.0;" x1="268.75" x2="268.75" y1="439.9512" y2="459.9512"/><polygon fill="#181818" points="264.75,449.9512,268.75,459.9512,272.75,449.9512,268.75,453.9512" style="stroke:#181818;stroke-width:1.0;"/><line style="stroke:#181818;stroke-width:1.0;" x1="667.25" x2="667.25" y1="312.9043" y2="340.8574"/><polygon fill="#181818" points="663.25,330.8574,667.25,340.8574,671.25,330.8574,667.25,334.8574" style="stroke:#181818;stroke-width:1.0;"/><line style="stroke:#181818;stroke-width:1.0;" x1="550.5" x2="550.5" y1="594.1387" y2="629.1387"/><polygon fill="#181818" points="546.5,619.1387,550.5,629.1387,554.5,619.1387,550.5,623.1387" style="stroke:#181818;stroke-width:1.0;"/><line style="stroke:#181818;stroke-width:1.0;" x1="550.5" x2="550.5" y1="742.2324" y2="777.2324"/><polygon fill="#181818" points="546.5,767.2324,550.5,777.2324,554.5,767.2324,550.5,771.2324" style="stroke:#181818;stroke-width:1.0;"/><line style="stroke:#181818;stroke-width:1.0;" x1="550.5" x2="550.5" y1="812.3262" y2="847.3262"/><polygon fill="#181818" points="546.5,837.3262,550.5,847.3262,554.5,837.3262,550.5,841.3262" style="stroke:#181818;stroke-width:1.0;"/><line style="stroke:#181818;stroke-width:1.0;" x1="550.5" x2="550.5" y1="882.4199" y2="909.1621"/><polygon fill="#181818" points="546.5,899.1621,550.5,909.1621,554.5,899.1621,550.5,903.1621" style="stroke:#181818;stroke-width:1.0;"/><line style="stroke:#181818;stroke-width:1.0;" x1="824.5" x2="855.5" y1="571.0449" y2="571.0449"/><polygon fill="#181818" points="851.5,615.5098,855.5,625.5098,859.5,615.5098,855.5,619.5098" style="stroke:#181818;stroke-width:1.0;"/><line style="stroke:#181818;stroke-width:1.0;" x1="855.5" x2="855.5" y1="571.0449" y2="679.9746"/><line style="stroke:#181818;stroke-width:1.0;" x1="855.5" x2="796" y1="679.9746" y2="679.9746"/><polygon fill="#181818" points="806,675.9746,796,679.9746,806,683.9746,802,679.9746" style="stroke:#181818;stroke-width:1.0;"/><line style="stroke:#181818;stroke-width:1.0;" x1="784" x2="784" y1="691.9746" y2="726.9746"/><polygon fill="#181818" points="780,716.9746,784,726.9746,788,716.9746,784,720.9746" style="stroke:#181818;stroke-width:1.0;"/><line style="stroke:#181818;stroke-width:1.0;" x1="784" x2="784" y1="762.0684" y2="797.0684"/><polygon fill="#181818" points="780,787.0684,784,797.0684,788,787.0684,784,791.0684" style="stroke:#181818;stroke-width:1.0;"/><line style="stroke:#181818;stroke-width:1.0;" x1="784" x2="784" y1="832.1621" y2="867.1621"/><polygon fill="#181818" points="780,857.1621,784,867.1621,788,857.1621,784,861.1621" style="stroke:#181818;stroke-width:1.0;"/><line style="stroke:#181818;stroke-width:1.0;" x1="268.75" x2="268.75" y1="153.7988" y2="158.7988"/><line style="stroke:#181818;stroke-width:1.0;" x1="268.75" x2="667.25" y1="158.7988" y2="158.7988"/><line style="stroke:#181818;stroke-width:1.0;" x1="667.25" x2="667.25" y1="158.7988" y2="173.7988"/><polygon fill="#181818" points="663.25,163.7988,667.25,173.7988,671.25,163.7988,667.25,167.7988" style="stroke:#181818;stroke-width:1.0;"/><line style="stroke:#181818;stroke-width:1.0;" x1="268.75" x2="268.75" y1="252.8926" y2="265.3516"/><line style="stroke:#181818;stroke-width:1.0;" x1="268.75" x2="667.25" y1="265.3516" y2="265.3516"/><line style="stroke:#181818;stroke-width:1.0;" x1="667.25" x2="667.25" y1="265.3516" y2="277.8105"/><polygon fill="#181818" points="663.25,267.8105,667.25,277.8105,671.25,267.8105,667.25,271.8105" style="stroke:#181818;stroke-width:1.0;"/><line style="stroke:#181818;stroke-width:1.0;" x1="667.25" x2="667.25" y1="208.8926" y2="213.8926"/><line style="stroke:#181818;stroke-width:1.0;" x1="667.25" x2="268.75" y1="213.8926" y2="213.8926"/><line style="stroke:#181818;stroke-width:1.0;" x1="268.75" x2="268.75" y1="213.8926" y2="228.8926"/><polygon fill="#181818" points="264.75,218.8926,268.75,228.8926,272.75,218.8926,268.75,222.8926" style="stroke:#181818;stroke-width:1.0;"/><line style="stroke:#181818;stroke-width:1.0;" x1="152" x2="152" y1="539.0449" y2="544.0449"/><line style="stroke:#181818;stroke-width:1.0;" x1="152" x2="550.5" y1="544.0449" y2="544.0449"/><line style="stroke:#181818;stroke-width:1.0;" x1="550.5" x2="550.5" y1="544.0449" y2="559.0449"/><polygon fill="#181818" points="546.5,549.0449,550.5,559.0449,554.5,549.0449,550.5,553.0449" style="stroke:#181818;stroke-width:1.0;"/><line style="stroke:#181818;stroke-width:1.0;" x1="487" x2="78.5" y1="641.1387" y2="641.1387"/><line style="stroke:#181818;stroke-width:1.0;" x1="78.5" x2="78.5" y1="641.1387" y2="673.1387"/><polygon fill="#181818" points="74.5,663.1387,78.5,673.1387,82.5,663.1387,78.5,667.1387" style="stroke:#181818;stroke-width:1.0;"/><line style="stroke:#181818;stroke-width:1.0;" x1="614" x2="626" y1="641.1387" y2="641.1387"/><line style="stroke:#181818;stroke-width:1.0;" x1="626" x2="626" y1="641.1387" y2="659.1387"/><line style="stroke:#181818;stroke-width:1.0;" x1="626" x2="225.5" y1="659.1387" y2="659.1387"/><line style="stroke:#181818;stroke-width:1.0;" x1="225.5" x2="225.5" y1="659.1387" y2="673.1387"/><polygon fill="#181818" points="221.5,663.1387,225.5,673.1387,229.5,663.1387,225.5,667.1387" style="stroke:#181818;stroke-width:1.0;"/><line style="stroke:#181818;stroke-width:1.0;" x1="78.5" x2="78.5" y1="708.2324" y2="730.2324"/><line style="stroke:#181818;stroke-width:1.0;" x1="78.5" x2="538.5" y1="730.2324" y2="730.2324"/><polygon fill="#181818" points="528.5,726.2324,538.5,730.2324,528.5,734.2324,532.5,730.2324" style="stroke:#181818;stroke-width:1.0;"/><line style="stroke:#181818;stroke-width:1.0;" x1="225.5" x2="225.5" y1="708.2324" y2="712.2324"/><line style="stroke:#181818;stroke-width:1.0;" x1="225.5" x2="580.5" y1="712.2324" y2="712.2324"/><line style="stroke:#181818;stroke-width:1.0;" x1="580.5" x2="580.5" y1="712.2324" y2="730.2324"/><line style="stroke:#181818;stroke-width:1.0;" x1="580.5" x2="562.5" y1="730.2324" y2="730.2324"/><polygon fill="#181818" points="572.5,726.2324,562.5,730.2324,572.5,734.2324,568.5,730.2324" style="stroke:#181818;stroke-width:1.0;"/><line style="stroke:#181818;stroke-width:1.0;" x1="784" x2="784" y1="583.0449" y2="595.5039"/><line style="stroke:#181818;stroke-width:1.0;" x1="784" x2="385.5" y1="595.5039" y2="595.5039"/><line style="stroke:#181818;stroke-width:1.0;" x1="385.5" x2="385.5" y1="595.5039" y2="607.9629"/><polygon fill="#181818" points="381.5,597.9629,385.5,607.9629,389.5,597.9629,385.5,601.9629" style="stroke:#181818;stroke-width:1.0;"/><line style="stroke:#181818;stroke-width:1.0;" x1="385.5" x2="385.5" y1="643.0566" y2="655.5156"/><line style="stroke:#181818;stroke-width:1.0;" x1="385.5" x2="784" y1="655.5156" y2="655.5156"/><line style="stroke:#181818;stroke-width:1.0;" x1="784" x2="784" y1="655.5156" y2="667.9746"/><polygon fill="#181818" points="780,657.9746,784,667.9746,788,657.9746,784,661.9746" style="stroke:#181818;stroke-width:1.0;"/><line style="stroke:#181818;stroke-width:1.0;" x1="385.5" x2="385.5" y1="539.0449" y2="544.0449"/><line style="stroke:#181818;stroke-width:1.0;" x1="385.5" x2="784" y1="544.0449" y2="544.0449"/><line style="stroke:#181818;stroke-width:1.0;" x1="784" x2="784" y1="544.0449" y2="559.0449"/><polygon fill="#181818" points="780,549.0449,784,559.0449,788,549.0449,784,553.0449" style="stroke:#181818;stroke-width:1.0;"/><text fill="#000000" font-family="sans-serif" font-size="18" lengthAdjust="spacing" textLength="62" x="204.5" y="69.75">Cashier</text><text fill="#000000" font-family="sans-serif" font-size="18" lengthAdjust="spacing" textLength="59" x="635.75" y="69.75">System</text><!--SRC=[fP8nJyCm48Nt_8gtbGu89BP40g5qf81QTK28uMHV6WidhkmhA59_F7QCIYWCI6on_UxTz-uYHYpZLebvCp9WOMZhgIkngSylhx1qsZG3gDUegLTiyU0r-r0KXvf2QzWVYY3afIZNJ5wrQ9m79JU6Iz8gIjT34EuEHRamOMTfo2_GB6HigAPcfi7Ps0BHLlO19Y1LaQYMzKNjkfrbONqpXxJSu-pvYSFBl02ENO1omVs0Bh4RHM9SNyNR86vNi0qSY-vThE4-2gRDOmRBIZ3BiMUH4xESUrQDQ5aG3R_wP-s8K2xfbQ5QwhSS80uc0eNg16x5YgpQMnAE6Y4xAfBxFR_d6rpZmUhy_JDfj3iYfrDPEpjoHv26FKVUv3YD-alHYfjzNEj9pJYIxxoRdKweRhAL92tlt3QHVUOzdN0UMzxCf75axHlZEwZntHwtC-duzGyyaj5_oF_edU8GqEojXHzpVOR1lzEaWNm0]--></g></svg>