<?xml version="1.0" encoding="us-ascii" standalone="no"?><svg xmlns="http://www.w3.org/2000/svg" xmlns:xlink="http://www.w3.org/1999/xlink" contentStyleType="text/css" height="1098px" preserveAspectRatio="none" style="width:711px;height:1098px;background:#FFFFFF;" version="1.1" viewBox="0 0 711 1098" width="711px" zoomAndPan="magnify"><defs/><g><text fill="#000000" font-family="sans-serif" font-size="14" font-weight="bold" lengthAdjust="spacing" textLength="337" x="185.75" y="34.5332">Activity Diagram: UC-02 Create Customer Orders</text><rect fill="none" height="22.6406" style="stroke:none;stroke-width:1.0;" width="678.5" x="15" y="51.0645"/><ellipse cx="165" cy="88.7051" fill="#222222" rx="10" ry="10" style="stroke:#222222;stroke-width:1.0;"/><rect fill="#F1F1F1" height="35.0938" rx="12.5" ry="12.5" style="stroke:#181818;stroke-width:0.5;" width="114" x="108" y="118.7051"/><text fill="#000000" font-family="sans-serif" font-size="12" lengthAdjust="spacing" textLength="94" x="118" y="141.1621">Initiate new order</text><rect fill="#F1F1F1" height="35.0938" rx="12.5" ry="12.5" style="stroke:#181818;stroke-width:0.5;" width="272" x="29" y="173.7988"/><text fill="#000000" font-family="sans-serif" font-size="12" lengthAdjust="spacing" textLength="252" x="39" y="196.2559">Select order type (Dine-in, Takeaway, Delivery)</text><rect fill="#F1F1F1" height="35.0938" rx="12.5" ry="12.5" style="stroke:#181818;stroke-width:0.5;" width="110" x="110" y="228.8926"/><text fill="#000000" font-family="sans-serif" font-size="12" lengthAdjust="spacing" textLength="90" x="120" y="251.3496">Add menu items</text><rect fill="#F1F1F1" height="35.0938" rx="12.5" ry="12.5" style="stroke:#181818;stroke-width:0.5;" width="192" x="69" y="402.998"/><text fill="#000000" font-family="sans-serif" font-size="12" lengthAdjust="spacing" textLength="172" x="79" y="425.4551">Inform customer &amp; remove item</text><rect fill="#F1F1F1" height="35.0938" rx="12.5" ry="12.5" style="stroke:#181818;stroke-width:0.5;" width="200" x="65" y="601.1855"/><text fill="#000000" font-family="sans-serif" font-size="12" lengthAdjust="spacing" textLength="180" x="75" y="623.6426">Request payment from customer</text><polygon fill="#F1F1F1" points="102,656.2793,228,656.2793,240,668.2793,228,680.2793,102,680.2793,90,668.2793,102,656.2793" style="stroke:#181818;stroke-width:0.5;"/><text fill="#000000" font-family="sans-serif" font-size="11" lengthAdjust="spacing" textLength="126" x="102" y="672.7803">Customer refuses to pay?</text><text fill="#000000" font-family="sans-serif" font-size="11" lengthAdjust="spacing" textLength="26" x="64" y="665.8623">[Yes]</text><text fill="#000000" font-family="sans-serif" font-size="11" lengthAdjust="spacing" textLength="19" x="240" y="665.8623">[No]</text><rect fill="#F1F1F1" height="35.0938" rx="12.5" ry="12.5" style="stroke:#181818;stroke-width:0.5;" width="118" x="21" y="690.2793"/><text fill="#000000" font-family="sans-serif" font-size="12" lengthAdjust="spacing" textLength="98" x="31" y="712.7363">Cancel order draft</text><ellipse cx="80" cy="756.373" fill="none" rx="11" ry="11" style="stroke:#222222;stroke-width:1.0;"/><ellipse cx="80" cy="756.373" fill="#222222" rx="6" ry="6" style="stroke:#222222;stroke-width:1.0;"/><rect fill="#F1F1F1" height="35.0938" rx="12.5" ry="12.5" style="stroke:#181818;stroke-width:0.5;" width="116" x="192" y="690.2793"/><text fill="#000000" font-family="sans-serif" font-size="12" lengthAdjust="spacing" textLength="96" x="202" y="712.7363">Process payment</text><polygon fill="#F1F1F1" points="165,557.1855,177,569.1855,165,581.1855,153,569.1855,165,557.1855" style="stroke:#181818;stroke-width:0.5;"/><rect fill="#F1F1F1" height="35.0938" rx="12.5" ry="12.5" style="stroke:#181818;stroke-width:0.5;" width="169" x="80.5" y="1009.5732"/><text fill="#000000" font-family="sans-serif" font-size="12" lengthAdjust="spacing" textLength="149" x="90.5" y="1032.0303">Provide receipt to customer</text><ellipse cx="165" cy="1075.667" fill="none" rx="11" ry="11" style="stroke:#222222;stroke-width:1.0;"/><ellipse cx="165" cy="1075.667" fill="#222222" rx="6" ry="6" style="stroke:#222222;stroke-width:1.0;"/><line style="stroke:#000000;stroke-width:1.5;" x1="15" x2="15" y1="51.0645" y2="1086.667"/><rect fill="#F1F1F1" height="35.0938" rx="12.5" ry="12.5" style="stroke:#181818;stroke-width:0.5;" width="153" x="325" y="332.9043"/><text fill="#000000" font-family="sans-serif" font-size="12" lengthAdjust="spacing" textLength="133" x="335" y="355.3613">Display out of stock alert</text><polygon fill="#F1F1F1" points="359,283.9863,444,283.9863,456,295.9863,444,307.9863,359,307.9863,347,295.9863,359,283.9863" style="stroke:#181818;stroke-width:0.5;"/><text fill="#000000" font-family="sans-serif" font-size="11" lengthAdjust="spacing" textLength="26" x="405.5" y="319.4053">[Yes]</text><text fill="#000000" font-family="sans-serif" font-size="11" lengthAdjust="spacing" textLength="85" x="359" y="300.4873">Item out of stock?</text><text fill="#000000" font-family="sans-serif" font-size="11" lengthAdjust="spacing" textLength="19" x="456" y="293.5693">[No]</text><polygon fill="#F1F1F1" points="401.5,458.0918,413.5,470.0918,401.5,482.0918,389.5,470.0918,401.5,458.0918" style="stroke:#181818;stroke-width:0.5;"/><rect fill="#F1F1F1" height="35.0938" rx="12.5" ry="12.5" style="stroke:#181818;stroke-width:0.5;" width="98" x="352.5" y="502.0918"/><text fill="#000000" font-family="sans-serif" font-size="12" lengthAdjust="spacing" textLength="78" x="362.5" y="524.5488">Calculate total</text><polygon fill="#F1F1F1" points="349,787.373,454,787.373,466,799.373,454,811.373,349,811.373,337,799.373,349,787.373" style="stroke:#181818;stroke-width:0.5;"/><text fill="#000000" font-family="sans-serif" font-size="11" lengthAdjust="spacing" textLength="26" x="405.5" y="822.792">[Yes]</text><text fill="#000000" font-family="sans-serif" font-size="11" lengthAdjust="spacing" textLength="105" x="349" y="803.874">Payment Successful?</text><text fill="#000000" font-family="sans-serif" font-size="11" lengthAdjust="spacing" textLength="19" x="466" y="796.9561">[No]</text><rect fill="#F1F1F1" height="35.0938" rx="12.5" ry="12.5" style="stroke:#181818;stroke-width:0.5;" width="149" x="327" y="844.292"/><text fill="#000000" font-family="sans-serif" font-size="12" lengthAdjust="spacing" textLength="129" x="337" y="866.749">Save order to Database</text><rect fill="#F1F1F1" height="35.0938" rx="12.5" ry="12.5" style="stroke:#181818;stroke-width:0.5;" width="167" x="318" y="899.3857"/><text fill="#000000" font-family="sans-serif" font-size="12" lengthAdjust="spacing" textLength="147" x="328" y="921.8428">Update inventory allocation</text><line style="stroke:#000000;stroke-width:1.5;" x1="312" x2="312" y1="51.0645" y2="1086.667"/><rect fill="#F1F1F1" height="35.0938" rx="12.5" ry="12.5" style="stroke:#181818;stroke-width:0.5;" width="164" x="524" y="954.4795"/><text fill="#000000" font-family="sans-serif" font-size="12" lengthAdjust="spacing" textLength="144" x="534" y="976.9365">Display new order on KDS</text><line style="stroke:#000000;stroke-width:1.5;" x1="518" x2="518" y1="51.0645" y2="1086.667"/><line style="stroke:#000000;stroke-width:1.5;" x1="692" x2="692" y1="51.0645" y2="1086.667"/><line style="stroke:#181818;stroke-width:1.0;" x1="165" x2="165" y1="98.7051" y2="118.7051"/><polygon fill="#181818" points="161,108.7051,165,118.7051,169,108.7051,165,112.7051" style="stroke:#181818;stroke-width:1.0;"/><line style="stroke:#181818;stroke-width:1.0;" x1="165" x2="165" y1="153.7988" y2="173.7988"/><polygon fill="#181818" points="161,163.7988,165,173.7988,169,163.7988,165,167.7988" style="stroke:#181818;stroke-width:1.0;"/><line style="stroke:#181818;stroke-width:1.0;" x1="165" x2="165" y1="208.8926" y2="228.8926"/><polygon fill="#181818" points="161,218.8926,165,228.8926,169,218.8926,165,222.8926" style="stroke:#181818;stroke-width:1.0;"/><line style="stroke:#181818;stroke-width:1.0;" x1="80" x2="80" y1="725.373" y2="745.373"/><polygon fill="#181818" points="76,735.373,80,745.373,84,735.373,80,739.373" style="stroke:#181818;stroke-width:1.0;"/><line style="stroke:#181818;stroke-width:1.0;" x1="90" x2="80" y1="668.2793" y2="668.2793"/><line style="stroke:#181818;stroke-width:1.0;" x1="80" x2="80" y1="668.2793" y2="690.2793"/><polygon fill="#181818" points="76,680.2793,80,690.2793,84,680.2793,80,684.2793" style="stroke:#181818;stroke-width:1.0;"/><line style="stroke:#181818;stroke-width:1.0;" x1="240" x2="250" y1="668.2793" y2="668.2793"/><line style="stroke:#181818;stroke-width:1.0;" x1="250" x2="250" y1="668.2793" y2="690.2793"/><polygon fill="#181818" points="246,680.2793,250,690.2793,254,680.2793,250,684.2793" style="stroke:#181818;stroke-width:1.0;"/><line style="stroke:#181818;stroke-width:1.0;" x1="250" x2="250" y1="725.373" y2="772.373"/><line style="stroke:#181818;stroke-width:1.0;" x1="250" x2="401.5" y1="772.373" y2="772.373"/><line style="stroke:#181818;stroke-width:1.0;" x1="401.5" x2="401.5" y1="772.373" y2="787.373"/><polygon fill="#181818" points="397.5,777.373,401.5,787.373,405.5,777.373,401.5,781.373" style="stroke:#181818;stroke-width:1.0;"/><line style="stroke:#181818;stroke-width:1.0;" x1="165" x2="165" y1="636.2793" y2="656.2793"/><polygon fill="#181818" points="161,646.2793,165,656.2793,169,646.2793,165,650.2793" style="stroke:#181818;stroke-width:1.0;"/><line style="stroke:#181818;stroke-width:1.0;" x1="165" x2="165" y1="581.1855" y2="601.1855"/><polygon fill="#181818" points="161,591.1855,165,601.1855,169,591.1855,165,595.1855" style="stroke:#181818;stroke-width:1.0;"/><line style="stroke:#181818;stroke-width:1.0;" x1="165" x2="165" y1="1044.667" y2="1064.667"/><polygon fill="#181818" points="161,1054.667,165,1064.667,169,1054.667,165,1058.667" style="stroke:#181818;stroke-width:1.0;"/><line style="stroke:#181818;stroke-width:1.0;" x1="401.5" x2="401.5" y1="307.9863" y2="332.9043"/><polygon fill="#181818" points="397.5,322.9043,401.5,332.9043,405.5,322.9043,401.5,326.9043" style="stroke:#181818;stroke-width:1.0;"/><line style="stroke:#181818;stroke-width:1.0;" x1="456" x2="499" y1="295.9863" y2="295.9863"/><polygon fill="#181818" points="495,375.498,499,385.498,503,375.498,499,379.498" style="stroke:#181818;stroke-width:1.0;"/><line style="stroke:#181818;stroke-width:1.0;" x1="499" x2="499" y1="295.9863" y2="470.0918"/><line style="stroke:#181818;stroke-width:1.0;" x1="499" x2="413.5" y1="470.0918" y2="470.0918"/><polygon fill="#181818" points="423.5,466.0918,413.5,470.0918,423.5,474.0918,419.5,470.0918" style="stroke:#181818;stroke-width:1.0;"/><line style="stroke:#181818;stroke-width:1.0;" x1="401.5" x2="401.5" y1="482.0918" y2="502.0918"/><polygon fill="#181818" points="397.5,492.0918,401.5,502.0918,405.5,492.0918,401.5,496.0918" style="stroke:#181818;stroke-width:1.0;"/><line style="stroke:#181818;stroke-width:1.0;" x1="401.5" x2="401.5" y1="811.373" y2="844.292"/><polygon fill="#181818" points="397.5,834.292,401.5,844.292,405.5,834.292,401.5,838.292" style="stroke:#181818;stroke-width:1.0;"/><line style="stroke:#181818;stroke-width:1.0;" x1="401.5" x2="401.5" y1="879.3857" y2="899.3857"/><polygon fill="#181818" points="397.5,889.3857,401.5,899.3857,405.5,889.3857,401.5,893.3857" style="stroke:#181818;stroke-width:1.0;"/><line style="stroke:#181818;stroke-width:1.0;" x1="401.5" x2="401.5" y1="367.998" y2="385.498"/><line style="stroke:#181818;stroke-width:1.0;" x1="401.5" x2="165" y1="385.498" y2="385.498"/><line style="stroke:#181818;stroke-width:1.0;" x1="165" x2="165" y1="385.498" y2="402.998"/><polygon fill="#181818" points="161,392.998,165,402.998,169,392.998,165,396.998" style="stroke:#181818;stroke-width:1.0;"/><line style="stroke:#181818;stroke-width:1.0;" x1="165" x2="165" y1="438.0918" y2="445.6328"/><line style="stroke:#181818;stroke-width:1.0;" x1="165" x2="401.5" y1="445.6328" y2="445.6328"/><line style="stroke:#181818;stroke-width:1.0;" x1="401.5" x2="401.5" y1="445.6328" y2="458.0918"/><polygon fill="#181818" points="397.5,448.0918,401.5,458.0918,405.5,448.0918,401.5,452.0918" style="stroke:#181818;stroke-width:1.0;"/><line style="stroke:#181818;stroke-width:1.0;" x1="165" x2="165" y1="263.9863" y2="268.9863"/><line style="stroke:#181818;stroke-width:1.0;" x1="165" x2="401.5" y1="268.9863" y2="268.9863"/><line style="stroke:#181818;stroke-width:1.0;" x1="401.5" x2="401.5" y1="268.9863" y2="283.9863"/><polygon fill="#181818" points="397.5,273.9863,401.5,283.9863,405.5,273.9863,401.5,277.9863" style="stroke:#181818;stroke-width:1.0;"/><line style="stroke:#181818;stroke-width:1.0;" x1="466" x2="558.5" y1="799.373" y2="799.373"/><polygon fill="#181818" points="554.5,697.2793,558.5,687.2793,562.5,697.2793,558.5,693.2793" style="stroke:#181818;stroke-width:1.0;"/><line style="stroke:#181818;stroke-width:1.0;" x1="558.5" x2="558.5" y1="569.1855" y2="799.373"/><line style="stroke:#181818;stroke-width:1.0;" x1="558.5" x2="177" y1="569.1855" y2="569.1855"/><polygon fill="#181818" points="187,565.1855,177,569.1855,187,573.1855,183,569.1855" style="stroke:#181818;stroke-width:1.0;"/><line style="stroke:#181818;stroke-width:1.0;" x1="401.5" x2="401.5" y1="537.1855" y2="542.1855"/><line style="stroke:#181818;stroke-width:1.0;" x1="401.5" x2="165" y1="542.1855" y2="542.1855"/><line style="stroke:#181818;stroke-width:1.0;" x1="165" x2="165" y1="542.1855" y2="557.1855"/><polygon fill="#181818" points="161,547.1855,165,557.1855,169,547.1855,165,551.1855" style="stroke:#181818;stroke-width:1.0;"/><line style="stroke:#181818;stroke-width:1.0;" x1="401.5" x2="401.5" y1="934.4795" y2="939.4795"/><line style="stroke:#181818;stroke-width:1.0;" x1="401.5" x2="606" y1="939.4795" y2="939.4795"/><line style="stroke:#181818;stroke-width:1.0;" x1="606" x2="606" y1="939.4795" y2="954.4795"/><polygon fill="#181818" points="602,944.4795,606,954.4795,610,944.4795,606,948.4795" style="stroke:#181818;stroke-width:1.0;"/><line style="stroke:#181818;stroke-width:1.0;" x1="606" x2="606" y1="989.5732" y2="994.5732"/><line style="stroke:#181818;stroke-width:1.0;" x1="606" x2="165" y1="994.5732" y2="994.5732"/><line style="stroke:#181818;stroke-width:1.0;" x1="165" x2="165" y1="994.5732" y2="1009.5732"/><polygon fill="#181818" points="161,999.5732,165,1009.5732,169,999.5732,165,1003.5732" style="stroke:#181818;stroke-width:1.0;"/><text fill="#000000" font-family="sans-serif" font-size="18" lengthAdjust="spacing" textLength="62" x="132.5" y="69.75">Cashier</text><text fill="#000000" font-family="sans-serif" font-size="18" lengthAdjust="spacing" textLength="59" x="385.5" y="69.75">System</text><text fill="#000000" font-family="sans-serif" font-size="18" lengthAdjust="spacing" textLength="60" x="575" y="69.75">Kitchen</text><!--SRC=[RLBDYjmm3BxxANGgCx0BfSVaK9RaCYoqIzCzbAK7rL4wOXqxjPKCWNduocaoCzls9cFf-vE4nH4yME69POQQyMV4le3dwlxz1wWYeH1KOvBGKuJFiQMOZ3bNc8vCyMoIO1HJ73mBvrPF9mYvgpH5Guwi_7c2p0F1hcPFz-plu2k-4fvmleEQ74yKvxrEFBGjzEH7OA4-bKhKp4dBi-4ETWUj88oAs84AigyVzo17yh1x-KRf-zu053MdmU7yfWtGKPHIlw-wjVNWkn1xi9kvTn2f3nCjvAKXbrJmowUWmEHRxcxK51KwExfiM8AWozX_mKSQD3ijbEaB_Hef2Gmugpk1BeOhRxdqP7-Nc2DrOwAas7daNvSBQ8NUablJRIDsKgvVYZ8ivQs5TUef1aifRLAsaOkpPMnnkrc0qv7rH7PFg_Xcj1cX6vqAuxJYWmzoez2yWImQr5ZNEmXGe-0FJ9J9Y-UXpJ6odnGyn5cNvO95uU2tL1zPh0PmljtlvSuWU7Yic_zi87kTk2NrOOa7oTJNq7D8lm40]--></g></svg>