<?xml version="1.0" encoding="us-ascii" standalone="no"?><svg xmlns="http://www.w3.org/2000/svg" xmlns:xlink="http://www.w3.org/1999/xlink" contentStyleType="text/css" height="857px" preserveAspectRatio="none" style="width:1289px;height:857px;background:#FFFFFF;" version="1.1" viewBox="0 0 1289 857" width="1289px" zoomAndPan="magnify"><defs/><g><text fill="#000000" font-family="sans-serif" font-size="14" font-weight="bold" lengthAdjust="spacing" textLength="308" x="489.25" y="34.5332">Activity Diagram: UC-04 Update Order Status</text><rect fill="none" height="22.6406" style="stroke:none;stroke-width:1.0;" width="1256.5" x="15" y="51.0645"/><ellipse cx="215.5" cy="88.7051" fill="#222222" rx="10" ry="10" style="stroke:#222222;stroke-width:1.0;"/><rect fill="#F1F1F1" height="35.0938" rx="12.5" ry="12.5" style="stroke:#181818;stroke-width:0.5;" width="178" x="126.5" y="118.7051"/><text fill="#000000" font-family="sans-serif" font-size="12" lengthAdjust="spacing" textLength="158" x="136.5" y="141.1621">View pending orders on KDS</text><rect fill="#F1F1F1" height="35.0938" rx="12.5" ry="12.5" style="stroke:#181818;stroke-width:0.5;" width="143" x="144" y="173.7988"/><text fill="#000000" font-family="sans-serif" font-size="12" lengthAdjust="spacing" textLength="123" x="154" y="196.2559">Select an order to start</text><rect fill="#F1F1F1" height="35.0938" rx="12.5" ry="12.5" style="stroke:#181818;stroke-width:0.5;" width="175" x="128" y="228.8926"/><text fill="#000000" font-family="sans-serif" font-size="12" lengthAdjust="spacing" textLength="155" x="138" y="251.3496">Change status to 'Preparing'</text><rect fill="#F1F1F1" height="35.0938" rx="12.5" ry="12.5" style="stroke:#181818;stroke-width:0.5;" width="125" x="153" y="339.0801"/><text fill="#000000" font-family="sans-serif" font-size="12" lengthAdjust="spacing" textLength="105" x="163" y="361.5371">Prepare food items</text><polygon fill="#F1F1F1" points="154,394.1738,277,394.1738,289,406.1738,277,418.1738,154,418.1738,142,406.1738,154,394.1738" style="stroke:#181818;stroke-width:0.5;"/><text fill="#000000" font-family="sans-serif" font-size="11" lengthAdjust="spacing" textLength="123" x="154" y="410.6748">Issue during preparation?</text><text fill="#000000" font-family="sans-serif" font-size="11" lengthAdjust="spacing" textLength="122" x="20" y="403.7568">[Yes - Missing ingredient]</text><text fill="#000000" font-family="sans-serif" font-size="11" lengthAdjust="spacing" textLength="19" x="289" y="403.7568">[No]</text><rect fill="#F1F1F1" height="35.0938" rx="12.5" ry="12.5" style="stroke:#181818;stroke-width:0.5;" width="133" x="26" y="438.1738"/><text fill="#000000" font-family="sans-serif" font-size="12" lengthAdjust="spacing" textLength="113" x="36" y="460.6309">Mark order as 'Issue'</text><rect fill="#F1F1F1" height="35.0938" rx="12.5" ry="12.5" style="stroke:#181818;stroke-width:0.5;" width="147" x="265" y="438.1738"/><text fill="#000000" font-family="sans-serif" font-size="12" lengthAdjust="spacing" textLength="127" x="275" y="460.6309">Finish food preparation</text><rect fill="#F1F1F1" height="35.0938" rx="12.5" ry="12.5" style="stroke:#181818;stroke-width:0.5;" width="156" x="260.5" y="493.2676"/><text fill="#000000" font-family="sans-serif" font-size="12" lengthAdjust="spacing" textLength="136" x="270.5" y="515.7246">Change status to 'Ready'</text><line style="stroke:#000000;stroke-width:1.5;" x1="15" x2="15" y1="51.0645" y2="845.8301"/><rect fill="#F1F1F1" height="35.0938" rx="12.5" ry="12.5" style="stroke:#181818;stroke-width:0.5;" width="171" x="509.5" y="283.9863"/><text fill="#000000" font-family="sans-serif" font-size="12" lengthAdjust="spacing" textLength="151" x="519.5" y="306.4434">Update status to 'Preparing'</text><rect fill="#F1F1F1" height="35.0938" rx="12.5" ry="12.5" style="stroke:#181818;stroke-width:0.5;" width="91" x="426.5" y="493.2676"/><text fill="#000000" font-family="sans-serif" font-size="12" lengthAdjust="spacing" textLength="71" x="436.5" y="515.7246">Alert Cashier</text><rect fill="#F1F1F1" height="35.0938" rx="12.5" ry="12.5" style="stroke:#181818;stroke-width:0.5;" width="152" x="642" y="548.3613"/><text fill="#000000" font-family="sans-serif" font-size="12" lengthAdjust="spacing" textLength="132" x="652" y="570.8184">Update status to 'Ready'</text><rect fill="#F1F1F1" height="35.0938" rx="12.5" ry="12.5" style="stroke:#181818;stroke-width:0.5;" width="136" x="650" y="603.4551"/><text fill="#000000" font-family="sans-serif" font-size="12" lengthAdjust="spacing" textLength="116" x="660" y="625.9121">Notify Cashier / Rider</text><rect fill="#F1F1F1" height="35.0938" rx="12.5" ry="12.5" style="stroke:#181818;stroke-width:0.5;" width="91" x="672.5" y="768.7363"/><text fill="#000000" font-family="sans-serif" font-size="12" lengthAdjust="spacing" textLength="71" x="682.5" y="791.1934">Archive order</text><ellipse cx="595" cy="834.8301" fill="none" rx="11" ry="11" style="stroke:#222222;stroke-width:1.0;"/><ellipse cx="595" cy="834.8301" fill="#222222" rx="6" ry="6" style="stroke:#222222;stroke-width:1.0;"/><line style="stroke:#000000;stroke-width:1.5;" x1="420.5" x2="420.5" y1="51.0645" y2="845.8301"/><rect fill="#F1F1F1" height="35.0938" rx="12.5" ry="12.5" style="stroke:#181818;stroke-width:0.5;" width="113" x="846.5" y="548.3613"/><text fill="#000000" font-family="sans-serif" font-size="12" lengthAdjust="spacing" textLength="93" x="856.5" y="570.8184">Inform Customer</text><rect fill="#F1F1F1" height="35.0938" rx="12.5" ry="12.5" style="stroke:#181818;stroke-width:0.5;" width="198" x="804" y="603.4551"/><text fill="#000000" font-family="sans-serif" font-size="12" lengthAdjust="spacing" textLength="178" x="814" y="625.9121">Invoke UC-03 (Cancel &amp; Refund)</text><ellipse cx="903" cy="669.5488" fill="none" rx="11" ry="11" style="stroke:#222222;stroke-width:1.0;"/><ellipse cx="903" cy="669.5488" fill="#222222" rx="6" ry="6" style="stroke:#222222;stroke-width:1.0;"/><line style="stroke:#000000;stroke-width:1.5;" x1="798" x2="798" y1="51.0645" y2="845.8301"/><rect fill="#F1F1F1" height="35.0938" rx="12.5" ry="12.5" style="stroke:#181818;stroke-width:0.5;" width="199" x="1039.5" y="658.5488"/><text fill="#000000" font-family="sans-serif" font-size="12" lengthAdjust="spacing" textLength="179" x="1049.5" y="681.0059">Hand over food to customer/rider</text><rect fill="#F1F1F1" height="35.0938" rx="12.5" ry="12.5" style="stroke:#181818;stroke-width:0.5;" width="254" x="1012" y="713.6426"/><text fill="#000000" font-family="sans-serif" font-size="12" lengthAdjust="spacing" textLength="234" x="1022" y="736.0996">Change status to 'Completed / Dispatched'</text><line style="stroke:#000000;stroke-width:1.5;" x1="1006" x2="1006" y1="51.0645" y2="845.8301"/><line style="stroke:#000000;stroke-width:1.5;" x1="1270" x2="1270" y1="51.0645" y2="845.8301"/><line style="stroke:#181818;stroke-width:1.0;" x1="215.5" x2="215.5" y1="98.7051" y2="118.7051"/><polygon fill="#181818" points="211.5,108.7051,215.5,118.7051,219.5,108.7051,215.5,112.7051" style="stroke:#181818;stroke-width:1.0;"/><line style="stroke:#181818;stroke-width:1.0;" x1="215.5" x2="215.5" y1="153.7988" y2="173.7988"/><polygon fill="#181818" points="211.5,163.7988,215.5,173.7988,219.5,163.7988,215.5,167.7988" style="stroke:#181818;stroke-width:1.0;"/><line style="stroke:#181818;stroke-width:1.0;" x1="215.5" x2="215.5" y1="208.8926" y2="228.8926"/><polygon fill="#181818" points="211.5,218.8926,215.5,228.8926,219.5,218.8926,215.5,222.8926" style="stroke:#181818;stroke-width:1.0;"/><line style="stroke:#181818;stroke-width:1.0;" x1="338.5" x2="338.5" y1="473.2676" y2="493.2676"/><polygon fill="#181818" points="334.5,483.2676,338.5,493.2676,342.5,483.2676,338.5,487.2676" style="stroke:#181818;stroke-width:1.0;"/><line style="stroke:#181818;stroke-width:1.0;" x1="142" x2="92.5" y1="406.1738" y2="406.1738"/><line style="stroke:#181818;stroke-width:1.0;" x1="92.5" x2="92.5" y1="406.1738" y2="438.1738"/><polygon fill="#181818" points="88.5,428.1738,92.5,438.1738,96.5,428.1738,92.5,432.1738" style="stroke:#181818;stroke-width:1.0;"/><line style="stroke:#181818;stroke-width:1.0;" x1="289" x2="338.5" y1="406.1738" y2="406.1738"/><line style="stroke:#181818;stroke-width:1.0;" x1="338.5" x2="338.5" y1="406.1738" y2="438.1738"/><polygon fill="#181818" points="334.5,428.1738,338.5,438.1738,342.5,428.1738,338.5,432.1738" style="stroke:#181818;stroke-width:1.0;"/><line style="stroke:#181818;stroke-width:1.0;" x1="215.5" x2="215.5" y1="374.1738" y2="394.1738"/><polygon fill="#181818" points="211.5,384.1738,215.5,394.1738,219.5,384.1738,215.5,388.1738" style="stroke:#181818;stroke-width:1.0;"/><line style="stroke:#181818;stroke-width:1.0;" x1="718" x2="718" y1="583.4551" y2="603.4551"/><polygon fill="#181818" points="714,593.4551,718,603.4551,722,593.4551,718,597.4551" style="stroke:#181818;stroke-width:1.0;"/><line style="stroke:#181818;stroke-width:1.0;" x1="903" x2="903" y1="583.4551" y2="603.4551"/><polygon fill="#181818" points="899,593.4551,903,603.4551,907,593.4551,903,597.4551" style="stroke:#181818;stroke-width:1.0;"/><line style="stroke:#181818;stroke-width:1.0;" x1="903" x2="903" y1="638.5488" y2="658.5488"/><polygon fill="#181818" points="899,648.5488,903,658.5488,907,648.5488,903,652.5488" style="stroke:#181818;stroke-width:1.0;"/><line style="stroke:#181818;stroke-width:1.0;" x1="1139" x2="1139" y1="693.6426" y2="713.6426"/><polygon fill="#181818" points="1135,703.6426,1139,713.6426,1143,703.6426,1139,707.6426" style="stroke:#181818;stroke-width:1.0;"/><line style="stroke:#181818;stroke-width:1.0;" x1="215.5" x2="215.5" y1="263.9863" y2="268.9863"/><line style="stroke:#181818;stroke-width:1.0;" x1="215.5" x2="595" y1="268.9863" y2="268.9863"/><line style="stroke:#181818;stroke-width:1.0;" x1="595" x2="595" y1="268.9863" y2="283.9863"/><polygon fill="#181818" points="591,273.9863,595,283.9863,599,273.9863,595,277.9863" style="stroke:#181818;stroke-width:1.0;"/><line style="stroke:#181818;stroke-width:1.0;" x1="595" x2="595" y1="319.0801" y2="324.0801"/><line style="stroke:#181818;stroke-width:1.0;" x1="595" x2="215.5" y1="324.0801" y2="324.0801"/><line style="stroke:#181818;stroke-width:1.0;" x1="215.5" x2="215.5" y1="324.0801" y2="339.0801"/><polygon fill="#181818" points="211.5,329.0801,215.5,339.0801,219.5,329.0801,215.5,333.0801" style="stroke:#181818;stroke-width:1.0;"/><line style="stroke:#181818;stroke-width:1.0;" x1="92.5" x2="92.5" y1="473.2676" y2="478.2676"/><line style="stroke:#181818;stroke-width:1.0;" x1="92.5" x2="472" y1="478.2676" y2="478.2676"/><line style="stroke:#181818;stroke-width:1.0;" x1="472" x2="472" y1="478.2676" y2="493.2676"/><polygon fill="#181818" points="468,483.2676,472,493.2676,476,483.2676,472,487.2676" style="stroke:#181818;stroke-width:1.0;"/><line style="stroke:#181818;stroke-width:1.0;" x1="472" x2="472" y1="528.3613" y2="533.3613"/><line style="stroke:#181818;stroke-width:1.0;" x1="472" x2="903" y1="533.3613" y2="533.3613"/><line style="stroke:#181818;stroke-width:1.0;" x1="903" x2="903" y1="533.3613" y2="548.3613"/><polygon fill="#181818" points="899,538.3613,903,548.3613,907,538.3613,903,542.3613" style="stroke:#181818;stroke-width:1.0;"/><line style="stroke:#181818;stroke-width:1.0;" x1="338.5" x2="338.5" y1="528.3613" y2="533.3613"/><line style="stroke:#181818;stroke-width:1.0;" x1="338.5" x2="718" y1="533.3613" y2="533.3613"/><line style="stroke:#181818;stroke-width:1.0;" x1="718" x2="718" y1="533.3613" y2="548.3613"/><polygon fill="#181818" points="714,538.3613,718,548.3613,722,538.3613,718,542.3613" style="stroke:#181818;stroke-width:1.0;"/><line style="stroke:#181818;stroke-width:1.0;" x1="718" x2="718" y1="638.5488" y2="643.5488"/><line style="stroke:#181818;stroke-width:1.0;" x1="718" x2="1139" y1="643.5488" y2="643.5488"/><line style="stroke:#181818;stroke-width:1.0;" x1="1139" x2="1139" y1="643.5488" y2="658.5488"/><polygon fill="#181818" points="1135,648.5488,1139,658.5488,1143,648.5488,1139,652.5488" style="stroke:#181818;stroke-width:1.0;"/><line style="stroke:#181818;stroke-width:1.0;" x1="1139" x2="1139" y1="748.7363" y2="753.7363"/><line style="stroke:#181818;stroke-width:1.0;" x1="1139" x2="718" y1="753.7363" y2="753.7363"/><line style="stroke:#181818;stroke-width:1.0;" x1="718" x2="718" y1="753.7363" y2="768.7363"/><polygon fill="#181818" points="714,758.7363,718,768.7363,722,758.7363,718,762.7363" style="stroke:#181818;stroke-width:1.0;"/><line style="stroke:#181818;stroke-width:1.0;" x1="718" x2="718" y1="803.8301" y2="808.8301"/><line style="stroke:#181818;stroke-width:1.0;" x1="718" x2="595" y1="808.8301" y2="808.8301"/><line style="stroke:#181818;stroke-width:1.0;" x1="595" x2="595" y1="808.8301" y2="823.8301"/><polygon fill="#181818" points="591,813.8301,595,823.8301,599,813.8301,595,817.8301" style="stroke:#181818;stroke-width:1.0;"/><text fill="#000000" font-family="sans-serif" font-size="18" lengthAdjust="spacing" textLength="60" x="187.75" y="69.75">Kitchen</text><text fill="#000000" font-family="sans-serif" font-size="18" lengthAdjust="spacing" textLength="59" x="579.75" y="69.75">System</text><text fill="#000000" font-family="sans-serif" font-size="18" lengthAdjust="spacing" textLength="62" x="871" y="69.75">Cashier</text><text fill="#000000" font-family="sans-serif" font-size="18" lengthAdjust="spacing" textLength="120" x="1078" y="69.75">Cashier / Rider</text><!--SRC=[TL9DI-j05DtFhpYhrtOX2hfA5r9IH17rqQ8W3nT3vgQvcCo4cPi-2ltnpanQ5JyMWSaz7tFEJOIb9ImguItB3alM6w-x0e_boTa57dkZXV3W3NciHSiGbDhVibGDsRqAehseuedfFtgoXkq6Bd43dCNjSZrNnPfQgWJQZWZ48SiYL3RQRYYzHjy4JFvwwhMFDfDvl6Uz2qBTNXM76ByItmCLuvnGEsV0KHtcYcjCRq8O26P84lIPf8MTlPn1eXBJVyyKS88x3Y5HukF9C5bvcIcWkDF-zL101qooNRmQU0yPIOkMlA3KeM7o6JoSCtfZQ-Sxb4CGrurud6tTA-LbdsDQQbjHYpzOKJrOCqkKIEuLjO5Yn7kNmtpKZGvNR3aqOzzFlRBxz_skI9jTplqb-lSDVr2BUoTSxux5S8eLcx70fux7SRQxrjR0RUCq1uj-rQ7sgJzgVuXNkgvlISX4ioM7NgUUvgUy2ryrlANnaynL-lTgbNRr1W00]--></g></svg>