<?xml version="1.0" encoding="us-ascii" standalone="no"?><svg xmlns="http://www.w3.org/2000/svg" xmlns:xlink="http://www.w3.org/1999/xlink" contentStyleType="text/css" height="671px" preserveAspectRatio="none" style="width:737px;height:671px;background:#FFFFFF;" version="1.1" viewBox="0 0 737 671" width="737px" zoomAndPan="magnify"><defs/><g><text fill="#000000" font-family="sans-serif" font-size="14" font-weight="bold" lengthAdjust="spacing" textLength="333" x="200.75" y="34.5332">Activity Diagram: UC-10 Manage Local Inventory</text><rect fill="none" height="22.6406" style="stroke:none;stroke-width:1.0;" width="704.5" x="15" y="51.0645"/><ellipse cx="193" cy="88.7051" fill="#222222" rx="10" ry="10" style="stroke:#222222;stroke-width:1.0;"/><rect fill="#F1F1F1" height="35.0938" rx="12.5" ry="12.5" style="stroke:#181818;stroke-width:0.5;" width="211" x="87.5" y="118.7051"/><text fill="#000000" font-family="sans-serif" font-size="12" lengthAdjust="spacing" textLength="191" x="97.5" y="141.1621">Navigate to 'Inventory Management'</text><rect fill="#F1F1F1" height="35.0938" rx="12.5" ry="12.5" style="stroke:#181818;stroke-width:0.5;" width="222" x="82" y="228.8926"/><text fill="#000000" font-family="sans-serif" font-size="12" lengthAdjust="spacing" textLength="202" x="92" y="251.3496">Perform manual physical stock count</text><polygon fill="#F1F1F1" points="112,283.9863,274,283.9863,286,295.9863,274,307.9863,112,307.9863,100,295.9863,112,283.9863" style="stroke:#181818;stroke-width:0.5;"/><text fill="#000000" font-family="sans-serif" font-size="11" lengthAdjust="spacing" textLength="162" x="112" y="300.4873">Physical Count == System Count?</text><text fill="#000000" font-family="sans-serif" font-size="11" lengthAdjust="spacing" textLength="26" x="74" y="293.5693">[Yes]</text><text fill="#000000" font-family="sans-serif" font-size="11" lengthAdjust="spacing" textLength="19" x="286" y="293.5693">[No]</text><rect fill="#F1F1F1" height="35.0938" rx="12.5" ry="12.5" style="stroke:#181818;stroke-width:0.5;" width="138" x="21" y="327.9863"/><text fill="#000000" font-family="sans-serif" font-size="12" lengthAdjust="spacing" textLength="118" x="31" y="350.4434">Approve current count</text><rect fill="#F1F1F1" height="35.0938" rx="12.5" ry="12.5" style="stroke:#181818;stroke-width:0.5;" width="212" x="190" y="327.9863"/><text fill="#000000" font-family="sans-serif" font-size="12" lengthAdjust="spacing" textLength="192" x="200" y="350.4434">Enter stock adjustment into system</text><rect fill="#F1F1F1" height="35.0938" rx="12.5" ry="12.5" style="stroke:#181818;stroke-width:0.5;" width="231" x="180.5" y="438.1738"/><text fill="#000000" font-family="sans-serif" font-size="12" lengthAdjust="spacing" textLength="211" x="190.5" y="460.6309">Log adjustment reason (e.g. Spoilage)</text><polygon fill="#F1F1F1" points="193,483.2676,205,495.2676,193,507.2676,181,495.2676,193,483.2676" style="stroke:#181818;stroke-width:0.5;"/><line style="stroke:#000000;stroke-width:1.5;" x1="15" x2="15" y1="51.0645" y2="659.4551"/><rect fill="#F1F1F1" height="35.0938" rx="12.5" ry="12.5" style="stroke:#181818;stroke-width:0.5;" width="169" x="434.5" y="173.7988"/><text fill="#000000" font-family="sans-serif" font-size="12" lengthAdjust="spacing" textLength="149" x="444.5" y="196.2559">Display current stock levels</text><rect fill="#F1F1F1" height="35.0938" rx="12.5" ry="12.5" style="stroke:#181818;stroke-width:0.5;" width="184" x="530" y="383.0801"/><text fill="#000000" font-family="sans-serif" font-size="12" lengthAdjust="spacing" textLength="164" x="540" y="405.5371">Prompt for adjustment reason</text><rect fill="#F1F1F1" height="35.0938" rx="12.5" ry="12.5" style="stroke:#181818;stroke-width:0.5;" width="191" x="423.5" y="527.2676"/><text fill="#000000" font-family="sans-serif" font-size="12" lengthAdjust="spacing" textLength="171" x="433.5" y="549.7246">Save updated inventory records</text><rect fill="#F1F1F1" height="35.0938" rx="12.5" ry="12.5" style="stroke:#181818;stroke-width:0.5;" width="195" x="421.5" y="582.3613"/><text fill="#000000" font-family="sans-serif" font-size="12" lengthAdjust="spacing" textLength="175" x="431.5" y="604.8184">Log timestamp and manager ID</text><ellipse cx="519" cy="648.4551" fill="none" rx="11" ry="11" style="stroke:#222222;stroke-width:1.0;"/><ellipse cx="519" cy="648.4551" fill="#222222" rx="6" ry="6" style="stroke:#222222;stroke-width:1.0;"/><line style="stroke:#000000;stroke-width:1.5;" x1="415.5" x2="415.5" y1="51.0645" y2="659.4551"/><line style="stroke:#000000;stroke-width:1.5;" x1="718" x2="718" y1="51.0645" y2="659.4551"/><line style="stroke:#181818;stroke-width:1.0;" x1="193" x2="193" y1="98.7051" y2="118.7051"/><polygon fill="#181818" points="189,108.7051,193,118.7051,197,108.7051,193,112.7051" style="stroke:#181818;stroke-width:1.0;"/><line style="stroke:#181818;stroke-width:1.0;" x1="100" x2="90" y1="295.9863" y2="295.9863"/><line style="stroke:#181818;stroke-width:1.0;" x1="90" x2="90" y1="295.9863" y2="327.9863"/><polygon fill="#181818" points="86,317.9863,90,327.9863,94,317.9863,90,321.9863" style="stroke:#181818;stroke-width:1.0;"/><line style="stroke:#181818;stroke-width:1.0;" x1="286" x2="296" y1="295.9863" y2="295.9863"/><line style="stroke:#181818;stroke-width:1.0;" x1="296" x2="296" y1="295.9863" y2="327.9863"/><polygon fill="#181818" points="292,317.9863,296,327.9863,300,317.9863,296,321.9863" style="stroke:#181818;stroke-width:1.0;"/><line style="stroke:#181818;stroke-width:1.0;" x1="90" x2="90" y1="363.0801" y2="495.2676"/><line style="stroke:#181818;stroke-width:1.0;" x1="90" x2="181" y1="495.2676" y2="495.2676"/><polygon fill="#181818" points="171,491.2676,181,495.2676,171,499.2676,175,495.2676" style="stroke:#181818;stroke-width:1.0;"/><line style="stroke:#181818;stroke-width:1.0;" x1="296" x2="296" y1="473.2676" y2="495.2676"/><line style="stroke:#181818;stroke-width:1.0;" x1="296" x2="205" y1="495.2676" y2="495.2676"/><polygon fill="#181818" points="215,491.2676,205,495.2676,215,499.2676,211,495.2676" style="stroke:#181818;stroke-width:1.0;"/><line style="stroke:#181818;stroke-width:1.0;" x1="193" x2="193" y1="263.9863" y2="283.9863"/><polygon fill="#181818" points="189,273.9863,193,283.9863,197,273.9863,193,277.9863" style="stroke:#181818;stroke-width:1.0;"/><line style="stroke:#181818;stroke-width:1.0;" x1="519" x2="519" y1="562.3613" y2="582.3613"/><polygon fill="#181818" points="515,572.3613,519,582.3613,523,572.3613,519,576.3613" style="stroke:#181818;stroke-width:1.0;"/><line style="stroke:#181818;stroke-width:1.0;" x1="519" x2="519" y1="617.4551" y2="637.4551"/><polygon fill="#181818" points="515,627.4551,519,637.4551,523,627.4551,519,631.4551" style="stroke:#181818;stroke-width:1.0;"/><line style="stroke:#181818;stroke-width:1.0;" x1="193" x2="193" y1="153.7988" y2="158.7988"/><line style="stroke:#181818;stroke-width:1.0;" x1="193" x2="519" y1="158.7988" y2="158.7988"/><line style="stroke:#181818;stroke-width:1.0;" x1="519" x2="519" y1="158.7988" y2="173.7988"/><polygon fill="#181818" points="515,163.7988,519,173.7988,523,163.7988,519,167.7988" style="stroke:#181818;stroke-width:1.0;"/><line style="stroke:#181818;stroke-width:1.0;" x1="519" x2="519" y1="208.8926" y2="213.8926"/><line style="stroke:#181818;stroke-width:1.0;" x1="519" x2="193" y1="213.8926" y2="213.8926"/><line style="stroke:#181818;stroke-width:1.0;" x1="193" x2="193" y1="213.8926" y2="228.8926"/><polygon fill="#181818" points="189,218.8926,193,228.8926,197,218.8926,193,222.8926" style="stroke:#181818;stroke-width:1.0;"/><line style="stroke:#181818;stroke-width:1.0;" x1="296" x2="296" y1="363.0801" y2="368.0801"/><line style="stroke:#181818;stroke-width:1.0;" x1="296" x2="622" y1="368.0801" y2="368.0801"/><line style="stroke:#181818;stroke-width:1.0;" x1="622" x2="622" y1="368.0801" y2="383.0801"/><polygon fill="#181818" points="618,373.0801,622,383.0801,626,373.0801,622,377.0801" style="stroke:#181818;stroke-width:1.0;"/><line style="stroke:#181818;stroke-width:1.0;" x1="622" x2="622" y1="418.1738" y2="423.1738"/><line style="stroke:#181818;stroke-width:1.0;" x1="622" x2="296" y1="423.1738" y2="423.1738"/><line style="stroke:#181818;stroke-width:1.0;" x1="296" x2="296" y1="423.1738" y2="438.1738"/><polygon fill="#181818" points="292,428.1738,296,438.1738,300,428.1738,296,432.1738" style="stroke:#181818;stroke-width:1.0;"/><line style="stroke:#181818;stroke-width:1.0;" x1="193" x2="193" y1="507.2676" y2="512.2676"/><line style="stroke:#181818;stroke-width:1.0;" x1="193" x2="519" y1="512.2676" y2="512.2676"/><line style="stroke:#181818;stroke-width:1.0;" x1="519" x2="519" y1="512.2676" y2="527.2676"/><polygon fill="#181818" points="515,517.2676,519,527.2676,523,517.2676,519,521.2676" style="stroke:#181818;stroke-width:1.0;"/><text fill="#000000" font-family="sans-serif" font-size="18" lengthAdjust="spacing" textLength="71" x="179.75" y="69.75">Manager</text><text fill="#000000" font-family="sans-serif" font-size="18" lengthAdjust="spacing" textLength="59" x="537.25" y="69.75">System</text><!--SRC=[PL5DQy904BtlhvYRUgYqrmGfeZq8LWJfePGUbcGIjytkBBEJGC0VtudH8FIuE-_D-nXnqY2i2t6TanwspjPiVGOVcwUNPtYtmTO8Uofi0xlGOH3YtfZBEE2BIM9PJ7QmdQkj80Z1R0BU-5vVirnPfpu9-el9jYx5nlPGjCmwX2HK_4A37JOfVroV7P4hOW_UXbOzn7EVt61cP1JK1icDgs1-l4ysmn-iLZ2gZU_N1SWP0yo_FZ5zBmn0jewHgSF9mssNEa257MX4lGL1lgdPygTDCgG1f_aWNGLoXKt9b75ayb50NJyI66sYSCLEuHIyf_e_2kQuh9TmYkGQHIxKL2XTzLZWoQhpDfPQUQbcxdqp5iIbLdXTBCwZtiT7iA4S6XnaORVDzMeK_m00]--></g></svg>