<?xml version="1.0" encoding="us-ascii" standalone="no"?><svg xmlns="http://www.w3.org/2000/svg" xmlns:xlink="http://www.w3.org/1999/xlink" contentStyleType="text/css" height="495px" preserveAspectRatio="none" style="width:1096px;height:495px;background:#FFFFFF;" version="1.1" viewBox="0 0 1096 495" width="1096px" zoomAndPan="magnify"><defs/><g><text fill="#000000" font-family="sans-serif" font-size="14" font-weight="bold" lengthAdjust="spacing" textLength="350" x="371.75" y="34.5332">Activity Diagram: UC-09 Monitor Delivery Progress</text><rect fill="none" height="22.6406" style="stroke:none;stroke-width:1.0;" width="1063.5" x="15" y="51.0645"/><ellipse cx="334" cy="88.7051" fill="#222222" rx="10" ry="10" style="stroke:#222222;stroke-width:1.0;"/><rect fill="#F1F1F1" height="35.0938" rx="12.5" ry="12.5" style="stroke:#181818;stroke-width:0.5;" width="244" x="212" y="118.7051"/><text fill="#000000" font-family="sans-serif" font-size="12" lengthAdjust="spacing" textLength="224" x="222" y="141.1621">Navigate to 'Delivery Tracking' dashboard</text><line style="stroke:#181818;stroke-width:1.5;" x1="112" x2="439" y1="173.7988" y2="173.7988"/><rect fill="#F1F1F1" height="35.0938" rx="12.5" ry="12.5" style="stroke:#181818;stroke-width:0.5;" width="182" x="21" y="248.8926"/><text fill="#000000" font-family="sans-serif" font-size="12" lengthAdjust="spacing" textLength="162" x="31" y="271.3496">Select a specific rider on map</text><line style="stroke:#000000;stroke-width:1.5;" x1="15" x2="15" y1="51.0645" y2="483.127"/><rect fill="#F1F1F1" height="35.0938" rx="12.5" ry="12.5" style="stroke:#181818;stroke-width:0.5;" width="201" x="466" y="318.9863"/><text fill="#000000" font-family="sans-serif" font-size="12" lengthAdjust="spacing" textLength="181" x="476" y="341.4434">Display detailed order info popup</text><rect fill="#F1F1F1" height="35.0938" rx="12.5" ry="12.5" style="stroke:#181818;stroke-width:0.5;" width="211" x="760" y="193.7988"/><text fill="#000000" font-family="sans-serif" font-size="12" lengthAdjust="spacing" textLength="191" x="770" y="216.2559">Continuously poll GPS coordinates</text><polygon fill="#F1F1F1" points="824,251.9395,907,251.9395,919,263.9395,907,275.9395,824,275.9395,812,263.9395,824,251.9395" style="stroke:#181818;stroke-width:0.5;"/><text fill="#000000" font-family="sans-serif" font-size="11" lengthAdjust="spacing" textLength="83" x="824" y="268.4404">Rider GPS is off?</text><text fill="#000000" font-family="sans-serif" font-size="11" lengthAdjust="spacing" textLength="26" x="786" y="261.5225">[Yes]</text><text fill="#000000" font-family="sans-serif" font-size="11" lengthAdjust="spacing" textLength="19" x="919" y="261.5225">[No]</text><rect fill="#F1F1F1" height="35.0938" rx="12.5" ry="12.5" style="stroke:#181818;stroke-width:0.5;" width="169" x="677" y="285.9395"/><text fill="#000000" font-family="sans-serif" font-size="12" lengthAdjust="spacing" textLength="149" x="687" y="308.3965">Display last known location</text><rect fill="#F1F1F1" height="35.0938" rx="12.5" ry="12.5" style="stroke:#181818;stroke-width:0.5;" width="154" x="684.5" y="356.0332"/><text fill="#000000" font-family="sans-serif" font-size="12" lengthAdjust="spacing" textLength="134" x="694.5" y="378.4902">Show GPS Warning Icon</text><rect fill="#F1F1F1" height="35.0938" rx="12.5" ry="12.5" style="stroke:#181818;stroke-width:0.5;" width="207" x="866" y="285.9395"/><text fill="#000000" font-family="sans-serif" font-size="12" lengthAdjust="spacing" textLength="187" x="876" y="308.3965">Overlay live rider locations on map</text><rect fill="#F1F1F1" height="35.0938" rx="12.5" ry="12.5" style="stroke:#181818;stroke-width:0.5;" width="196" x="871.5" y="356.0332"/><text fill="#000000" font-family="sans-serif" font-size="12" lengthAdjust="spacing" textLength="176" x="881.5" y="378.4902">Update estimated delivery times</text><polygon fill="#F1F1F1" points="865.5,397.127,877.5,409.127,865.5,421.127,853.5,409.127,865.5,397.127" style="stroke:#181818;stroke-width:0.5;"/><line style="stroke:#181818;stroke-width:1.5;" x1="566.5" x2="865.5" y1="441.127" y2="441.127"/><ellipse cx="760.5" cy="472.127" fill="none" rx="11" ry="11" style="stroke:#222222;stroke-width:1.0;"/><ellipse cx="760.5" cy="472.127" fill="#222222" rx="6" ry="6" style="stroke:#222222;stroke-width:1.0;"/><line style="stroke:#000000;stroke-width:1.5;" x1="460" x2="460" y1="51.0645" y2="483.127"/><line style="stroke:#000000;stroke-width:1.5;" x1="1077" x2="1077" y1="51.0645" y2="483.127"/><line style="stroke:#181818;stroke-width:1.0;" x1="334" x2="334" y1="98.7051" y2="118.7051"/><polygon fill="#181818" points="330,108.7051,334,118.7051,338,108.7051,334,112.7051" style="stroke:#181818;stroke-width:1.0;"/><line style="stroke:#181818;stroke-width:1.0;" x1="112" x2="112" y1="175.2988" y2="248.8926"/><polygon fill="#181818" points="108,238.8926,112,248.8926,116,238.8926,112,242.8926" style="stroke:#181818;stroke-width:1.0;"/><line style="stroke:#181818;stroke-width:1.0;" x1="334" x2="334" y1="153.7988" y2="173.7988"/><polygon fill="#181818" points="330,163.7988,334,173.7988,338,163.7988,334,167.7988" style="stroke:#181818;stroke-width:1.0;"/><line style="stroke:#181818;stroke-width:1.0;" x1="761.5" x2="761.5" y1="321.0332" y2="356.0332"/><polygon fill="#181818" points="757.5,346.0332,761.5,356.0332,765.5,346.0332,761.5,350.0332" style="stroke:#181818;stroke-width:1.0;"/><line style="stroke:#181818;stroke-width:1.0;" x1="969.5" x2="969.5" y1="321.0332" y2="356.0332"/><polygon fill="#181818" points="965.5,346.0332,969.5,356.0332,973.5,346.0332,969.5,350.0332" style="stroke:#181818;stroke-width:1.0;"/><line style="stroke:#181818;stroke-width:1.0;" x1="812" x2="761.5" y1="263.9395" y2="263.9395"/><line style="stroke:#181818;stroke-width:1.0;" x1="761.5" x2="761.5" y1="263.9395" y2="285.9395"/><polygon fill="#181818" points="757.5,275.9395,761.5,285.9395,765.5,275.9395,761.5,279.9395" style="stroke:#181818;stroke-width:1.0;"/><line style="stroke:#181818;stroke-width:1.0;" x1="919" x2="969.5" y1="263.9395" y2="263.9395"/><line style="stroke:#181818;stroke-width:1.0;" x1="969.5" x2="969.5" y1="263.9395" y2="285.9395"/><polygon fill="#181818" points="965.5,275.9395,969.5,285.9395,973.5,275.9395,969.5,279.9395" style="stroke:#181818;stroke-width:1.0;"/><line style="stroke:#181818;stroke-width:1.0;" x1="761.5" x2="761.5" y1="391.127" y2="409.127"/><line style="stroke:#181818;stroke-width:1.0;" x1="761.5" x2="853.5" y1="409.127" y2="409.127"/><polygon fill="#181818" points="843.5,405.127,853.5,409.127,843.5,413.127,847.5,409.127" style="stroke:#181818;stroke-width:1.0;"/><line style="stroke:#181818;stroke-width:1.0;" x1="969.5" x2="969.5" y1="391.127" y2="409.127"/><line style="stroke:#181818;stroke-width:1.0;" x1="969.5" x2="877.5" y1="409.127" y2="409.127"/><polygon fill="#181818" points="887.5,405.127,877.5,409.127,887.5,413.127,883.5,409.127" style="stroke:#181818;stroke-width:1.0;"/><line style="stroke:#181818;stroke-width:1.0;" x1="865.5" x2="865.5" y1="228.8926" y2="251.9395"/><polygon fill="#181818" points="861.5,241.9395,865.5,251.9395,869.5,241.9395,865.5,245.9395" style="stroke:#181818;stroke-width:1.0;"/><line style="stroke:#181818;stroke-width:1.0;" x1="566.5" x2="566.5" y1="354.0801" y2="441.127"/><polygon fill="#181818" points="562.5,431.127,566.5,441.127,570.5,431.127,566.5,435.127" style="stroke:#181818;stroke-width:1.0;"/><line style="stroke:#181818;stroke-width:1.0;" x1="865.5" x2="865.5" y1="421.127" y2="441.127"/><polygon fill="#181818" points="861.5,431.127,865.5,441.127,869.5,431.127,865.5,435.127" style="stroke:#181818;stroke-width:1.0;"/><line style="stroke:#181818;stroke-width:1.0;" x1="760.5" x2="760.5" y1="442.627" y2="461.127"/><polygon fill="#181818" points="756.5,451.127,760.5,461.127,764.5,451.127,760.5,455.127" style="stroke:#181818;stroke-width:1.0;"/><line style="stroke:#181818;stroke-width:1.0;" x1="112" x2="112" y1="283.9863" y2="301.4863"/><line style="stroke:#181818;stroke-width:1.0;" x1="112" x2="566.5" y1="301.4863" y2="301.4863"/><line style="stroke:#181818;stroke-width:1.0;" x1="566.5" x2="566.5" y1="301.4863" y2="318.9863"/><polygon fill="#181818" points="562.5,308.9863,566.5,318.9863,570.5,308.9863,566.5,312.9863" style="stroke:#181818;stroke-width:1.0;"/><line style="stroke:#181818;stroke-width:1.0;" x1="439" x2="439" y1="175.2988" y2="178.7988"/><line style="stroke:#181818;stroke-width:1.0;" x1="439" x2="865.5" y1="178.7988" y2="178.7988"/><line style="stroke:#181818;stroke-width:1.0;" x1="865.5" x2="865.5" y1="178.7988" y2="193.7988"/><polygon fill="#181818" points="861.5,183.7988,865.5,193.7988,869.5,183.7988,865.5,187.7988" style="stroke:#181818;stroke-width:1.0;"/><text fill="#000000" font-family="sans-serif" font-size="18" lengthAdjust="spacing" textLength="53" x="211" y="69.75">Owner</text><text fill="#000000" font-family="sans-serif" font-size="18" lengthAdjust="spacing" textLength="59" x="739" y="69.75">System</text><!--SRC=[NP31QiCm38RlVWhTsXu6kwuzZD72s65jMLR663jejfAAEbQmrPP07dvEqewoYp7Mfz_IfwoUuCagdrXRM35M4Uivx9Ptzm_mAe5L8gp8yubY2zieLQIKZEasvq2nCqangfclySGLAe4AJFxmzuZsmA6QWCEq_n6CRc5CQZoh0PWNvCag8AI6B9Ti8RAZ21AWncQHaQvearBTzVIASoEsu4YHFJcGsCCSIe56ccDk6981A-JmhtafGJaSvPXycsdluNbRW9MSmI7FdVhVk8Jfsp11N-G4KfQFCz0z1PX-VLBwdcNgPXIFIU4Gv1p0YqLb2OkHAFPo7b8-C8Pi05xiM2EVA8UjvPgroQQ6hApiilyrAzsOoEIkSRrXIifrlhXiuk8vFumRK71Scdp2A3cfDBy0]--></g></svg>