<?plantuml 1.2026.2?><svg xmlns="http://www.w3.org/2000/svg" xmlns:xlink="http://www.w3.org/1999/xlink" contentStyleType="text/css" data-diagram-type="SEQUENCE" height="415px" preserveAspectRatio="none" style="width:855px;height:415px;background:#FFFFFF;" version="1.1" viewBox="0 0 855 415" width="855px" zoomAndPan="magnify"><defs/><g><g class="participant-lifeline" data-entity-uid="part1" data-qualified-name="Manager" id="part1-lifeline"><g><title>Branch Manager</title><rect fill="#000000" fill-opacity="0.00000" height="253.0625" width="8" x="61.5996" y="81.2969"/><line style="stroke:#181818;stroke-width:0.5;stroke-dasharray:5,5;" x1="65" x2="65" y1="81.2969" y2="334.3594"/></g></g><g class="participant-lifeline" data-entity-uid="part2" data-qualified-name="System" id="part2-lifeline"><g><title>. BK System</title><rect fill="#000000" fill-opacity="0.00000" height="253.0625" width="8" x="399.4785" y="81.2969"/><line style="stroke:#181818;stroke-width:0.5;stroke-dasharray:5,5;" x1="402.5327" x2="402.5327" y1="81.2969" y2="334.3594"/></g></g><g class="participant-lifeline" data-entity-uid="part3" data-qualified-name="DB" id="part3-lifeline"><g><title>. Database</title><rect fill="#000000" fill-opacity="0.00000" height="253.0625" width="8" x="811.9805" y="81.2969"/><line style="stroke:#181818;stroke-width:0.5;stroke-dasharray:5,5;" x1="815.355" x2="815.355" y1="81.2969" y2="334.3594"/></g></g><g class="participant participant-head" data-entity-uid="part1" data-qualified-name="Manager" id="part1-head"><text fill="#000000" font-family="sans-serif" font-size="14" lengthAdjust="spacing" textLength="115.1992" x="5" y="77.9951">Branch Manager</text><ellipse cx="65.5996" cy="13.5" fill="#E2E2F0" rx="8" ry="8" style="stroke:#181818;stroke-width:0.5;"/><path d="M65.5996,21.5 L65.5996,48.5 M52.5996,29.5 L78.5996,29.5 M65.5996,48.5 L52.5996,63.5 M65.5996,48.5 L78.5996,63.5" fill="none" style="stroke:#181818;stroke-width:0.5;"/></g><g class="participant participant-tail" data-entity-uid="part1" data-qualified-name="Manager" id="part1-tail"><text fill="#000000" font-family="sans-serif" font-size="14" lengthAdjust="spacing" textLength="115.1992" x="5" y="346.3545">Branch Manager</text><ellipse cx="65.5996" cy="358.1563" fill="#E2E2F0" rx="8" ry="8" style="stroke:#181818;stroke-width:0.5;"/><path d="M65.5996,366.1563 L65.5996,393.1563 M52.5996,374.1563 L78.5996,374.1563 M65.5996,393.1563 L52.5996,408.1563 M65.5996,393.1563 L78.5996,408.1563" fill="none" style="stroke:#181818;stroke-width:0.5;"/></g><g class="participant participant-head" data-entity-uid="part2" data-qualified-name="System" id="part2-head"><rect fill="#E2E2F0" height="30.2969" rx="2.5" ry="2.5" style="stroke:#181818;stroke-width:0.5;" width="93.8916" x="356.5327" y="50"/><text fill="#000000" font-family="sans-serif" font-size="14" lengthAdjust="spacing" textLength="79.8916" x="363.5327" y="69.9951">&#65039; BK System</text></g><g class="participant participant-tail" data-entity-uid="part2" data-qualified-name="System" id="part2-tail"><rect fill="#E2E2F0" height="30.2969" rx="2.5" ry="2.5" style="stroke:#181818;stroke-width:0.5;" width="93.8916" x="356.5327" y="333.3594"/><text fill="#000000" font-family="sans-serif" font-size="14" lengthAdjust="spacing" textLength="79.8916" x="363.5327" y="353.3545">&#65039; BK System</text></g><g class="participant participant-head" data-entity-uid="part3" data-qualified-name="DB" id="part3-head"><text fill="#000000" font-family="sans-serif" font-size="14" lengthAdjust="spacing" textLength="71.251" x="777.355" y="77.9951">&#65039; Database</text><path d="M797.9805,29 C797.9805,19 815.9805,19 815.9805,19 C815.9805,19 833.9805,19 833.9805,29 L833.9805,55 C833.9805,65 815.9805,65 815.9805,65 C815.9805,65 797.9805,65 797.9805,55 L797.9805,29" fill="#E2E2F0" style="stroke:#181818;stroke-width:0.5;"/><path d="M797.9805,29 C797.9805,39 815.9805,39 815.9805,39 C815.9805,39 833.9805,39 833.9805,29" fill="none" style="stroke:#181818;stroke-width:0.5;"/></g><g class="participant participant-tail" data-entity-uid="part3" data-qualified-name="DB" id="part3-tail"><text fill="#000000" font-family="sans-serif" font-size="14" lengthAdjust="spacing" textLength="71.251" x="777.355" y="346.3545">&#65039; Database</text><path d="M797.9805,359.6563 C797.9805,349.6563 815.9805,349.6563 815.9805,349.6563 C815.9805,349.6563 833.9805,349.6563 833.9805,359.6563 L833.9805,385.6563 C833.9805,395.6563 815.9805,395.6563 815.9805,395.6563 C815.9805,395.6563 797.9805,395.6563 797.9805,385.6563 L797.9805,359.6563" fill="#E2E2F0" style="stroke:#181818;stroke-width:0.5;"/><path d="M797.9805,359.6563 C797.9805,369.6563 815.9805,369.6563 815.9805,369.6563 C815.9805,369.6563 833.9805,369.6563 833.9805,359.6563" fill="none" style="stroke:#181818;stroke-width:0.5;"/></g><g class="message" data-entity-1="part1" data-entity-2="part2" id="msg1"><polygon fill="#181818" points="391.4785,108.4297,401.4785,112.4297,391.4785,116.4297,395.4785,112.4297" style="stroke:#181818;stroke-width:1;"/><line style="stroke:#181818;stroke-width:1;" x1="65.5996" x2="397.4785" y1="112.4297" y2="112.4297"/><text fill="#000000" font-family="sans-serif" font-size="13" lengthAdjust="spacing" textLength="190.3154" x="72.5996" y="107.3638">openInventoryManagement()</text></g><g class="message" data-entity-1="part2" data-entity-2="part3" id="msg2"><polygon fill="#181818" points="803.9805,137.5625,813.9805,141.5625,803.9805,145.5625,807.9805,141.5625" style="stroke:#181818;stroke-width:1;"/><line style="stroke:#181818;stroke-width:1;" x1="403.4785" x2="809.9805" y1="141.5625" y2="141.5625"/><text fill="#000000" font-family="sans-serif" font-size="13" lengthAdjust="spacing" textLength="169.8379" x="410.4785" y="136.4966">fetchCurrentStockLevels()</text></g><g class="message" data-entity-1="part3" data-entity-2="part2" id="msg3"><polygon fill="#181818" points="414.4785,166.6953,404.4785,170.6953,414.4785,174.6953,410.4785,170.6953" style="stroke:#181818;stroke-width:1;"/><line style="stroke:#181818;stroke-width:1;stroke-dasharray:2,2;" x1="408.4785" x2="814.9805" y1="170.6953" y2="170.6953"/><text fill="#000000" font-family="sans-serif" font-size="13" lengthAdjust="spacing" textLength="75.6831" x="420.4785" y="165.6294">stockData()</text></g><g class="message" data-entity-1="part2" data-entity-2="part1" id="msg4"><polygon fill="#181818" points="76.5996,195.8281,66.5996,199.8281,76.5996,203.8281,72.5996,199.8281" style="stroke:#181818;stroke-width:1;"/><line style="stroke:#181818;stroke-width:1;stroke-dasharray:2,2;" x1="70.5996" x2="402.4785" y1="199.8281" y2="199.8281"/><text fill="#000000" font-family="sans-serif" font-size="13" lengthAdjust="spacing" textLength="133.5991" x="82.5996" y="194.7622">displayStockLevels()</text></g><g class="message" data-entity-1="part1" data-entity-2="part2" id="msg5"><polygon fill="#181818" points="391.4785,224.9609,401.4785,228.9609,391.4785,232.9609,395.4785,228.9609" style="stroke:#181818;stroke-width:1;"/><line style="stroke:#181818;stroke-width:1;" x1="65.5996" x2="397.4785" y1="228.9609" y2="228.9609"/><text fill="#000000" font-family="sans-serif" font-size="13" lengthAdjust="spacing" textLength="313.8789" x="72.5996" y="223.895">enterStockAdjustment(itemID, quantity, reason)</text></g><g class="message" data-entity-1="part2" data-entity-2="part3" id="msg6"><polygon fill="#181818" points="803.9805,254.0938,813.9805,258.0938,803.9805,262.0938,807.9805,258.0938" style="stroke:#181818;stroke-width:1;"/><line style="stroke:#181818;stroke-width:1;" x1="403.4785" x2="809.9805" y1="258.0938" y2="258.0938"/><text fill="#000000" font-family="sans-serif" font-size="13" lengthAdjust="spacing" textLength="388.502" x="410.4785" y="253.0278">saveInventoryUpdate(itemID, quantity, reason, managerID)</text></g><g class="message" data-entity-1="part3" data-entity-2="part2" id="msg7"><polygon fill="#181818" points="414.4785,283.2266,404.4785,287.2266,414.4785,291.2266,410.4785,287.2266" style="stroke:#181818;stroke-width:1;"/><line style="stroke:#181818;stroke-width:1;stroke-dasharray:2,2;" x1="408.4785" x2="814.9805" y1="287.2266" y2="287.2266"/><text fill="#000000" font-family="sans-serif" font-size="13" lengthAdjust="spacing" textLength="123.665" x="420.4785" y="282.1606">updateConfirmed()</text></g><g class="message" data-entity-1="part2" data-entity-2="part1" id="msg8"><polygon fill="#181818" points="76.5996,312.3594,66.5996,316.3594,76.5996,320.3594,72.5996,316.3594" style="stroke:#181818;stroke-width:1;"/><line style="stroke:#181818;stroke-width:1;stroke-dasharray:2,2;" x1="70.5996" x2="402.4785" y1="316.3594" y2="316.3594"/><text fill="#000000" font-family="sans-serif" font-size="13" lengthAdjust="spacing" textLength="127.3467" x="82.5996" y="311.2935">inventoryUpdated()</text></g><?plantuml-src TP11Ri9034NtSmehgrOA5s21H9XDLBf27C1CJ1bAPgQUIQISejVfhNg5caceGC3Ebf___pQQv1cAYj6P0xoZmm_Y0Z1UQgK2ShB61dG9Yj-VRwZUO3F4H6tcnb8rc727aKP4JrqcTANKf0QpnRG0S_21NErwSX9X685McfTNfIP6Q5q9kQTa3gkEMSQRvCtdcdewHI5bFBlMZEVfsVrQHO2B_nmQ6yC9XrkPX_d4Z3Xpo-ROnPJ3MPdLkeIlJlvXqr024qRlxaD7xEd_l6sG1z7JxHBQCK2jxs_gykxAkxtbbfgdbzbRCm7_0000?></g></svg>